<ttFont>
    <TTGlyph name=".notdef" xMin="246" yMin="0" xMax="1111" yMax="1291">
      <contour>
        <pt x="1084" y="28" on="1"/>
        <pt x="1084" y="1263" on="1"/>
        <pt x="272" y="1263" on="1"/>
        <pt x="272" y="28" on="1"/>
      </contour>
      <contour>
        <pt x="246" y="1291" on="1"/>
        <pt x="1111" y="1291" on="1"/>
        <pt x="1111" y="0" on="1"/>
        <pt x="246" y="0" on="1"/>
      </contour>
    </TTGlyph>
    <TTGlyph name="A" xMin="6" yMin="-14" xMax="1319" yMax="1474">
      <contour>
        <pt x="472" y="711" on="1"/>
        <pt x="472" y="709" on="1"/>
        <pt x="473" y="705" on="0"/>
        <pt x="477" y="689" on="0"/>
        <pt x="477" y="687" on="1"/>
        <pt x="484" y="674" on="0"/>
        <pt x="501" y="649" on="0"/>
        <pt x="520" y="630" on="0"/>
        <pt x="545" y="618" on="0"/>
        <pt x="561" y="618" on="1"/>
        <pt x="580" y="618" on="0"/>
        <pt x="612" y="633" on="0"/>
        <pt x="631" y="633" on="1"/>
        <pt x="649" y="633" on="0"/>
        <pt x="682" y="625" on="0"/>
        <pt x="700" y="625" on="1"/>
        <pt x="707" y="625" on="1"/>
        <pt x="711" y="626" on="0"/>
        <pt x="724" y="632" on="0"/>
        <pt x="737" y="639" on="0"/>
        <pt x="748" y="645" on="0"/>
        <pt x="750" y="645" on="1"/>
        <pt x="755" y="650" on="0"/>
        <pt x="757" y="678" on="0"/>
        <pt x="757" y="685" on="1"/>
        <pt x="757" y="710" on="0"/>
        <pt x="734" y="761" on="0"/>
        <pt x="728" y="784" on="1"/>
        <pt x="714" y="829" on="0"/>
        <pt x="686" y="920" on="0"/>
        <pt x="672" y="965" on="1"/>
        <pt x="671" y="968" on="0"/>
        <pt x="664" y="989" on="0"/>
        <pt x="655" y="1016" on="0"/>
        <pt x="647" y="1042" on="0"/>
        <pt x="645" y="1048" on="1"/>
        <pt x="643" y="1051" on="0"/>
        <pt x="637" y="1067" on="0"/>
        <pt x="631" y="1085" on="0"/>
        <pt x="625" y="1101" on="0"/>
        <pt x="624" y="1104" on="1"/>
        <pt x="620" y="1115" on="0"/>
        <pt x="618" y="1119" on="0"/>
        <pt x="610" y="1119" on="1"/>
        <pt x="601" y="1119" on="0"/>
        <pt x="587" y="1104" on="0"/>
        <pt x="576" y="1084" on="0"/>
        <pt x="569" y="1062" on="0"/>
        <pt x="568" y="1055" on="1"/>
        <pt x="568" y="1035" on="1"/>
        <pt x="568" y="1033" on="0"/>
        <pt x="561" y="1021" on="0"/>
        <pt x="554" y="1008" on="0"/>
        <pt x="547" y="996" on="0"/>
        <pt x="546" y="995" on="1"/>
        <pt x="546" y="992" on="0"/>
        <pt x="545" y="973" on="0"/>
        <pt x="543" y="951" on="0"/>
        <pt x="541" y="933" on="0"/>
        <pt x="541" y="931" on="1"/>
        <pt x="536" y="910" on="0"/>
        <pt x="510" y="868" on="0"/>
        <pt x="506" y="848" on="1"/>
        <pt x="506" y="846" on="0"/>
        <pt x="504" y="832" on="0"/>
        <pt x="502" y="815" on="0"/>
        <pt x="500" y="801" on="0"/>
        <pt x="499" y="799" on="1"/>
        <pt x="498" y="798" on="0"/>
        <pt x="492" y="786" on="0"/>
        <pt x="485" y="771" on="0"/>
        <pt x="478" y="758" on="0"/>
        <pt x="477" y="756" on="1"/>
        <pt x="476" y="748" on="0"/>
        <pt x="475" y="740" on="1"/>
        <pt x="474" y="733" on="0"/>
        <pt x="472" y="719" on="0"/>
        <pt x="472" y="714" on="1"/>
      </contour>
      <contour>
        <pt x="1221" y="-7" on="1"/>
        <pt x="1108" y="-7" on="1"/>
        <pt x="1106" y="-7" on="0"/>
        <pt x="1085" y="-5" on="0"/>
        <pt x="1059" y="-2" on="0"/>
        <pt x="1037" y="0" on="0"/>
        <pt x="1034" y="0" on="1"/>
        <pt x="1018" y="0" on="0"/>
        <pt x="943" y="2" on="0"/>
        <pt x="901" y="2" on="1"/>
        <pt x="857" y="2" on="0"/>
        <pt x="783" y="0" on="0"/>
        <pt x="769" y="0" on="1"/>
        <pt x="761" y="7" on="0"/>
        <pt x="748" y="24" on="0"/>
        <pt x="748" y="35" on="1"/>
        <pt x="748" y="44" on="0"/>
        <pt x="752" y="51" on="0"/>
        <pt x="757" y="62" on="1"/>
        <pt x="757" y="65" on="0"/>
        <pt x="764" y="81" on="0"/>
        <pt x="769" y="83" on="1"/>
        <pt x="771" y="83" on="0"/>
        <pt x="784" y="85" on="0"/>
        <pt x="798" y="87" on="0"/>
        <pt x="810" y="89" on="0"/>
        <pt x="811" y="90" on="1"/>
        <pt x="814" y="91" on="0"/>
        <pt x="826" y="99" on="0"/>
        <pt x="840" y="109" on="0"/>
        <pt x="852" y="117" on="0"/>
        <pt x="854" y="118" on="1"/>
        <pt x="855" y="119" on="0"/>
        <pt x="866" y="122" on="0"/>
        <pt x="880" y="124" on="0"/>
        <pt x="893" y="125" on="0"/>
        <pt x="895" y="125" on="1"/>
        <pt x="897" y="125" on="0"/>
        <pt x="899" y="128" on="1"/>
        <pt x="900" y="129" on="0"/>
        <pt x="901" y="131" on="1"/>
        <pt x="901" y="166" on="1"/>
        <pt x="901" y="193" on="0"/>
        <pt x="891" y="247" on="0"/>
        <pt x="876" y="300" on="0"/>
        <pt x="860" y="351" on="0"/>
        <pt x="854" y="375" on="1"/>
        <pt x="853" y="378" on="0"/>
        <pt x="849" y="398" on="0"/>
        <pt x="843" y="422" on="0"/>
        <pt x="839" y="442" on="0"/>
        <pt x="838" y="445" on="1"/>
        <pt x="838" y="447" on="0"/>
        <pt x="834" y="457" on="0"/>
        <pt x="830" y="468" on="0"/>
        <pt x="826" y="478" on="0"/>
        <pt x="826" y="479" on="1"/>
        <pt x="823" y="488" on="0"/>
        <pt x="817" y="508" on="0"/>
        <pt x="808" y="526" on="0"/>
        <pt x="795" y="539" on="0"/>
        <pt x="785" y="541" on="1"/>
        <pt x="781" y="542" on="0"/>
        <pt x="766" y="545" on="0"/>
        <pt x="750" y="547" on="0"/>
        <pt x="737" y="548" on="0"/>
        <pt x="734" y="548" on="1"/>
        <pt x="734" y="548" on="0"/>
        <pt x="728" y="544" on="1"/>
        <pt x="725" y="542" on="0"/>
        <pt x="722" y="541" on="1"/>
        <pt x="718" y="540" on="0"/>
        <pt x="704" y="536" on="0"/>
        <pt x="700" y="536" on="1"/>
        <pt x="645" y="536" on="1"/>
        <pt x="608" y="536" on="0"/>
        <pt x="531" y="533" on="0"/>
        <pt x="499" y="528" on="1"/>
        <pt x="497" y="528" on="0"/>
        <pt x="491" y="524" on="1"/>
        <pt x="488" y="522" on="0"/>
        <pt x="485" y="521" on="1"/>
        <pt x="480" y="520" on="0"/>
        <pt x="457" y="518" on="0"/>
        <pt x="430" y="516" on="0"/>
        <pt x="406" y="514" on="0"/>
        <pt x="402" y="514" on="1"/>
        <pt x="395" y="507" on="1"/>
        <pt x="368" y="355" on="1"/>
        <pt x="354" y="339" on="0"/>
        <pt x="342" y="304" on="0"/>
        <pt x="338" y="266" on="0"/>
        <pt x="337" y="228" on="0"/>
        <pt x="333" y="209" on="1"/>
        <pt x="333" y="205" on="0"/>
        <pt x="319" y="183" on="0"/>
        <pt x="318" y="182" on="1"/>
        <pt x="326" y="166" on="1"/>
        <pt x="328" y="164" on="0"/>
        <pt x="337" y="149" on="0"/>
        <pt x="338" y="147" on="1"/>
        <pt x="341" y="146" on="0"/>
        <pt x="358" y="142" on="0"/>
        <pt x="376" y="137" on="0"/>
        <pt x="392" y="132" on="0"/>
        <pt x="395" y="131" on="1"/>
        <pt x="411" y="127" on="0"/>
        <pt x="457" y="117" on="0"/>
        <pt x="498" y="98" on="0"/>
        <pt x="527" y="68" on="0"/>
        <pt x="527" y="45" on="1"/>
        <pt x="527" y="28" on="1"/>
        <pt x="526" y="26" on="0"/>
        <pt x="519" y="17" on="0"/>
        <pt x="510" y="8" on="0"/>
        <pt x="502" y="1" on="0"/>
        <pt x="499" y="0" on="1"/>
        <pt x="487" y="0" on="0"/>
        <pt x="432" y="-2" on="0"/>
        <pt x="371" y="-5" on="0"/>
        <pt x="316" y="-7" on="0"/>
        <pt x="304" y="-7" on="1"/>
        <pt x="165" y="-7" on="1"/>
        <pt x="27" y="-7" on="1"/>
        <pt x="25" y="-5" on="0"/>
        <pt x="21" y="6" on="0"/>
        <pt x="18" y="9" on="1"/>
        <pt x="16" y="23" on="0"/>
        <pt x="6" y="63" on="0"/>
        <pt x="6" y="81" on="1"/>
        <pt x="6" y="95" on="0"/>
        <pt x="36" y="108" on="0"/>
        <pt x="48" y="112" on="1"/>
        <pt x="49" y="112" on="0"/>
        <pt x="61" y="113" on="0"/>
        <pt x="76" y="115" on="0"/>
        <pt x="89" y="117" on="0"/>
        <pt x="91" y="118" on="1"/>
        <pt x="101" y="122" on="0"/>
        <pt x="132" y="138" on="0"/>
        <pt x="162" y="153" on="0"/>
        <pt x="185" y="165" on="0"/>
        <pt x="186" y="166" on="1"/>
        <pt x="196" y="182" on="1"/>
        <pt x="196" y="279" on="1"/>
        <pt x="206" y="280" on="0"/>
        <pt x="221" y="309" on="0"/>
        <pt x="233" y="345" on="0"/>
        <pt x="243" y="381" on="0"/>
        <pt x="248" y="389" on="1"/>
        <pt x="249" y="390" on="0"/>
        <pt x="258" y="398" on="0"/>
        <pt x="268" y="407" on="0"/>
        <pt x="276" y="415" on="0"/>
        <pt x="276" y="417" on="1"/>
        <pt x="277" y="418" on="0"/>
        <pt x="279" y="434" on="0"/>
        <pt x="281" y="453" on="0"/>
        <pt x="283" y="470" on="0"/>
        <pt x="283" y="472" on="1"/>
        <pt x="285" y="476" on="0"/>
        <pt x="294" y="498" on="0"/>
        <pt x="299" y="502" on="1"/>
        <pt x="311" y="618" on="1"/>
        <pt x="325" y="638" on="0"/>
        <pt x="334" y="686" on="0"/>
        <pt x="338" y="709" on="1"/>
        <pt x="341" y="712" on="0"/>
        <pt x="345" y="728" on="0"/>
        <pt x="345" y="730" on="1"/>
        <pt x="347" y="732" on="0"/>
        <pt x="359" y="747" on="0"/>
        <pt x="361" y="749" on="1"/>
        <pt x="362" y="752" on="0"/>
        <pt x="365" y="769" on="0"/>
        <pt x="369" y="789" on="0"/>
        <pt x="372" y="808" on="0"/>
        <pt x="373" y="813" on="1"/>
        <pt x="373" y="841" on="1"/>
        <pt x="374" y="844" on="0"/>
        <pt x="383" y="860" on="0"/>
        <pt x="392" y="878" on="0"/>
        <pt x="401" y="894" on="0"/>
        <pt x="402" y="896" on="1"/>
        <pt x="403" y="897" on="0"/>
        <pt x="407" y="910" on="0"/>
        <pt x="411" y="924" on="0"/>
        <pt x="414" y="936" on="0"/>
        <pt x="414" y="938" on="1"/>
        <pt x="416" y="941" on="0"/>
        <pt x="423" y="957" on="0"/>
        <pt x="430" y="975" on="0"/>
        <pt x="435" y="992" on="0"/>
        <pt x="437" y="995" on="1"/>
        <pt x="448" y="1024" on="0"/>
        <pt x="461" y="1094" on="0"/>
        <pt x="472" y="1126" on="1"/>
        <pt x="481" y="1152" on="0"/>
        <pt x="510" y="1200" on="0"/>
        <pt x="511" y="1230" on="1"/>
        <pt x="513" y="1232" on="0"/>
        <pt x="513" y="1240" on="1"/>
        <pt x="513" y="1248" on="0"/>
        <pt x="511" y="1269" on="0"/>
        <pt x="511" y="1272" on="1"/>
        <pt x="512" y="1274" on="0"/>
        <pt x="522" y="1290" on="0"/>
        <pt x="533" y="1308" on="0"/>
        <pt x="541" y="1324" on="0"/>
        <pt x="541" y="1327" on="1"/>
        <pt x="541" y="1342" on="1"/>
        <pt x="541" y="1381" on="1"/>
        <pt x="542" y="1385" on="0"/>
        <pt x="552" y="1406" on="0"/>
        <pt x="555" y="1410" on="1"/>
        <pt x="559" y="1412" on="0"/>
        <pt x="563" y="1415" on="1"/>
        <pt x="566" y="1417" on="0"/>
        <pt x="573" y="1422" on="0"/>
        <pt x="575" y="1424" on="1"/>
        <pt x="591" y="1434" on="0"/>
        <pt x="616" y="1452" on="0"/>
        <pt x="641" y="1466" on="0"/>
        <pt x="670" y="1474" on="0"/>
        <pt x="690" y="1474" on="1"/>
        <pt x="695" y="1474" on="0"/>
        <pt x="723" y="1472" on="0"/>
        <pt x="728" y="1472" on="1"/>
        <pt x="737" y="1464" on="0"/>
        <pt x="760" y="1444" on="0"/>
        <pt x="762" y="1431" on="1"/>
        <pt x="774" y="1390" on="0"/>
        <pt x="781" y="1310" on="0"/>
        <pt x="792" y="1272" on="1"/>
        <pt x="792" y="1269" on="0"/>
        <pt x="794" y="1263" on="1"/>
        <pt x="795" y="1260" on="0"/>
        <pt x="797" y="1258" on="1"/>
        <pt x="799" y="1253" on="0"/>
        <pt x="804" y="1239" on="0"/>
        <pt x="804" y="1237" on="1"/>
        <pt x="804" y="1202" on="1"/>
        <pt x="809" y="1180" on="0"/>
        <pt x="827" y="1138" on="0"/>
        <pt x="831" y="1118" on="1"/>
        <pt x="832" y="1115" on="0"/>
        <pt x="837" y="1091" on="0"/>
        <pt x="842" y="1063" on="0"/>
        <pt x="845" y="1038" on="0"/>
        <pt x="845" y="1035" on="1"/>
        <pt x="846" y="1033" on="0"/>
        <pt x="850" y="1021" on="0"/>
        <pt x="855" y="1007" on="0"/>
        <pt x="859" y="995" on="0"/>
        <pt x="861" y="995" on="1"/>
        <pt x="863" y="985" on="0"/>
        <pt x="874" y="939" on="0"/>
        <pt x="887" y="888" on="0"/>
        <pt x="899" y="843" on="0"/>
        <pt x="901" y="834" on="1"/>
        <pt x="935" y="777" on="0"/>
        <pt x="965" y="654" on="0"/>
        <pt x="977" y="590" on="1"/>
        <pt x="978" y="588" on="0"/>
        <pt x="984" y="573" on="0"/>
        <pt x="985" y="571" on="1"/>
        <pt x="1002" y="528" on="0"/>
        <pt x="1031" y="445" on="0"/>
        <pt x="1048" y="403" on="1"/>
        <pt x="1047" y="400" on="0"/>
        <pt x="1045" y="386" on="0"/>
        <pt x="1043" y="371" on="0"/>
        <pt x="1040" y="358" on="0"/>
        <pt x="1039" y="355" on="1"/>
        <pt x="1039" y="346" on="1"/>
        <pt x="1039" y="341" on="1"/>
        <pt x="1040" y="339" on="0"/>
        <pt x="1049" y="327" on="0"/>
        <pt x="1058" y="313" on="0"/>
        <pt x="1067" y="300" on="0"/>
        <pt x="1068" y="298" on="1"/>
        <pt x="1081" y="276" on="0"/>
        <pt x="1093" y="233" on="0"/>
        <pt x="1107" y="193" on="0"/>
        <pt x="1128" y="156" on="0"/>
        <pt x="1151" y="140" on="1"/>
        <pt x="1151" y="138" on="0"/>
        <pt x="1158" y="133" on="0"/>
        <pt x="1158" y="131" on="1"/>
        <pt x="1163" y="130" on="0"/>
        <pt x="1184" y="118" on="0"/>
        <pt x="1186" y="118" on="1"/>
        <pt x="1189" y="117" on="0"/>
        <pt x="1216" y="113" on="0"/>
        <pt x="1247" y="109" on="0"/>
        <pt x="1274" y="106" on="0"/>
        <pt x="1278" y="106" on="1"/>
        <pt x="1282" y="104" on="0"/>
        <pt x="1296" y="96" on="0"/>
        <pt x="1310" y="87" on="0"/>
        <pt x="1319" y="77" on="0"/>
        <pt x="1319" y="71" on="1"/>
        <pt x="1319" y="68" on="0"/>
        <pt x="1312" y="41" on="0"/>
        <pt x="1301" y="11" on="0"/>
        <pt x="1289" y="-13" on="0"/>
        <pt x="1285" y="-14" on="1"/>
        <pt x="1262" y="-14" on="1"/>
        <pt x="1250" y="-14" on="1"/>
        <pt x="1242" y="-14" on="0"/>
        <pt x="1229" y="-12" on="0"/>
      </contour>
    </TTGlyph>
    <TTGlyph name="AE" xMin="-25" yMin="-14" xMax="1864" yMax="1356">
      <contour>
        <pt x="657" y="747" on="1"/>
        <pt x="657" y="744" on="1"/>
        <pt x="657" y="742" on="0"/>
        <pt x="660" y="727" on="0"/>
        <pt x="662" y="725" on="1"/>
        <pt x="666" y="714" on="0"/>
        <pt x="683" y="683" on="0"/>
        <pt x="685" y="682" on="1"/>
        <pt x="685" y="682" on="0"/>
        <pt x="696" y="680" on="0"/>
        <pt x="711" y="677" on="0"/>
        <pt x="726" y="675" on="0"/>
        <pt x="731" y="675" on="1"/>
        <pt x="788" y="675" on="1"/>
        <pt x="816" y="675" on="1"/>
        <pt x="847" y="675" on="0"/>
        <pt x="906" y="687" on="0"/>
        <pt x="927" y="716" on="1"/>
        <pt x="928" y="723" on="0"/>
        <pt x="930" y="755" on="0"/>
        <pt x="932" y="790" on="0"/>
        <pt x="934" y="822" on="0"/>
        <pt x="934" y="829" on="1"/>
        <pt x="934" y="843" on="1"/>
        <pt x="934" y="867" on="0"/>
        <pt x="920" y="915" on="0"/>
        <pt x="920" y="938" on="1"/>
        <pt x="920" y="953" on="1"/>
        <pt x="920" y="955" on="0"/>
        <pt x="922" y="973" on="0"/>
        <pt x="925" y="994" on="0"/>
        <pt x="927" y="1012" on="0"/>
        <pt x="927" y="1014" on="1"/>
        <pt x="927" y="1064" on="1"/>
        <pt x="927" y="1066" on="0"/>
        <pt x="934" y="1083" on="0"/>
        <pt x="934" y="1085" on="1"/>
        <pt x="934" y="1091" on="1"/>
        <pt x="934" y="1093" on="0"/>
        <pt x="935" y="1098" on="0"/>
        <pt x="935" y="1100" on="1"/>
        <pt x="935" y="1114" on="0"/>
        <pt x="915" y="1135" on="0"/>
        <pt x="899" y="1135" on="1"/>
        <pt x="891" y="1135" on="0"/>
        <pt x="885" y="1134" on="0"/>
        <pt x="883" y="1131" on="0"/>
        <pt x="881" y="1125" on="0"/>
        <pt x="878" y="1119" on="1"/>
        <pt x="858" y="1085" on="0"/>
        <pt x="819" y="1020" on="0"/>
        <pt x="801" y="988" on="1"/>
        <pt x="801" y="986" on="0"/>
        <pt x="797" y="976" on="0"/>
        <pt x="793" y="964" on="0"/>
        <pt x="789" y="954" on="0"/>
        <pt x="788" y="953" on="1"/>
        <pt x="773" y="926" on="0"/>
        <pt x="737" y="879" on="0"/>
        <pt x="701" y="831" on="0"/>
        <pt x="668" y="780" on="0"/>
        <pt x="657" y="751" on="1"/>
      </contour>
      <contour>
        <pt x="-25" y="43" on="1"/>
        <pt x="-25" y="62" on="1"/>
        <pt x="-19" y="94" on="0"/>
        <pt x="9" y="124" on="0"/>
        <pt x="46" y="142" on="0"/>
        <pt x="87" y="158" on="0"/>
        <pt x="107" y="175" on="1"/>
        <pt x="110" y="177" on="0"/>
        <pt x="126" y="193" on="0"/>
        <pt x="145" y="211" on="0"/>
        <pt x="161" y="227" on="0"/>
        <pt x="164" y="228" on="1"/>
        <pt x="181" y="245" on="0"/>
        <pt x="218" y="267" on="0"/>
        <pt x="238" y="279" on="1"/>
        <pt x="241" y="279" on="0"/>
        <pt x="245" y="284" on="0"/>
        <pt x="245" y="285" on="1"/>
        <pt x="247" y="287" on="0"/>
        <pt x="259" y="304" on="0"/>
        <pt x="261" y="306" on="1"/>
        <pt x="261" y="307" on="0"/>
        <pt x="271" y="318" on="0"/>
        <pt x="282" y="329" on="0"/>
        <pt x="293" y="339" on="0"/>
        <pt x="295" y="341" on="1"/>
        <pt x="298" y="344" on="0"/>
        <pt x="321" y="374" on="0"/>
        <pt x="349" y="411" on="0"/>
        <pt x="377" y="448" on="0"/>
        <pt x="385" y="458" on="1"/>
        <pt x="392" y="468" on="0"/>
        <pt x="400" y="487" on="0"/>
        <pt x="406" y="507" on="0"/>
        <pt x="414" y="526" on="0"/>
        <pt x="420" y="536" on="1"/>
        <pt x="450" y="584" on="0"/>
        <pt x="515" y="675" on="0"/>
        <pt x="544" y="725" on="1"/>
        <pt x="545" y="727" on="0"/>
        <pt x="553" y="739" on="0"/>
        <pt x="562" y="754" on="0"/>
        <pt x="570" y="769" on="0"/>
        <pt x="572" y="772" on="1"/>
        <pt x="592" y="806" on="0"/>
        <pt x="629" y="878" on="0"/>
        <pt x="650" y="910" on="1"/>
        <pt x="651" y="913" on="0"/>
        <pt x="662" y="931" on="0"/>
        <pt x="677" y="952" on="0"/>
        <pt x="690" y="970" on="0"/>
        <pt x="692" y="972" on="1"/>
        <pt x="694" y="976" on="0"/>
        <pt x="710" y="1008" on="0"/>
        <pt x="728" y="1043" on="0"/>
        <pt x="744" y="1073" on="0"/>
        <pt x="747" y="1076" on="1"/>
        <pt x="755" y="1089" on="0"/>
        <pt x="776" y="1113" on="0"/>
        <pt x="797" y="1136" on="0"/>
        <pt x="817" y="1161" on="0"/>
        <pt x="823" y="1175" on="1"/>
        <pt x="824" y="1176" on="0"/>
        <pt x="826" y="1191" on="0"/>
        <pt x="828" y="1207" on="0"/>
        <pt x="830" y="1222" on="0"/>
        <pt x="830" y="1223" on="1"/>
        <pt x="830" y="1226" on="0"/>
        <pt x="835" y="1241" on="0"/>
        <pt x="835" y="1244" on="1"/>
        <pt x="837" y="1244" on="0"/>
        <pt x="837" y="1247" on="1"/>
        <pt x="837" y="1250" on="0"/>
        <pt x="835" y="1256" on="0"/>
        <pt x="835" y="1258" on="1"/>
        <pt x="669" y="1258" on="1"/>
        <pt x="656" y="1258" on="0"/>
        <pt x="626" y="1269" on="0"/>
        <pt x="601" y="1288" on="0"/>
        <pt x="584" y="1313" on="0"/>
        <pt x="584" y="1327" on="1"/>
        <pt x="584" y="1337" on="0"/>
        <pt x="602" y="1349" on="0"/>
        <pt x="629" y="1355" on="0"/>
        <pt x="658" y="1356" on="0"/>
        <pt x="669" y="1356" on="1"/>
        <pt x="683" y="1356" on="1"/>
        <pt x="696" y="1356" on="0"/>
        <pt x="714" y="1341" on="0"/>
        <pt x="728" y="1341" on="1"/>
        <pt x="749" y="1341" on="0"/>
        <pt x="788" y="1349" on="0"/>
        <pt x="809" y="1349" on="1"/>
        <pt x="825" y="1349" on="0"/>
        <pt x="849" y="1341" on="0"/>
        <pt x="866" y="1341" on="1"/>
        <pt x="878" y="1341" on="0"/>
        <pt x="893" y="1345" on="0"/>
        <pt x="904" y="1356" on="1"/>
        <pt x="951" y="1356" on="1"/>
        <pt x="996" y="1356" on="1"/>
        <pt x="999" y="1356" on="0"/>
        <pt x="1017" y="1354" on="0"/>
        <pt x="1037" y="1351" on="0"/>
        <pt x="1055" y="1349" on="0"/>
        <pt x="1058" y="1349" on="1"/>
        <pt x="1100" y="1349" on="1"/>
        <pt x="1205" y="1349" on="1"/>
        <pt x="1211" y="1349" on="0"/>
        <pt x="1236" y="1346" on="0"/>
        <pt x="1263" y="1344" on="0"/>
        <pt x="1285" y="1341" on="0"/>
        <pt x="1288" y="1341" on="1"/>
        <pt x="1289" y="1341" on="0"/>
        <pt x="1300" y="1337" on="0"/>
        <pt x="1312" y="1331" on="0"/>
        <pt x="1322" y="1327" on="0"/>
        <pt x="1323" y="1327" on="1"/>
        <pt x="1345" y="1327" on="1"/>
        <pt x="1371" y="1327" on="1"/>
        <pt x="1376" y="1328" on="0"/>
        <pt x="1407" y="1335" on="0"/>
        <pt x="1441" y="1342" on="0"/>
        <pt x="1471" y="1349" on="0"/>
        <pt x="1475" y="1349" on="1"/>
        <pt x="1550" y="1349" on="1"/>
        <pt x="1636" y="1349" on="1"/>
        <pt x="1663" y="1347" on="0"/>
        <pt x="1688" y="1323" on="0"/>
        <pt x="1696" y="1287" on="0"/>
        <pt x="1695" y="1244" on="0"/>
        <pt x="1698" y="1223" on="1"/>
        <pt x="1698" y="1222" on="0"/>
        <pt x="1700" y="1210" on="0"/>
        <pt x="1703" y="1196" on="0"/>
        <pt x="1705" y="1184" on="0"/>
        <pt x="1705" y="1183" on="1"/>
        <pt x="1705" y="1133" on="1"/>
        <pt x="1705" y="1085" on="1"/>
        <pt x="1705" y="1082" on="0"/>
        <pt x="1698" y="1059" on="0"/>
        <pt x="1698" y="1057" on="1"/>
        <pt x="1698" y="1056" on="0"/>
        <pt x="1695" y="1041" on="0"/>
        <pt x="1693" y="1024" on="0"/>
        <pt x="1690" y="1009" on="0"/>
        <pt x="1690" y="1007" on="1"/>
        <pt x="1690" y="1005" on="0"/>
        <pt x="1679" y="995" on="0"/>
        <pt x="1678" y="995" on="1"/>
        <pt x="1650" y="999" on="0"/>
        <pt x="1615" y="1027" on="0"/>
        <pt x="1590" y="1066" on="0"/>
        <pt x="1570" y="1111" on="0"/>
        <pt x="1558" y="1133" on="1"/>
        <pt x="1558" y="1134" on="0"/>
        <pt x="1553" y="1142" on="0"/>
        <pt x="1546" y="1152" on="0"/>
        <pt x="1540" y="1160" on="0"/>
        <pt x="1539" y="1161" on="1"/>
        <pt x="1537" y="1164" on="0"/>
        <pt x="1525" y="1189" on="0"/>
        <pt x="1511" y="1217" on="0"/>
        <pt x="1499" y="1241" on="0"/>
        <pt x="1498" y="1244" on="1"/>
        <pt x="1487" y="1261" on="0"/>
        <pt x="1454" y="1279" on="0"/>
        <pt x="1416" y="1286" on="0"/>
        <pt x="1376" y="1287" on="0"/>
        <pt x="1359" y="1287" on="1"/>
        <pt x="1340" y="1287" on="0"/>
        <pt x="1303" y="1280" on="0"/>
        <pt x="1265" y="1272" on="0"/>
        <pt x="1226" y="1265" on="0"/>
        <pt x="1207" y="1265" on="1"/>
        <pt x="1193" y="1265" on="0"/>
        <pt x="1166" y="1273" on="0"/>
        <pt x="1152" y="1273" on="1"/>
        <pt x="1132" y="1273" on="0"/>
        <pt x="1116" y="1244" on="0"/>
        <pt x="1110" y="1203" on="0"/>
        <pt x="1111" y="1159" on="0"/>
        <pt x="1108" y="1145" on="1"/>
        <pt x="1108" y="1145" on="0"/>
        <pt x="1103" y="1135" on="0"/>
        <pt x="1097" y="1124" on="0"/>
        <pt x="1093" y="1113" on="0"/>
        <pt x="1093" y="1111" on="1"/>
        <pt x="1093" y="1080" on="1"/>
        <pt x="1093" y="1051" on="0"/>
        <pt x="1102" y="1003" on="0"/>
        <pt x="1102" y="976" on="1"/>
        <pt x="1102" y="941" on="0"/>
        <pt x="1093" y="875" on="0"/>
        <pt x="1093" y="841" on="1"/>
        <pt x="1093" y="799" on="1"/>
        <pt x="1100" y="793" on="0"/>
        <pt x="1102" y="780" on="0"/>
        <pt x="1102" y="772" on="1"/>
        <pt x="1102" y="758" on="0"/>
        <pt x="1093" y="738" on="0"/>
        <pt x="1093" y="725" on="1"/>
        <pt x="1093" y="699" on="0"/>
        <pt x="1115" y="675" on="0"/>
        <pt x="1141" y="675" on="1"/>
        <pt x="1189" y="675" on="0"/>
        <pt x="1276" y="689" on="0"/>
        <pt x="1323" y="689" on="1"/>
        <pt x="1331" y="689" on="0"/>
        <pt x="1348" y="689" on="0"/>
        <pt x="1358" y="687" on="1"/>
        <pt x="1367" y="691" on="0"/>
        <pt x="1380" y="703" on="0"/>
        <pt x="1385" y="709" on="1"/>
        <pt x="1385" y="778" on="1"/>
        <pt x="1385" y="779" on="0"/>
        <pt x="1389" y="790" on="0"/>
        <pt x="1394" y="804" on="0"/>
        <pt x="1399" y="817" on="0"/>
        <pt x="1401" y="820" on="1"/>
        <pt x="1401" y="821" on="0"/>
        <pt x="1404" y="830" on="0"/>
        <pt x="1408" y="839" on="0"/>
        <pt x="1412" y="847" on="0"/>
        <pt x="1413" y="848" on="1"/>
        <pt x="1416" y="854" on="0"/>
        <pt x="1420" y="876" on="0"/>
        <pt x="1427" y="897" on="0"/>
        <pt x="1438" y="912" on="0"/>
        <pt x="1448" y="912" on="1"/>
        <pt x="1457" y="912" on="0"/>
        <pt x="1474" y="889" on="0"/>
        <pt x="1489" y="858" on="0"/>
        <pt x="1500" y="827" on="0"/>
        <pt x="1505" y="820" on="1"/>
        <pt x="1503" y="807" on="0"/>
        <pt x="1501" y="744" on="0"/>
        <pt x="1501" y="709" on="1"/>
        <pt x="1501" y="692" on="0"/>
        <pt x="1502" y="657" on="0"/>
        <pt x="1503" y="627" on="0"/>
        <pt x="1504" y="605" on="0"/>
        <pt x="1505" y="599" on="1"/>
        <pt x="1505" y="596" on="0"/>
        <pt x="1507" y="580" on="0"/>
        <pt x="1508" y="561" on="0"/>
        <pt x="1510" y="545" on="0"/>
        <pt x="1510" y="543" on="1"/>
        <pt x="1510" y="538" on="1"/>
        <pt x="1510" y="536" on="1"/>
        <pt x="1509" y="531" on="0"/>
        <pt x="1507" y="513" on="0"/>
        <pt x="1506" y="495" on="0"/>
        <pt x="1505" y="481" on="0"/>
        <pt x="1505" y="479" on="1"/>
        <pt x="1505" y="477" on="0"/>
        <pt x="1498" y="456" on="0"/>
        <pt x="1498" y="452" on="1"/>
        <pt x="1496" y="450" on="1"/>
        <pt x="1496" y="436" on="0"/>
        <pt x="1505" y="412" on="0"/>
        <pt x="1505" y="398" on="1"/>
        <pt x="1505" y="378" on="0"/>
        <pt x="1489" y="355" on="0"/>
        <pt x="1467" y="355" on="1"/>
        <pt x="1440" y="355" on="0"/>
        <pt x="1411" y="375" on="0"/>
        <pt x="1396" y="408" on="0"/>
        <pt x="1389" y="447" on="0"/>
        <pt x="1385" y="467" on="1"/>
        <pt x="1385" y="468" on="0"/>
        <pt x="1381" y="480" on="0"/>
        <pt x="1375" y="494" on="0"/>
        <pt x="1371" y="507" on="0"/>
        <pt x="1371" y="509" on="1"/>
        <pt x="1371" y="509" on="0"/>
        <pt x="1369" y="519" on="0"/>
        <pt x="1367" y="530" on="0"/>
        <pt x="1364" y="541" on="0"/>
        <pt x="1363" y="543" on="1"/>
        <pt x="1363" y="545" on="0"/>
        <pt x="1359" y="548" on="0"/>
        <pt x="1358" y="548" on="1"/>
        <pt x="1321" y="562" on="0"/>
        <pt x="1245" y="578" on="0"/>
        <pt x="1207" y="578" on="1"/>
        <pt x="1178" y="578" on="1"/>
        <pt x="1173" y="571" on="0"/>
        <pt x="1156" y="555" on="0"/>
        <pt x="1145" y="555" on="1"/>
        <pt x="1143" y="555" on="1"/>
        <pt x="1141" y="557" on="0"/>
        <pt x="1123" y="569" on="0"/>
        <pt x="1121" y="571" on="1"/>
        <pt x="1117" y="571" on="1"/>
        <pt x="1111" y="571" on="0"/>
        <pt x="1095" y="545" on="0"/>
        <pt x="1081" y="511" on="0"/>
        <pt x="1072" y="479" on="0"/>
        <pt x="1072" y="474" on="1"/>
        <pt x="1072" y="465" on="0"/>
        <pt x="1076" y="454" on="0"/>
        <pt x="1081" y="445" on="1"/>
        <pt x="1079" y="438" on="0"/>
        <pt x="1077" y="404" on="0"/>
        <pt x="1077" y="386" on="1"/>
        <pt x="1077" y="368" on="0"/>
        <pt x="1079" y="334" on="0"/>
        <pt x="1081" y="327" on="1"/>
        <pt x="1081" y="324" on="0"/>
        <pt x="1085" y="304" on="0"/>
        <pt x="1089" y="281" on="0"/>
        <pt x="1093" y="261" on="0"/>
        <pt x="1093" y="258" on="1"/>
        <pt x="1093" y="239" on="1"/>
        <pt x="1093" y="189" on="1"/>
        <pt x="1093" y="187" on="0"/>
        <pt x="1099" y="172" on="0"/>
        <pt x="1108" y="152" on="0"/>
        <pt x="1118" y="131" on="0"/>
        <pt x="1121" y="125" on="1"/>
        <pt x="1125" y="117" on="0"/>
        <pt x="1135" y="95" on="0"/>
        <pt x="1148" y="76" on="0"/>
        <pt x="1166" y="62" on="0"/>
        <pt x="1178" y="62" on="1"/>
        <pt x="1178" y="62" on="0"/>
        <pt x="1186" y="64" on="0"/>
        <pt x="1195" y="67" on="0"/>
        <pt x="1204" y="70" on="0"/>
        <pt x="1205" y="71" on="1"/>
        <pt x="1214" y="71" on="1"/>
        <pt x="1245" y="71" on="0"/>
        <pt x="1298" y="54" on="0"/>
        <pt x="1328" y="54" on="1"/>
        <pt x="1344" y="54" on="1"/>
        <pt x="1364" y="54" on="0"/>
        <pt x="1402" y="59" on="0"/>
        <pt x="1420" y="71" on="1"/>
        <pt x="1424" y="69" on="0"/>
        <pt x="1451" y="69" on="0"/>
        <pt x="1465" y="69" on="1"/>
        <pt x="1479" y="69" on="0"/>
        <pt x="1505" y="69" on="0"/>
        <pt x="1510" y="71" on="1"/>
        <pt x="1511" y="71" on="0"/>
        <pt x="1520" y="73" on="0"/>
        <pt x="1529" y="76" on="0"/>
        <pt x="1538" y="78" on="0"/>
        <pt x="1539" y="78" on="1"/>
        <pt x="1569" y="82" on="0"/>
        <pt x="1609" y="89" on="0"/>
        <pt x="1638" y="106" on="0"/>
        <pt x="1659" y="138" on="0"/>
        <pt x="1671" y="168" on="1"/>
        <pt x="1671" y="169" on="0"/>
        <pt x="1673" y="177" on="0"/>
        <pt x="1676" y="186" on="0"/>
        <pt x="1678" y="193" on="0"/>
        <pt x="1678" y="194" on="1"/>
        <pt x="1685" y="213" on="0"/>
        <pt x="1712" y="255" on="0"/>
        <pt x="1745" y="297" on="0"/>
        <pt x="1780" y="334" on="0"/>
        <pt x="1795" y="348" on="1"/>
        <pt x="1804" y="348" on="1"/>
        <pt x="1824" y="348" on="0"/>
        <pt x="1853" y="338" on="0"/>
        <pt x="1859" y="320" on="1"/>
        <pt x="1859" y="314" on="0"/>
        <pt x="1861" y="283" on="0"/>
        <pt x="1862" y="248" on="0"/>
        <pt x="1864" y="216" on="0"/>
        <pt x="1864" y="209" on="1"/>
        <pt x="1864" y="131" on="1"/>
        <pt x="1864" y="55" on="1"/>
        <pt x="1861" y="45" on="0"/>
        <pt x="1843" y="23" on="0"/>
        <pt x="1819" y="5" on="0"/>
        <pt x="1792" y="-7" on="0"/>
        <pt x="1781" y="-7" on="1"/>
        <pt x="1775" y="-7" on="1"/>
        <pt x="1773" y="-7" on="0"/>
        <pt x="1758" y="-5" on="0"/>
        <pt x="1742" y="-2" on="0"/>
        <pt x="1728" y="0" on="0"/>
        <pt x="1726" y="0" on="1"/>
        <pt x="1725" y="0" on="0"/>
        <pt x="1709" y="1" on="0"/>
        <pt x="1688" y="1" on="0"/>
        <pt x="1667" y="2" on="0"/>
        <pt x="1660" y="2" on="1"/>
        <pt x="1606" y="2" on="0"/>
        <pt x="1500" y="-7" on="0"/>
        <pt x="1446" y="-7" on="1"/>
        <pt x="1412" y="-7" on="0"/>
        <pt x="1357" y="9" on="0"/>
        <pt x="1325" y="9" on="1"/>
        <pt x="1318" y="9" on="1"/>
        <pt x="1316" y="8" on="0"/>
        <pt x="1300" y="6" on="0"/>
        <pt x="1280" y="3" on="0"/>
        <pt x="1262" y="1" on="0"/>
        <pt x="1259" y="0" on="1"/>
        <pt x="1219" y="0" on="1"/>
        <pt x="1189" y="0" on="0"/>
        <pt x="1152" y="9" on="0"/>
        <pt x="1127" y="9" on="1"/>
        <pt x="1096" y="9" on="0"/>
        <pt x="1035" y="-7" on="0"/>
        <pt x="1003" y="-7" on="1"/>
        <pt x="989" y="-7" on="1"/>
        <pt x="934" y="0" on="0"/>
        <pt x="823" y="4" on="0"/>
        <pt x="766" y="9" on="1"/>
        <pt x="750" y="9" on="0"/>
        <pt x="719" y="38" on="0"/>
        <pt x="719" y="55" on="1"/>
        <pt x="719" y="66" on="0"/>
        <pt x="736" y="79" on="0"/>
        <pt x="758" y="86" on="0"/>
        <pt x="782" y="88" on="0"/>
        <pt x="788" y="90" on="1"/>
        <pt x="798" y="94" on="0"/>
        <pt x="826" y="115" on="0"/>
        <pt x="830" y="119" on="1"/>
        <pt x="834" y="122" on="0"/>
        <pt x="849" y="138" on="0"/>
        <pt x="851" y="140" on="1"/>
        <pt x="851" y="142" on="0"/>
        <pt x="857" y="160" on="0"/>
        <pt x="863" y="182" on="0"/>
        <pt x="869" y="200" on="0"/>
        <pt x="870" y="202" on="1"/>
        <pt x="872" y="205" on="0"/>
        <pt x="884" y="221" on="0"/>
        <pt x="885" y="223" on="1"/>
        <pt x="899" y="252" on="0"/>
        <pt x="908" y="313" on="0"/>
        <pt x="908" y="344" on="1"/>
        <pt x="908" y="358" on="0"/>
        <pt x="906" y="389" on="0"/>
        <pt x="904" y="405" on="1"/>
        <pt x="913" y="422" on="0"/>
        <pt x="920" y="456" on="0"/>
        <pt x="920" y="476" on="1"/>
        <pt x="920" y="490" on="0"/>
        <pt x="919" y="526" on="0"/>
        <pt x="910" y="559" on="0"/>
        <pt x="889" y="582" on="0"/>
        <pt x="870" y="583" on="1"/>
        <pt x="806" y="583" on="1"/>
        <pt x="738" y="583" on="1"/>
        <pt x="731" y="583" on="0"/>
        <pt x="693" y="582" on="0"/>
        <pt x="651" y="580" on="0"/>
        <pt x="614" y="579" on="0"/>
        <pt x="607" y="578" on="1"/>
        <pt x="602" y="575" on="0"/>
        <pt x="590" y="569" on="0"/>
        <pt x="588" y="564" on="1"/>
        <pt x="565" y="532" on="0"/>
        <pt x="526" y="477" on="0"/>
        <pt x="510" y="445" on="1"/>
        <pt x="507" y="442" on="0"/>
        <pt x="498" y="415" on="0"/>
        <pt x="496" y="410" on="1"/>
        <pt x="488" y="388" on="0"/>
        <pt x="472" y="342" on="0"/>
        <pt x="461" y="320" on="1"/>
        <pt x="456" y="309" on="0"/>
        <pt x="444" y="292" on="0"/>
        <pt x="433" y="274" on="0"/>
        <pt x="425" y="254" on="0"/>
        <pt x="425" y="242" on="1"/>
        <pt x="425" y="216" on="0"/>
        <pt x="445" y="177" on="0"/>
        <pt x="474" y="146" on="0"/>
        <pt x="509" y="120" on="0"/>
        <pt x="538" y="93" on="0"/>
        <pt x="558" y="64" on="0"/>
        <pt x="558" y="45" on="1"/>
        <pt x="558" y="33" on="0"/>
        <pt x="539" y="0" on="0"/>
        <pt x="524" y="0" on="1"/>
        <pt x="218" y="0" on="1"/>
        <pt x="208" y="-4" on="0"/>
        <pt x="191" y="-5" on="0"/>
        <pt x="183" y="-5" on="1"/>
        <pt x="166" y="-5" on="1"/>
        <pt x="161" y="-5" on="0"/>
        <pt x="149" y="-5" on="0"/>
        <pt x="141" y="-7" on="1"/>
        <pt x="140" y="-7" on="0"/>
        <pt x="130" y="-9" on="0"/>
        <pt x="119" y="-12" on="0"/>
        <pt x="109" y="-14" on="0"/>
        <pt x="107" y="-14" on="1"/>
        <pt x="86" y="-14" on="1"/>
        <pt x="65" y="-14" on="1"/>
        <pt x="62" y="-14" on="0"/>
        <pt x="43" y="-10" on="0"/>
        <pt x="21" y="-5" on="0"/>
        <pt x="0" y="-1" on="0"/>
        <pt x="-4" y="0" on="1"/>
        <pt x="-18" y="4" on="0"/>
        <pt x="-25" y="25" on="0"/>
        <pt x="-25" y="36" on="1"/>
      </contour>
    </TTGlyph>
    <TTGlyph name="Aacute" xMin="6" yMin="-14" xMax="1319" yMax="1868">
      <component glyphName="A" x="0" y="0" flags="0x204"/>
      <component glyphName="Acute" x="145" y="0" flags="0x4"/>
    </TTGlyph>
    <TTGlyph name="Abreve" xMin="6" yMin="-14" xMax="1319" yMax="1868">
      <component glyphName="A" x="0" y="0" flags="0x204"/>
      <component glyphName="Breve" x="322" y="0" flags="0x4"/>
    </TTGlyph>
    <TTGlyph name="Acircumflex" xMin="6" yMin="-14" xMax="1319" yMax="1859">
      <component glyphName="A" x="0" y="0" flags="0x204"/>
      <component glyphName="Circumflex" x="157" y="0" flags="0x4"/>
    </TTGlyph>
    <TTGlyph name="Acute" xMin="527" yMin="1512" xMax="1001" yMax="1868">
      <contour>
        <pt x="529" y="1587" on="1"/>
        <pt x="543" y="1627" on="0"/>
        <pt x="596" y="1686" on="0"/>
        <pt x="661" y="1733" on="0"/>
        <pt x="732" y="1773" on="0"/>
        <pt x="765" y="1795" on="1"/>
        <pt x="786" y="1809" on="0"/>
        <pt x="821" y="1836" on="0"/>
        <pt x="856" y="1856" on="0"/>
        <pt x="893" y="1868" on="0"/>
        <pt x="914" y="1868" on="1"/>
        <pt x="940" y="1868" on="0"/>
        <pt x="976" y="1856" on="1"/>
        <pt x="978" y="1854" on="0"/>
        <pt x="987" y="1852" on="0"/>
        <pt x="989" y="1851" on="1"/>
        <pt x="990" y="1848" on="0"/>
        <pt x="994" y="1832" on="0"/>
        <pt x="998" y="1814" on="0"/>
        <pt x="1001" y="1798" on="0"/>
        <pt x="1000" y="1795" on="1"/>
        <pt x="999" y="1793" on="0"/>
        <pt x="998" y="1790" on="1"/>
        <pt x="997" y="1788" on="0"/>
        <pt x="995" y="1784" on="0"/>
        <pt x="995" y="1782" on="1"/>
        <pt x="990" y="1768" on="0"/>
        <pt x="983" y="1754" on="0"/>
        <pt x="973" y="1744" on="1"/>
        <pt x="963" y="1735" on="0"/>
        <pt x="944" y="1726" on="0"/>
        <pt x="926" y="1720" on="0"/>
        <pt x="908" y="1714" on="0"/>
        <pt x="898" y="1708" on="1"/>
        <pt x="894" y="1706" on="0"/>
        <pt x="872" y="1689" on="0"/>
        <pt x="870" y="1687" on="1"/>
        <pt x="851" y="1671" on="0"/>
        <pt x="816" y="1648" on="0"/>
        <pt x="781" y="1628" on="0"/>
        <pt x="745" y="1609" on="0"/>
        <pt x="726" y="1597" on="1"/>
        <pt x="723" y="1595" on="0"/>
        <pt x="710" y="1584" on="0"/>
        <pt x="696" y="1572" on="0"/>
        <pt x="684" y="1561" on="0"/>
        <pt x="683" y="1560" on="1"/>
        <pt x="677" y="1557" on="0"/>
        <pt x="650" y="1543" on="0"/>
        <pt x="618" y="1528" on="0"/>
        <pt x="591" y="1515" on="0"/>
        <pt x="585" y="1512" on="1"/>
        <pt x="582" y="1514" on="0"/>
        <pt x="580" y="1514" on="0"/>
        <pt x="578" y="1515" on="1"/>
        <pt x="561" y="1521" on="0"/>
        <pt x="527" y="1552" on="0"/>
        <pt x="527" y="1573" on="1"/>
        <pt x="527" y="1576" on="0"/>
        <pt x="527" y="1583" on="0"/>
      </contour>
    </TTGlyph>
    <TTGlyph name="Adieresis" xMin="6" yMin="-14" xMax="1319" yMax="1819">
      <component glyphName="A" x="0" y="0" flags="0x204"/>
      <component glyphName="Dieresis" x="149" y="0" flags="0x4"/>
    </TTGlyph>
    <TTGlyph name="Agrave" xMin="6" yMin="-14" xMax="1319" yMax="1868">
      <component glyphName="A" x="0" y="0" flags="0x204"/>
      <component glyphName="Grave" x="94" y="0" flags="0x4"/>
    </TTGlyph>
    <TTGlyph name="Amacron" xMin="6" yMin="-14" xMax="1319" yMax="1742">
      <component glyphName="A" x="0" y="0" flags="0x204"/>
      <component glyphName="Macron" x="184" y="0" flags="0x4"/>
    </TTGlyph>
    <TTGlyph name="Aogonek" xMin="6" yMin="-434" xMax="1342" yMax="1474">
      <contour>
        <pt x="1221" y="-7" on="1"/>
        <pt x="1121" y="-7" on="1"/>
        <pt x="1115" y="-23" on="0"/>
        <pt x="1101" y="-54" on="0"/>
        <pt x="1087" y="-85" on="0"/>
        <pt x="1078" y="-117" on="0"/>
        <pt x="1078" y="-133" on="1"/>
        <pt x="1078" y="-150" on="0"/>
        <pt x="1095" y="-190" on="0"/>
        <pt x="1100" y="-208" on="1"/>
        <pt x="1104" y="-219" on="0"/>
        <pt x="1107" y="-244" on="0"/>
        <pt x="1113" y="-255" on="1"/>
        <pt x="1120" y="-267" on="0"/>
        <pt x="1134" y="-285" on="0"/>
        <pt x="1140" y="-296" on="1"/>
        <pt x="1156" y="-305" on="1"/>
        <pt x="1163" y="-312" on="0"/>
        <pt x="1178" y="-315" on="0"/>
        <pt x="1189" y="-316" on="1"/>
        <pt x="1254" y="-320" on="1"/>
        <pt x="1272" y="-320" on="0"/>
        <pt x="1294" y="-310" on="0"/>
        <pt x="1309" y="-310" on="1"/>
        <pt x="1323" y="-310" on="1"/>
        <pt x="1342" y="-310" on="0"/>
        <pt x="1342" y="-328" on="1"/>
        <pt x="1342" y="-336" on="0"/>
        <pt x="1335" y="-345" on="1"/>
        <pt x="1313" y="-373" on="0"/>
        <pt x="1254" y="-409" on="0"/>
        <pt x="1221" y="-419" on="1"/>
        <pt x="1196" y="-431" on="1"/>
        <pt x="1185" y="-433" on="0"/>
        <pt x="1158" y="-434" on="0"/>
        <pt x="1146" y="-434" on="1"/>
        <pt x="1137" y="-434" on="0"/>
        <pt x="1105" y="-430" on="0"/>
        <pt x="1093" y="-428" on="1"/>
        <pt x="1078" y="-421" on="1"/>
        <pt x="1064" y="-417" on="0"/>
        <pt x="1039" y="-405" on="0"/>
        <pt x="1025" y="-400" on="1"/>
        <pt x="1008" y="-391" on="1"/>
        <pt x="996" y="-374" on="1"/>
        <pt x="992" y="-362" on="0"/>
        <pt x="980" y="-341" on="0"/>
        <pt x="973" y="-330" on="1"/>
        <pt x="962" y="-311" on="0"/>
        <pt x="953" y="-265" on="0"/>
        <pt x="953" y="-241" on="1"/>
        <pt x="953" y="-230" on="0"/>
        <pt x="957" y="-198" on="0"/>
        <pt x="959" y="-186" on="1"/>
        <pt x="962" y="-157" on="1"/>
        <pt x="971" y="-123" on="1"/>
        <pt x="985" y="-91" on="1"/>
        <pt x="998" y="-63" on="0"/>
        <pt x="1038" y="-19" on="0"/>
        <pt x="1064" y="-2" on="1"/>
        <pt x="1053" y="-1" on="0"/>
        <pt x="1036" y="0" on="0"/>
        <pt x="1034" y="0" on="1"/>
        <pt x="1018" y="0" on="0"/>
        <pt x="943" y="2" on="0"/>
        <pt x="901" y="2" on="1"/>
        <pt x="857" y="2" on="0"/>
        <pt x="783" y="0" on="0"/>
        <pt x="769" y="0" on="1"/>
        <pt x="761" y="7" on="0"/>
        <pt x="748" y="24" on="0"/>
        <pt x="748" y="35" on="1"/>
        <pt x="748" y="44" on="0"/>
        <pt x="752" y="51" on="0"/>
        <pt x="757" y="62" on="1"/>
        <pt x="757" y="65" on="0"/>
        <pt x="764" y="81" on="0"/>
        <pt x="769" y="83" on="1"/>
        <pt x="771" y="83" on="0"/>
        <pt x="784" y="85" on="0"/>
        <pt x="798" y="87" on="0"/>
        <pt x="810" y="89" on="0"/>
        <pt x="811" y="90" on="1"/>
        <pt x="814" y="91" on="0"/>
        <pt x="826" y="99" on="0"/>
        <pt x="840" y="109" on="0"/>
        <pt x="852" y="117" on="0"/>
        <pt x="854" y="118" on="1"/>
        <pt x="855" y="119" on="0"/>
        <pt x="866" y="122" on="0"/>
        <pt x="880" y="124" on="0"/>
        <pt x="893" y="125" on="0"/>
        <pt x="895" y="125" on="1"/>
        <pt x="897" y="125" on="0"/>
        <pt x="899" y="128" on="1"/>
        <pt x="900" y="129" on="0"/>
        <pt x="901" y="131" on="1"/>
        <pt x="901" y="166" on="1"/>
        <pt x="901" y="193" on="0"/>
        <pt x="891" y="247" on="0"/>
        <pt x="876" y="300" on="0"/>
        <pt x="860" y="351" on="0"/>
        <pt x="854" y="375" on="1"/>
        <pt x="853" y="378" on="0"/>
        <pt x="849" y="398" on="0"/>
        <pt x="843" y="422" on="0"/>
        <pt x="839" y="442" on="0"/>
        <pt x="838" y="445" on="1"/>
        <pt x="838" y="447" on="0"/>
        <pt x="834" y="457" on="0"/>
        <pt x="830" y="468" on="0"/>
        <pt x="826" y="478" on="0"/>
        <pt x="826" y="479" on="1"/>
        <pt x="823" y="488" on="0"/>
        <pt x="817" y="508" on="0"/>
        <pt x="808" y="526" on="0"/>
        <pt x="795" y="539" on="0"/>
        <pt x="785" y="541" on="1"/>
        <pt x="781" y="542" on="0"/>
        <pt x="766" y="545" on="0"/>
        <pt x="750" y="547" on="0"/>
        <pt x="737" y="548" on="0"/>
        <pt x="734" y="548" on="1"/>
        <pt x="734" y="548" on="0"/>
        <pt x="728" y="544" on="1"/>
        <pt x="725" y="542" on="0"/>
        <pt x="722" y="541" on="1"/>
        <pt x="718" y="540" on="0"/>
        <pt x="704" y="536" on="0"/>
        <pt x="700" y="536" on="1"/>
        <pt x="645" y="536" on="1"/>
        <pt x="608" y="536" on="0"/>
        <pt x="531" y="533" on="0"/>
        <pt x="499" y="528" on="1"/>
        <pt x="497" y="528" on="0"/>
        <pt x="491" y="524" on="1"/>
        <pt x="488" y="522" on="0"/>
        <pt x="485" y="521" on="1"/>
        <pt x="480" y="520" on="0"/>
        <pt x="457" y="518" on="0"/>
        <pt x="430" y="516" on="0"/>
        <pt x="406" y="514" on="0"/>
        <pt x="402" y="514" on="1"/>
        <pt x="395" y="507" on="1"/>
        <pt x="368" y="355" on="1"/>
        <pt x="354" y="339" on="0"/>
        <pt x="342" y="304" on="0"/>
        <pt x="338" y="266" on="0"/>
        <pt x="337" y="228" on="0"/>
        <pt x="333" y="209" on="1"/>
        <pt x="333" y="205" on="0"/>
        <pt x="319" y="183" on="0"/>
        <pt x="318" y="182" on="1"/>
        <pt x="326" y="166" on="1"/>
        <pt x="328" y="164" on="0"/>
        <pt x="337" y="149" on="0"/>
        <pt x="338" y="147" on="1"/>
        <pt x="341" y="146" on="0"/>
        <pt x="358" y="142" on="0"/>
        <pt x="376" y="137" on="0"/>
        <pt x="392" y="132" on="0"/>
        <pt x="395" y="131" on="1"/>
        <pt x="411" y="127" on="0"/>
        <pt x="457" y="117" on="0"/>
        <pt x="498" y="98" on="0"/>
        <pt x="527" y="68" on="0"/>
        <pt x="527" y="45" on="1"/>
        <pt x="527" y="28" on="1"/>
        <pt x="526" y="26" on="0"/>
        <pt x="519" y="17" on="0"/>
        <pt x="510" y="8" on="0"/>
        <pt x="502" y="1" on="0"/>
        <pt x="499" y="0" on="1"/>
        <pt x="487" y="0" on="0"/>
        <pt x="432" y="-2" on="0"/>
        <pt x="371" y="-5" on="0"/>
        <pt x="316" y="-7" on="0"/>
        <pt x="304" y="-7" on="1"/>
        <pt x="27" y="-7" on="1"/>
        <pt x="25" y="-5" on="0"/>
        <pt x="21" y="6" on="0"/>
        <pt x="18" y="9" on="1"/>
        <pt x="16" y="23" on="0"/>
        <pt x="6" y="63" on="0"/>
        <pt x="6" y="81" on="1"/>
        <pt x="6" y="95" on="0"/>
        <pt x="36" y="108" on="0"/>
        <pt x="48" y="112" on="1"/>
        <pt x="49" y="112" on="0"/>
        <pt x="61" y="113" on="0"/>
        <pt x="76" y="115" on="0"/>
        <pt x="89" y="117" on="0"/>
        <pt x="91" y="118" on="1"/>
        <pt x="101" y="122" on="0"/>
        <pt x="132" y="138" on="0"/>
        <pt x="162" y="153" on="0"/>
        <pt x="185" y="165" on="0"/>
        <pt x="186" y="166" on="1"/>
        <pt x="196" y="182" on="1"/>
        <pt x="196" y="279" on="1"/>
        <pt x="206" y="280" on="0"/>
        <pt x="221" y="309" on="0"/>
        <pt x="233" y="345" on="0"/>
        <pt x="243" y="381" on="0"/>
        <pt x="248" y="389" on="1"/>
        <pt x="249" y="390" on="0"/>
        <pt x="258" y="398" on="0"/>
        <pt x="268" y="407" on="0"/>
        <pt x="276" y="415" on="0"/>
        <pt x="276" y="417" on="1"/>
        <pt x="277" y="418" on="0"/>
        <pt x="279" y="434" on="0"/>
        <pt x="281" y="453" on="0"/>
        <pt x="283" y="470" on="0"/>
        <pt x="283" y="472" on="1"/>
        <pt x="285" y="476" on="0"/>
        <pt x="294" y="498" on="0"/>
        <pt x="299" y="502" on="1"/>
        <pt x="311" y="618" on="1"/>
        <pt x="325" y="638" on="0"/>
        <pt x="334" y="686" on="0"/>
        <pt x="338" y="709" on="1"/>
        <pt x="341" y="712" on="0"/>
        <pt x="345" y="728" on="0"/>
        <pt x="345" y="730" on="1"/>
        <pt x="347" y="732" on="0"/>
        <pt x="359" y="747" on="0"/>
        <pt x="361" y="749" on="1"/>
        <pt x="362" y="752" on="0"/>
        <pt x="365" y="769" on="0"/>
        <pt x="369" y="789" on="0"/>
        <pt x="372" y="808" on="0"/>
        <pt x="373" y="813" on="1"/>
        <pt x="373" y="841" on="1"/>
        <pt x="374" y="844" on="0"/>
        <pt x="383" y="860" on="0"/>
        <pt x="392" y="878" on="0"/>
        <pt x="401" y="894" on="0"/>
        <pt x="402" y="896" on="1"/>
        <pt x="403" y="897" on="0"/>
        <pt x="407" y="910" on="0"/>
        <pt x="411" y="924" on="0"/>
        <pt x="414" y="936" on="0"/>
        <pt x="414" y="938" on="1"/>
        <pt x="416" y="941" on="0"/>
        <pt x="423" y="957" on="0"/>
        <pt x="430" y="975" on="0"/>
        <pt x="435" y="992" on="0"/>
        <pt x="437" y="995" on="1"/>
        <pt x="448" y="1024" on="0"/>
        <pt x="461" y="1094" on="0"/>
        <pt x="472" y="1126" on="1"/>
        <pt x="481" y="1152" on="0"/>
        <pt x="510" y="1200" on="0"/>
        <pt x="511" y="1230" on="1"/>
        <pt x="513" y="1232" on="0"/>
        <pt x="513" y="1240" on="1"/>
        <pt x="513" y="1248" on="0"/>
        <pt x="511" y="1269" on="0"/>
        <pt x="511" y="1272" on="1"/>
        <pt x="512" y="1274" on="0"/>
        <pt x="522" y="1290" on="0"/>
        <pt x="533" y="1308" on="0"/>
        <pt x="541" y="1324" on="0"/>
        <pt x="541" y="1327" on="1"/>
        <pt x="541" y="1381" on="1"/>
        <pt x="542" y="1385" on="0"/>
        <pt x="552" y="1406" on="0"/>
        <pt x="555" y="1410" on="1"/>
        <pt x="559" y="1412" on="0"/>
        <pt x="563" y="1415" on="1"/>
        <pt x="566" y="1417" on="0"/>
        <pt x="573" y="1422" on="0"/>
        <pt x="575" y="1424" on="1"/>
        <pt x="591" y="1434" on="0"/>
        <pt x="616" y="1452" on="0"/>
        <pt x="641" y="1466" on="0"/>
        <pt x="670" y="1474" on="0"/>
        <pt x="690" y="1474" on="1"/>
        <pt x="695" y="1474" on="0"/>
        <pt x="723" y="1472" on="0"/>
        <pt x="728" y="1472" on="1"/>
        <pt x="737" y="1464" on="0"/>
        <pt x="760" y="1444" on="0"/>
        <pt x="762" y="1431" on="1"/>
        <pt x="774" y="1390" on="0"/>
        <pt x="781" y="1310" on="0"/>
        <pt x="792" y="1272" on="1"/>
        <pt x="792" y="1269" on="0"/>
        <pt x="794" y="1263" on="1"/>
        <pt x="795" y="1260" on="0"/>
        <pt x="797" y="1258" on="1"/>
        <pt x="799" y="1253" on="0"/>
        <pt x="804" y="1239" on="0"/>
        <pt x="804" y="1237" on="1"/>
        <pt x="804" y="1202" on="1"/>
        <pt x="809" y="1180" on="0"/>
        <pt x="827" y="1138" on="0"/>
        <pt x="831" y="1118" on="1"/>
        <pt x="832" y="1115" on="0"/>
        <pt x="837" y="1091" on="0"/>
        <pt x="842" y="1063" on="0"/>
        <pt x="845" y="1038" on="0"/>
        <pt x="845" y="1035" on="1"/>
        <pt x="846" y="1033" on="0"/>
        <pt x="850" y="1021" on="0"/>
        <pt x="855" y="1007" on="0"/>
        <pt x="859" y="995" on="0"/>
        <pt x="861" y="995" on="1"/>
        <pt x="863" y="985" on="0"/>
        <pt x="874" y="939" on="0"/>
        <pt x="887" y="888" on="0"/>
        <pt x="899" y="843" on="0"/>
        <pt x="901" y="834" on="1"/>
        <pt x="935" y="777" on="0"/>
        <pt x="965" y="654" on="0"/>
        <pt x="977" y="590" on="1"/>
        <pt x="978" y="588" on="0"/>
        <pt x="984" y="573" on="0"/>
        <pt x="985" y="571" on="1"/>
        <pt x="1002" y="528" on="0"/>
        <pt x="1031" y="445" on="0"/>
        <pt x="1048" y="403" on="1"/>
        <pt x="1047" y="400" on="0"/>
        <pt x="1045" y="386" on="0"/>
        <pt x="1043" y="371" on="0"/>
        <pt x="1040" y="358" on="0"/>
        <pt x="1039" y="355" on="1"/>
        <pt x="1039" y="341" on="1"/>
        <pt x="1040" y="339" on="0"/>
        <pt x="1049" y="327" on="0"/>
        <pt x="1058" y="313" on="0"/>
        <pt x="1067" y="300" on="0"/>
        <pt x="1068" y="298" on="1"/>
        <pt x="1081" y="276" on="0"/>
        <pt x="1093" y="233" on="0"/>
        <pt x="1107" y="193" on="0"/>
        <pt x="1128" y="156" on="0"/>
        <pt x="1151" y="140" on="1"/>
        <pt x="1151" y="138" on="0"/>
        <pt x="1158" y="133" on="0"/>
        <pt x="1158" y="131" on="1"/>
        <pt x="1163" y="130" on="0"/>
        <pt x="1184" y="118" on="0"/>
        <pt x="1186" y="118" on="1"/>
        <pt x="1189" y="117" on="0"/>
        <pt x="1216" y="113" on="0"/>
        <pt x="1247" y="109" on="0"/>
        <pt x="1274" y="106" on="0"/>
        <pt x="1278" y="106" on="1"/>
        <pt x="1282" y="104" on="0"/>
        <pt x="1296" y="96" on="0"/>
        <pt x="1310" y="87" on="0"/>
        <pt x="1319" y="77" on="0"/>
        <pt x="1319" y="71" on="1"/>
        <pt x="1319" y="68" on="0"/>
        <pt x="1312" y="41" on="0"/>
        <pt x="1301" y="11" on="0"/>
        <pt x="1289" y="-13" on="0"/>
        <pt x="1285" y="-14" on="1"/>
        <pt x="1250" y="-14" on="1"/>
        <pt x="1242" y="-14" on="0"/>
        <pt x="1229" y="-12" on="0"/>
      </contour>
      <contour>
        <pt x="472" y="714" on="1"/>
        <pt x="472" y="709" on="1"/>
        <pt x="473" y="705" on="0"/>
        <pt x="477" y="689" on="0"/>
        <pt x="477" y="687" on="1"/>
        <pt x="484" y="674" on="0"/>
        <pt x="501" y="649" on="0"/>
        <pt x="520" y="630" on="0"/>
        <pt x="545" y="618" on="0"/>
        <pt x="561" y="618" on="1"/>
        <pt x="580" y="618" on="0"/>
        <pt x="612" y="633" on="0"/>
        <pt x="631" y="633" on="1"/>
        <pt x="649" y="633" on="0"/>
        <pt x="682" y="625" on="0"/>
        <pt x="700" y="625" on="1"/>
        <pt x="707" y="625" on="1"/>
        <pt x="711" y="626" on="0"/>
        <pt x="724" y="632" on="0"/>
        <pt x="737" y="639" on="0"/>
        <pt x="748" y="645" on="0"/>
        <pt x="750" y="645" on="1"/>
        <pt x="755" y="650" on="0"/>
        <pt x="757" y="678" on="0"/>
        <pt x="757" y="685" on="1"/>
        <pt x="757" y="710" on="0"/>
        <pt x="734" y="761" on="0"/>
        <pt x="728" y="784" on="1"/>
        <pt x="714" y="829" on="0"/>
        <pt x="686" y="920" on="0"/>
        <pt x="672" y="965" on="1"/>
        <pt x="671" y="968" on="0"/>
        <pt x="664" y="989" on="0"/>
        <pt x="655" y="1016" on="0"/>
        <pt x="647" y="1042" on="0"/>
        <pt x="645" y="1048" on="1"/>
        <pt x="643" y="1051" on="0"/>
        <pt x="637" y="1067" on="0"/>
        <pt x="631" y="1085" on="0"/>
        <pt x="625" y="1101" on="0"/>
        <pt x="624" y="1104" on="1"/>
        <pt x="620" y="1115" on="0"/>
        <pt x="618" y="1119" on="0"/>
        <pt x="610" y="1119" on="1"/>
        <pt x="601" y="1119" on="0"/>
        <pt x="587" y="1104" on="0"/>
        <pt x="576" y="1084" on="0"/>
        <pt x="569" y="1062" on="0"/>
        <pt x="568" y="1055" on="1"/>
        <pt x="568" y="1035" on="1"/>
        <pt x="568" y="1033" on="0"/>
        <pt x="561" y="1021" on="0"/>
        <pt x="554" y="1008" on="0"/>
        <pt x="547" y="996" on="0"/>
        <pt x="546" y="995" on="1"/>
        <pt x="546" y="992" on="0"/>
        <pt x="545" y="973" on="0"/>
        <pt x="543" y="951" on="0"/>
        <pt x="541" y="933" on="0"/>
        <pt x="541" y="931" on="1"/>
        <pt x="536" y="910" on="0"/>
        <pt x="510" y="868" on="0"/>
        <pt x="506" y="848" on="1"/>
        <pt x="506" y="846" on="0"/>
        <pt x="504" y="832" on="0"/>
        <pt x="502" y="815" on="0"/>
        <pt x="500" y="801" on="0"/>
        <pt x="499" y="799" on="1"/>
        <pt x="498" y="798" on="0"/>
        <pt x="492" y="786" on="0"/>
        <pt x="485" y="771" on="0"/>
        <pt x="478" y="758" on="0"/>
        <pt x="477" y="756" on="1"/>
        <pt x="476" y="748" on="0"/>
        <pt x="475" y="740" on="1"/>
        <pt x="474" y="733" on="0"/>
        <pt x="472" y="719" on="0"/>
      </contour>
    </TTGlyph>
    <TTGlyph name="Aring" xMin="6" yMin="-14" xMax="1319" yMax="1866">
      <component glyphName="A" x="0" y="0" flags="0x204"/>
      <component glyphName="Ring" x="100" y="0" flags="0x4"/>
    </TTGlyph>
    <TTGlyph name="Atilde" xMin="6" yMin="-14" xMax="1319" yMax="1868">
      <component glyphName="A" x="0" y="0" flags="0x204"/>
      <component glyphName="Tilde" x="142" y="0" flags="0x4"/>
    </TTGlyph>
    <TTGlyph name="B" xMin="66" yMin="-12" xMax="1172" yMax="1398">
      <contour>
        <pt x="502" y="932" on="1"/>
        <pt x="502" y="898" on="0"/>
        <pt x="520" y="845" on="0"/>
        <pt x="531" y="813" on="1"/>
        <pt x="538" y="798" on="0"/>
        <pt x="548" y="773" on="0"/>
        <pt x="563" y="754" on="0"/>
        <pt x="588" y="744" on="0"/>
        <pt x="609" y="744" on="1"/>
        <pt x="614" y="744" on="1"/>
        <pt x="616" y="745" on="0"/>
        <pt x="629" y="752" on="0"/>
        <pt x="643" y="759" on="0"/>
        <pt x="655" y="766" on="0"/>
        <pt x="656" y="766" on="1"/>
        <pt x="659" y="767" on="0"/>
        <pt x="677" y="769" on="0"/>
        <pt x="698" y="771" on="0"/>
        <pt x="716" y="773" on="0"/>
        <pt x="718" y="773" on="1"/>
        <pt x="729" y="774" on="0"/>
        <pt x="761" y="790" on="0"/>
        <pt x="793" y="811" on="0"/>
        <pt x="821" y="834" on="0"/>
        <pt x="829" y="843" on="1"/>
        <pt x="838" y="851" on="0"/>
        <pt x="848" y="865" on="0"/>
        <pt x="856" y="880" on="0"/>
        <pt x="864" y="895" on="0"/>
        <pt x="872" y="905" on="1"/>
        <pt x="872" y="907" on="0"/>
        <pt x="891" y="924" on="0"/>
        <pt x="891" y="926" on="1"/>
        <pt x="895" y="930" on="0"/>
        <pt x="905" y="951" on="0"/>
        <pt x="907" y="955" on="1"/>
        <pt x="907" y="957" on="0"/>
        <pt x="910" y="979" on="0"/>
        <pt x="915" y="1008" on="0"/>
        <pt x="919" y="1036" on="0"/>
        <pt x="921" y="1043" on="1"/>
        <pt x="921" y="1054" on="1"/>
        <pt x="921" y="1064" on="1"/>
        <pt x="921" y="1067" on="0"/>
        <pt x="919" y="1079" on="0"/>
        <pt x="917" y="1093" on="0"/>
        <pt x="915" y="1104" on="0"/>
        <pt x="914" y="1105" on="1"/>
        <pt x="910" y="1119" on="0"/>
        <pt x="894" y="1128" on="0"/>
        <pt x="886" y="1140" on="1"/>
        <pt x="884" y="1142" on="0"/>
        <pt x="874" y="1166" on="0"/>
        <pt x="872" y="1168" on="1"/>
        <pt x="869" y="1171" on="0"/>
        <pt x="854" y="1187" on="0"/>
        <pt x="836" y="1205" on="0"/>
        <pt x="820" y="1222" on="0"/>
        <pt x="817" y="1225" on="1"/>
        <pt x="805" y="1234" on="0"/>
        <pt x="756" y="1258" on="0"/>
        <pt x="701" y="1279" on="0"/>
        <pt x="651" y="1294" on="0"/>
        <pt x="639" y="1294" on="1"/>
        <pt x="613" y="1294" on="0"/>
        <pt x="573" y="1291" on="0"/>
        <pt x="545" y="1287" on="1"/>
        <pt x="537" y="1273" on="0"/>
        <pt x="529" y="1243" on="0"/>
        <pt x="526" y="1211" on="0"/>
        <pt x="526" y="1179" on="0"/>
        <pt x="525" y="1163" on="1"/>
        <pt x="523" y="1140" on="0"/>
        <pt x="502" y="1105" on="0"/>
        <pt x="502" y="1086" on="1"/>
        <pt x="502" y="1066" on="0"/>
        <pt x="511" y="1032" on="0"/>
        <pt x="511" y="1012" on="1"/>
        <pt x="511" y="991" on="0"/>
        <pt x="502" y="953" on="0"/>
      </contour>
      <contour>
        <pt x="511" y="112" on="1"/>
        <pt x="575" y="73" on="1"/>
        <pt x="575" y="69" on="0"/>
        <pt x="585" y="69" on="1"/>
        <pt x="606" y="69" on="0"/>
        <pt x="652" y="75" on="0"/>
        <pt x="670" y="78" on="1"/>
        <pt x="680" y="79" on="0"/>
        <pt x="710" y="84" on="0"/>
        <pt x="738" y="88" on="0"/>
        <pt x="759" y="92" on="0"/>
        <pt x="760" y="92" on="1"/>
        <pt x="763" y="92" on="0"/>
        <pt x="777" y="103" on="0"/>
        <pt x="793" y="115" on="0"/>
        <pt x="807" y="126" on="0"/>
        <pt x="810" y="126" on="1"/>
        <pt x="833" y="142" on="0"/>
        <pt x="882" y="185" on="0"/>
        <pt x="922" y="235" on="0"/>
        <pt x="948" y="293" on="0"/>
        <pt x="948" y="325" on="1"/>
        <pt x="948" y="336" on="1"/>
        <pt x="948" y="337" on="0"/>
        <pt x="941" y="360" on="0"/>
        <pt x="941" y="362" on="1"/>
        <pt x="941" y="432" on="1"/>
        <pt x="938" y="438" on="0"/>
        <pt x="935" y="443" on="1"/>
        <pt x="933" y="448" on="0"/>
        <pt x="928" y="456" on="0"/>
        <pt x="926" y="458" on="1"/>
        <pt x="926" y="461" on="0"/>
        <pt x="921" y="465" on="0"/>
        <pt x="921" y="467" on="1"/>
        <pt x="919" y="469" on="0"/>
        <pt x="911" y="485" on="0"/>
        <pt x="902" y="504" on="0"/>
        <pt x="893" y="520" on="0"/>
        <pt x="891" y="522" on="1"/>
        <pt x="891" y="523" on="0"/>
        <pt x="885" y="531" on="0"/>
        <pt x="876" y="542" on="0"/>
        <pt x="867" y="554" on="0"/>
        <pt x="864" y="557" on="1"/>
        <pt x="856" y="568" on="0"/>
        <pt x="831" y="581" on="0"/>
        <pt x="822" y="592" on="1"/>
        <pt x="821" y="593" on="0"/>
        <pt x="816" y="602" on="0"/>
        <pt x="809" y="611" on="0"/>
        <pt x="804" y="619" on="0"/>
        <pt x="803" y="619" on="1"/>
        <pt x="774" y="642" on="0"/>
        <pt x="697" y="660" on="0"/>
        <pt x="663" y="670" on="1"/>
        <pt x="661" y="670" on="0"/>
        <pt x="645" y="674" on="0"/>
        <pt x="626" y="678" on="0"/>
        <pt x="610" y="682" on="0"/>
        <pt x="609" y="682" on="1"/>
        <pt x="607" y="682" on="0"/>
        <pt x="583" y="683" on="0"/>
        <pt x="576" y="683" on="1"/>
        <pt x="572" y="683" on="0"/>
        <pt x="549" y="682" on="0"/>
        <pt x="545" y="682" on="1"/>
        <pt x="544" y="680" on="0"/>
        <pt x="533" y="664" on="0"/>
        <pt x="531" y="663" on="1"/>
        <pt x="529" y="659" on="0"/>
        <pt x="522" y="645" on="0"/>
        <pt x="516" y="631" on="0"/>
        <pt x="511" y="620" on="0"/>
        <pt x="511" y="619" on="1"/>
        <pt x="510" y="616" on="0"/>
        <pt x="508" y="596" on="0"/>
        <pt x="506" y="573" on="0"/>
        <pt x="503" y="553" on="0"/>
        <pt x="502" y="550" on="1"/>
        <pt x="500" y="524" on="0"/>
        <pt x="490" y="474" on="0"/>
        <pt x="490" y="446" on="1"/>
        <pt x="490" y="424" on="1"/>
        <pt x="490" y="422" on="0"/>
        <pt x="492" y="407" on="0"/>
        <pt x="495" y="388" on="0"/>
        <pt x="497" y="372" on="0"/>
        <pt x="497" y="370" on="1"/>
        <pt x="497" y="357" on="0"/>
        <pt x="499" y="295" on="0"/>
        <pt x="499" y="261" on="1"/>
        <pt x="499" y="226" on="0"/>
        <pt x="497" y="166" on="0"/>
        <pt x="497" y="154" on="1"/>
      </contour>
      <contour>
        <pt x="94" y="-5" on="1"/>
        <pt x="82" y="-3" on="0"/>
        <pt x="66" y="13" on="0"/>
        <pt x="66" y="24" on="1"/>
        <pt x="66" y="35" on="0"/>
        <pt x="70" y="66" on="0"/>
        <pt x="78" y="73" on="1"/>
        <pt x="81" y="73" on="0"/>
        <pt x="96" y="76" on="0"/>
        <pt x="101" y="78" on="1"/>
        <pt x="105" y="78" on="0"/>
        <pt x="124" y="80" on="0"/>
        <pt x="147" y="83" on="0"/>
        <pt x="166" y="85" on="0"/>
        <pt x="170" y="85" on="1"/>
        <pt x="239" y="85" on="1"/>
        <pt x="245" y="85" on="0"/>
        <pt x="267" y="90" on="0"/>
        <pt x="288" y="98" on="0"/>
        <pt x="305" y="107" on="0"/>
        <pt x="308" y="112" on="1"/>
        <pt x="309" y="115" on="0"/>
        <pt x="312" y="132" on="0"/>
        <pt x="315" y="150" on="0"/>
        <pt x="317" y="167" on="0"/>
        <pt x="317" y="170" on="1"/>
        <pt x="317" y="171" on="0"/>
        <pt x="308" y="194" on="0"/>
        <pt x="308" y="195" on="1"/>
        <pt x="308" y="196" on="0"/>
        <pt x="311" y="209" on="0"/>
        <pt x="314" y="224" on="0"/>
        <pt x="317" y="237" on="0"/>
        <pt x="317" y="239" on="1"/>
        <pt x="317" y="273" on="1"/>
        <pt x="317" y="318" on="0"/>
        <pt x="301" y="402" on="0"/>
        <pt x="301" y="446" on="1"/>
        <pt x="301" y="453" on="1"/>
        <pt x="301" y="454" on="0"/>
        <pt x="303" y="465" on="0"/>
        <pt x="306" y="476" on="0"/>
        <pt x="308" y="486" on="0"/>
        <pt x="308" y="488" on="1"/>
        <pt x="308" y="528" on="1"/>
        <pt x="308" y="628" on="1"/>
        <pt x="309" y="631" on="0"/>
        <pt x="314" y="652" on="0"/>
        <pt x="320" y="678" on="0"/>
        <pt x="324" y="701" on="0"/>
        <pt x="324" y="704" on="1"/>
        <pt x="324" y="706" on="0"/>
        <pt x="317" y="728" on="0"/>
        <pt x="317" y="732" on="1"/>
        <pt x="317" y="739" on="1"/>
        <pt x="317" y="759" on="1"/>
        <pt x="315" y="761" on="0"/>
        <pt x="303" y="777" on="0"/>
        <pt x="301" y="778" on="1"/>
        <pt x="301" y="784" on="1"/>
        <pt x="301" y="785" on="1"/>
        <pt x="303" y="790" on="0"/>
        <pt x="315" y="811" on="0"/>
        <pt x="317" y="813" on="1"/>
        <pt x="321" y="836" on="0"/>
        <pt x="322" y="877" on="0"/>
        <pt x="322" y="900" on="1"/>
        <pt x="322" y="926" on="0"/>
        <pt x="325" y="977" on="0"/>
        <pt x="336" y="1002" on="1"/>
        <pt x="336" y="1007" on="0"/>
        <pt x="337" y="1033" on="0"/>
        <pt x="337" y="1062" on="0"/>
        <pt x="338" y="1088" on="0"/>
        <pt x="338" y="1093" on="1"/>
        <pt x="338" y="1102" on="0"/>
        <pt x="337" y="1131" on="0"/>
        <pt x="337" y="1160" on="0"/>
        <pt x="336" y="1182" on="0"/>
        <pt x="336" y="1183" on="1"/>
        <pt x="336" y="1185" on="0"/>
        <pt x="335" y="1200" on="0"/>
        <pt x="333" y="1217" on="0"/>
        <pt x="330" y="1233" on="0"/>
        <pt x="329" y="1237" on="1"/>
        <pt x="327" y="1250" on="0"/>
        <pt x="322" y="1274" on="0"/>
        <pt x="308" y="1280" on="1"/>
        <pt x="302" y="1280" on="0"/>
        <pt x="268" y="1282" on="0"/>
        <pt x="231" y="1284" on="0"/>
        <pt x="197" y="1286" on="0"/>
        <pt x="191" y="1287" on="1"/>
        <pt x="187" y="1287" on="0"/>
        <pt x="172" y="1289" on="0"/>
        <pt x="156" y="1291" on="0"/>
        <pt x="143" y="1293" on="0"/>
        <pt x="142" y="1294" on="1"/>
        <pt x="140" y="1295" on="0"/>
        <pt x="129" y="1300" on="0"/>
        <pt x="116" y="1307" on="0"/>
        <pt x="104" y="1313" on="0"/>
        <pt x="101" y="1315" on="1"/>
        <pt x="96" y="1317" on="0"/>
        <pt x="81" y="1333" on="0"/>
        <pt x="78" y="1336" on="1"/>
        <pt x="78" y="1341" on="1"/>
        <pt x="78" y="1359" on="0"/>
        <pt x="97" y="1391" on="0"/>
        <pt x="113" y="1398" on="1"/>
        <pt x="211" y="1398" on="1"/>
        <pt x="332" y="1398" on="0"/>
        <pt x="568" y="1382" on="0"/>
        <pt x="689" y="1382" on="1"/>
        <pt x="695" y="1382" on="0"/>
        <pt x="725" y="1383" on="0"/>
        <pt x="758" y="1383" on="0"/>
        <pt x="788" y="1384" on="0"/>
        <pt x="794" y="1384" on="1"/>
        <pt x="799" y="1386" on="0"/>
        <pt x="813" y="1391" on="0"/>
        <pt x="817" y="1391" on="1"/>
        <pt x="818" y="1391" on="0"/>
        <pt x="824" y="1387" on="1"/>
        <pt x="827" y="1385" on="0"/>
        <pt x="829" y="1384" on="1"/>
        <pt x="832" y="1383" on="0"/>
        <pt x="849" y="1379" on="0"/>
        <pt x="868" y="1375" on="0"/>
        <pt x="884" y="1371" on="0"/>
        <pt x="886" y="1370" on="1"/>
        <pt x="887" y="1370" on="0"/>
        <pt x="895" y="1366" on="0"/>
        <pt x="905" y="1360" on="0"/>
        <pt x="913" y="1356" on="0"/>
        <pt x="914" y="1356" on="1"/>
        <pt x="946" y="1342" on="0"/>
        <pt x="1002" y="1315" on="0"/>
        <pt x="1033" y="1294" on="1"/>
        <pt x="1042" y="1288" on="0"/>
        <pt x="1050" y="1278" on="0"/>
        <pt x="1056" y="1267" on="0"/>
        <pt x="1062" y="1254" on="0"/>
        <pt x="1068" y="1244" on="1"/>
        <pt x="1083" y="1215" on="0"/>
        <pt x="1104" y="1179" on="0"/>
        <pt x="1117" y="1143" on="0"/>
        <pt x="1123" y="1098" on="0"/>
        <pt x="1123" y="1062" on="1"/>
        <pt x="1123" y="1040" on="1"/>
        <pt x="1123" y="1002" on="0"/>
        <pt x="1116" y="914" on="0"/>
        <pt x="1102" y="882" on="1"/>
        <pt x="1100" y="881" on="0"/>
        <pt x="1089" y="865" on="0"/>
        <pt x="1078" y="847" on="0"/>
        <pt x="1068" y="831" on="0"/>
        <pt x="1068" y="829" on="1"/>
        <pt x="1063" y="821" on="0"/>
        <pt x="1056" y="807" on="0"/>
        <pt x="1050" y="795" on="0"/>
        <pt x="1041" y="783" on="0"/>
        <pt x="1033" y="778" on="1"/>
        <pt x="1017" y="769" on="0"/>
        <pt x="983" y="754" on="0"/>
        <pt x="950" y="738" on="0"/>
        <pt x="919" y="718" on="0"/>
        <pt x="907" y="704" on="1"/>
        <pt x="913" y="693" on="0"/>
        <pt x="932" y="682" on="0"/>
        <pt x="953" y="675" on="0"/>
        <pt x="974" y="669" on="0"/>
        <pt x="983" y="663" on="1"/>
        <pt x="996" y="652" on="0"/>
        <pt x="1025" y="636" on="0"/>
        <pt x="1038" y="628" on="1"/>
        <pt x="1073" y="601" on="0"/>
        <pt x="1119" y="519" on="0"/>
        <pt x="1137" y="481" on="1"/>
        <pt x="1153" y="447" on="0"/>
        <pt x="1172" y="383" on="0"/>
        <pt x="1172" y="344" on="1"/>
        <pt x="1172" y="336" on="1"/>
        <pt x="1162" y="294" on="0"/>
        <pt x="1130" y="199" on="0"/>
        <pt x="1108" y="161" on="1"/>
        <pt x="1101" y="150" on="0"/>
        <pt x="1089" y="136" on="0"/>
        <pt x="1076" y="123" on="0"/>
        <pt x="1061" y="109" on="0"/>
        <pt x="1052" y="99" on="1"/>
        <pt x="1050" y="97" on="0"/>
        <pt x="1038" y="82" on="0"/>
        <pt x="1025" y="66" on="0"/>
        <pt x="1013" y="52" on="0"/>
        <pt x="1011" y="50" on="1"/>
        <pt x="1009" y="48" on="0"/>
        <pt x="988" y="39" on="0"/>
        <pt x="983" y="35" on="1"/>
        <pt x="977" y="33" on="0"/>
        <pt x="949" y="24" on="0"/>
        <pt x="918" y="13" on="0"/>
        <pt x="891" y="3" on="0"/>
        <pt x="886" y="0" on="1"/>
        <pt x="876" y="0" on="0"/>
        <pt x="825" y="-1" on="0"/>
        <pt x="767" y="-3" on="0"/>
        <pt x="716" y="-4" on="0"/>
        <pt x="706" y="-5" on="1"/>
        <pt x="703" y="-5" on="0"/>
        <pt x="680" y="-7" on="0"/>
        <pt x="654" y="-10" on="0"/>
        <pt x="631" y="-12" on="0"/>
        <pt x="628" y="-12" on="1"/>
        <pt x="621" y="-12" on="1"/>
        <pt x="615" y="-12" on="0"/>
        <pt x="607" y="-10" on="0"/>
        <pt x="601" y="-5" on="1"/>
        <pt x="582" y="-5" on="1"/>
        <pt x="549" y="-5" on="0"/>
        <pt x="488" y="3" on="0"/>
        <pt x="455" y="3" on="1"/>
        <pt x="437" y="3" on="0"/>
        <pt x="404" y="-1" on="0"/>
        <pt x="386" y="-5" on="1"/>
        <pt x="384" y="-5" on="0"/>
        <pt x="372" y="-12" on="0"/>
        <pt x="371" y="-12" on="1"/>
        <pt x="369" y="-12" on="1"/>
        <pt x="357" y="-12" on="0"/>
        <pt x="335" y="-5" on="0"/>
        <pt x="324" y="-5" on="1"/>
        <pt x="301" y="-5" on="0"/>
        <pt x="260" y="-12" on="0"/>
        <pt x="237" y="-12" on="1"/>
        <pt x="201" y="-12" on="0"/>
        <pt x="134" y="-9" on="0"/>
      </contour>
    </TTGlyph>
    <TTGlyph name="Breve" xMin="128" yMin="1586" xMax="556" yMax="1868">
      <contour>
        <pt x="328" y="1586" on="1"/>
        <pt x="320" y="1586" on="0"/>
        <pt x="304" y="1587" on="0"/>
        <pt x="297" y="1589" on="1"/>
        <pt x="297" y="1589" on="0"/>
        <pt x="283" y="1593" on="0"/>
        <pt x="268" y="1598" on="0"/>
        <pt x="256" y="1602" on="0"/>
        <pt x="256" y="1602" on="1"/>
        <pt x="243" y="1604" on="1"/>
        <pt x="229" y="1606" on="0"/>
        <pt x="212" y="1625" on="0"/>
        <pt x="205" y="1629" on="1"/>
        <pt x="189" y="1638" on="1"/>
        <pt x="179" y="1647" on="0"/>
        <pt x="167" y="1670" on="0"/>
        <pt x="157" y="1694" on="0"/>
        <pt x="146" y="1719" on="0"/>
        <pt x="138" y="1730" on="1"/>
        <pt x="137" y="1745" on="1"/>
        <pt x="132" y="1755" on="1"/>
        <pt x="130" y="1761" on="0"/>
        <pt x="130" y="1768" on="1"/>
        <pt x="131" y="1780" on="1"/>
        <pt x="131" y="1818" on="1"/>
        <pt x="131" y="1826" on="0"/>
        <pt x="129" y="1846" on="0"/>
        <pt x="128" y="1854" on="1"/>
        <pt x="137" y="1868" on="0"/>
        <pt x="150" y="1868" on="1"/>
        <pt x="164" y="1868" on="0"/>
        <pt x="173" y="1854" on="1"/>
        <pt x="175" y="1841" on="0"/>
        <pt x="179" y="1830" on="1"/>
        <pt x="183" y="1819" on="0"/>
        <pt x="204" y="1797" on="0"/>
        <pt x="208" y="1786" on="1"/>
        <pt x="209" y="1783" on="1"/>
        <pt x="210" y="1780" on="1"/>
        <pt x="213" y="1772" on="0"/>
        <pt x="221" y="1757" on="0"/>
        <pt x="229" y="1750" on="1"/>
        <pt x="243" y="1739" on="0"/>
        <pt x="283" y="1719" on="0"/>
        <pt x="300" y="1716" on="1"/>
        <pt x="312" y="1714" on="0"/>
        <pt x="330" y="1712" on="0"/>
        <pt x="341" y="1709" on="1"/>
        <pt x="349" y="1707" on="0"/>
        <pt x="360" y="1702" on="0"/>
        <pt x="367" y="1702" on="1"/>
        <pt x="374" y="1702" on="0"/>
        <pt x="377" y="1704" on="1"/>
        <pt x="385" y="1708" on="0"/>
        <pt x="391" y="1710" on="0"/>
        <pt x="393" y="1710" on="1"/>
        <pt x="395" y="1714" on="1"/>
        <pt x="396" y="1716" on="0"/>
        <pt x="397" y="1719" on="1"/>
        <pt x="408" y="1728" on="1"/>
        <pt x="450" y="1745" on="1"/>
        <pt x="455" y="1749" on="1"/>
        <pt x="468" y="1758" on="1"/>
        <pt x="471" y="1761" on="0"/>
        <pt x="471" y="1763" on="1"/>
        <pt x="474" y="1766" on="1"/>
        <pt x="480" y="1772" on="0"/>
        <pt x="487" y="1800" on="0"/>
        <pt x="496" y="1810" on="1"/>
        <pt x="500" y="1814" on="1"/>
        <pt x="501" y="1822" on="1"/>
        <pt x="511" y="1854" on="1"/>
        <pt x="520" y="1868" on="0"/>
        <pt x="533" y="1868" on="1"/>
        <pt x="541" y="1868" on="0"/>
        <pt x="551" y="1859" on="0"/>
        <pt x="556" y="1854" on="1"/>
        <pt x="556" y="1821" on="1"/>
        <pt x="556" y="1810" on="0"/>
        <pt x="554" y="1784" on="0"/>
        <pt x="552" y="1775" on="1"/>
        <pt x="547" y="1760" on="0"/>
        <pt x="533" y="1727" on="0"/>
        <pt x="530" y="1716" on="1"/>
        <pt x="525" y="1701" on="0"/>
        <pt x="519" y="1677" on="0"/>
        <pt x="512" y="1666" on="1"/>
        <pt x="499" y="1645" on="0"/>
        <pt x="467" y="1616" on="0"/>
        <pt x="446" y="1610" on="1"/>
        <pt x="428" y="1605" on="0"/>
        <pt x="403" y="1590" on="0"/>
        <pt x="379" y="1588" on="1"/>
        <pt x="369" y="1587" on="0"/>
        <pt x="349" y="1586" on="0"/>
        <pt x="341" y="1586" on="1"/>
      </contour>
    </TTGlyph>
    <TTGlyph name="C" xMin="99" yMin="-7" xMax="1239" yMax="1382">
      <contour>
        <pt x="127" y="562" on="1"/>
        <pt x="111" y="590" on="1"/>
        <pt x="111" y="591" on="0"/>
        <pt x="108" y="619" on="0"/>
        <pt x="104" y="656" on="0"/>
        <pt x="100" y="696" on="0"/>
        <pt x="99" y="709" on="1"/>
        <pt x="99" y="721" on="1"/>
        <pt x="99" y="737" on="1"/>
        <pt x="100" y="750" on="0"/>
        <pt x="106" y="806" on="0"/>
        <pt x="112" y="863" on="0"/>
        <pt x="118" y="911" on="0"/>
        <pt x="120" y="917" on="1"/>
        <pt x="126" y="962" on="0"/>
        <pt x="171" y="1040" on="0"/>
        <pt x="196" y="1076" on="1"/>
        <pt x="200" y="1082" on="0"/>
        <pt x="222" y="1114" on="0"/>
        <pt x="246" y="1150" on="0"/>
        <pt x="268" y="1181" on="0"/>
        <pt x="272" y="1187" on="1"/>
        <pt x="295" y="1200" on="0"/>
        <pt x="335" y="1233" on="0"/>
        <pt x="373" y="1268" on="0"/>
        <pt x="411" y="1303" on="0"/>
        <pt x="431" y="1318" on="1"/>
        <pt x="435" y="1322" on="0"/>
        <pt x="452" y="1332" on="0"/>
        <pt x="454" y="1334" on="1"/>
        <pt x="454" y="1334" on="0"/>
        <pt x="462" y="1336" on="0"/>
        <pt x="471" y="1339" on="0"/>
        <pt x="480" y="1341" on="0"/>
        <pt x="481" y="1341" on="1"/>
        <pt x="484" y="1341" on="0"/>
        <pt x="508" y="1350" on="0"/>
        <pt x="536" y="1359" on="0"/>
        <pt x="561" y="1368" on="0"/>
        <pt x="564" y="1368" on="1"/>
        <pt x="598" y="1378" on="0"/>
        <pt x="675" y="1382" on="0"/>
        <pt x="713" y="1382" on="1"/>
        <pt x="793" y="1382" on="1"/>
        <pt x="877" y="1382" on="1"/>
        <pt x="881" y="1381" on="0"/>
        <pt x="903" y="1375" on="0"/>
        <pt x="927" y="1369" on="0"/>
        <pt x="949" y="1363" on="0"/>
        <pt x="954" y="1362" on="1"/>
        <pt x="988" y="1348" on="0"/>
        <pt x="1043" y="1324" on="0"/>
        <pt x="1078" y="1313" on="1"/>
        <pt x="1080" y="1313" on="1"/>
        <pt x="1095" y="1313" on="0"/>
        <pt x="1123" y="1322" on="0"/>
        <pt x="1150" y="1333" on="0"/>
        <pt x="1177" y="1342" on="0"/>
        <pt x="1191" y="1342" on="1"/>
        <pt x="1201" y="1342" on="0"/>
        <pt x="1208" y="1318" on="0"/>
        <pt x="1208" y="1304" on="1"/>
        <pt x="1208" y="1294" on="0"/>
        <pt x="1206" y="1276" on="0"/>
        <pt x="1206" y="1270" on="1"/>
        <pt x="1206" y="1266" on="0"/>
        <pt x="1210" y="1246" on="0"/>
        <pt x="1210" y="1244" on="1"/>
        <pt x="1210" y="1189" on="1"/>
        <pt x="1210" y="1168" on="1"/>
        <pt x="1211" y="1153" on="0"/>
        <pt x="1219" y="1126" on="0"/>
        <pt x="1227" y="1099" on="0"/>
        <pt x="1234" y="1072" on="0"/>
        <pt x="1234" y="1057" on="1"/>
        <pt x="1234" y="1037" on="0"/>
        <pt x="1232" y="1001" on="0"/>
        <pt x="1222" y="970" on="0"/>
        <pt x="1201" y="946" on="0"/>
        <pt x="1182" y="938" on="1"/>
        <pt x="1177" y="935" on="0"/>
        <pt x="1156" y="929" on="0"/>
        <pt x="1154" y="929" on="1"/>
        <pt x="1097" y="958" on="1"/>
        <pt x="1095" y="964" on="1"/>
        <pt x="1093" y="970" on="0"/>
        <pt x="1092" y="972" on="1"/>
        <pt x="1089" y="981" on="0"/>
        <pt x="1075" y="1022" on="0"/>
        <pt x="1060" y="1069" on="0"/>
        <pt x="1046" y="1110" on="0"/>
        <pt x="1044" y="1118" on="1"/>
        <pt x="1041" y="1121" on="0"/>
        <pt x="1029" y="1137" on="0"/>
        <pt x="1016" y="1155" on="0"/>
        <pt x="1003" y="1172" on="0"/>
        <pt x="1000" y="1175" on="1"/>
        <pt x="997" y="1178" on="0"/>
        <pt x="983" y="1191" on="0"/>
        <pt x="968" y="1204" on="0"/>
        <pt x="955" y="1214" on="0"/>
        <pt x="954" y="1214" on="1"/>
        <pt x="952" y="1215" on="0"/>
        <pt x="935" y="1218" on="0"/>
        <pt x="916" y="1220" on="0"/>
        <pt x="899" y="1221" on="0"/>
        <pt x="896" y="1221" on="1"/>
        <pt x="895" y="1221" on="0"/>
        <pt x="879" y="1228" on="0"/>
        <pt x="877" y="1230" on="1"/>
        <pt x="852" y="1230" on="1"/>
        <pt x="843" y="1230" on="1"/>
        <pt x="839" y="1230" on="0"/>
        <pt x="829" y="1247" on="0"/>
        <pt x="827" y="1249" on="1"/>
        <pt x="827" y="1253" on="0"/>
        <pt x="832" y="1271" on="0"/>
        <pt x="832" y="1273" on="1"/>
        <pt x="828" y="1273" on="0"/>
        <pt x="806" y="1278" on="0"/>
        <pt x="801" y="1278" on="1"/>
        <pt x="800" y="1278" on="1"/>
        <pt x="798" y="1278" on="0"/>
        <pt x="788" y="1265" on="0"/>
        <pt x="786" y="1265" on="1"/>
        <pt x="782" y="1262" on="0"/>
        <pt x="760" y="1249" on="0"/>
        <pt x="758" y="1249" on="1"/>
        <pt x="703" y="1249" on="1"/>
        <pt x="700" y="1249" on="0"/>
        <pt x="684" y="1244" on="0"/>
        <pt x="682" y="1244" on="1"/>
        <pt x="672" y="1244" on="1"/>
        <pt x="662" y="1244" on="0"/>
        <pt x="643" y="1249" on="0"/>
        <pt x="634" y="1249" on="1"/>
        <pt x="622" y="1249" on="0"/>
        <pt x="587" y="1237" on="0"/>
        <pt x="578" y="1230" on="1"/>
        <pt x="575" y="1227" on="0"/>
        <pt x="555" y="1206" on="0"/>
        <pt x="531" y="1182" on="0"/>
        <pt x="510" y="1162" on="0"/>
        <pt x="507" y="1159" on="1"/>
        <pt x="505" y="1157" on="0"/>
        <pt x="502" y="1156" on="1"/>
        <pt x="500" y="1154" on="0"/>
        <pt x="496" y="1153" on="0"/>
        <pt x="495" y="1152" on="1"/>
        <pt x="493" y="1151" on="0"/>
        <pt x="483" y="1143" on="0"/>
        <pt x="472" y="1134" on="0"/>
        <pt x="462" y="1125" on="0"/>
        <pt x="461" y="1124" on="1"/>
        <pt x="456" y="1118" on="0"/>
        <pt x="436" y="1090" on="0"/>
        <pt x="413" y="1057" on="0"/>
        <pt x="394" y="1027" on="0"/>
        <pt x="391" y="1021" on="1"/>
        <pt x="390" y="1021" on="0"/>
        <pt x="385" y="1008" on="0"/>
        <pt x="378" y="990" on="0"/>
        <pt x="372" y="972" on="0"/>
        <pt x="369" y="967" on="1"/>
        <pt x="369" y="965" on="0"/>
        <pt x="366" y="952" on="0"/>
        <pt x="361" y="937" on="0"/>
        <pt x="357" y="925" on="0"/>
        <pt x="357" y="924" on="1"/>
        <pt x="355" y="922" on="0"/>
        <pt x="348" y="908" on="0"/>
        <pt x="341" y="892" on="0"/>
        <pt x="335" y="877" on="0"/>
        <pt x="334" y="875" on="1"/>
        <pt x="334" y="820" on="1"/>
        <pt x="334" y="798" on="1"/>
        <pt x="334" y="795" on="0"/>
        <pt x="331" y="781" on="0"/>
        <pt x="327" y="766" on="0"/>
        <pt x="323" y="753" on="0"/>
        <pt x="322" y="751" on="1"/>
        <pt x="322" y="597" on="1"/>
        <pt x="330" y="585" on="0"/>
        <pt x="329" y="562" on="0"/>
        <pt x="334" y="548" on="1"/>
        <pt x="334" y="546" on="0"/>
        <pt x="337" y="545" on="1"/>
        <pt x="341" y="543" on="1"/>
        <pt x="355" y="513" on="0"/>
        <pt x="362" y="442" on="0"/>
        <pt x="369" y="410" on="1"/>
        <pt x="369" y="408" on="0"/>
        <pt x="376" y="398" on="0"/>
        <pt x="376" y="396" on="1"/>
        <pt x="388" y="369" on="0"/>
        <pt x="411" y="316" on="0"/>
        <pt x="437" y="267" on="0"/>
        <pt x="471" y="221" on="0"/>
        <pt x="495" y="201" on="1"/>
        <pt x="506" y="193" on="0"/>
        <pt x="536" y="171" on="0"/>
        <pt x="550" y="166" on="1"/>
        <pt x="553" y="165" on="0"/>
        <pt x="572" y="162" on="0"/>
        <pt x="593" y="158" on="0"/>
        <pt x="611" y="155" on="0"/>
        <pt x="613" y="154" on="1"/>
        <pt x="616" y="152" on="0"/>
        <pt x="626" y="142" on="0"/>
        <pt x="637" y="131" on="0"/>
        <pt x="646" y="121" on="0"/>
        <pt x="647" y="119" on="1"/>
        <pt x="650" y="118" on="0"/>
        <pt x="670" y="115" on="0"/>
        <pt x="692" y="113" on="0"/>
        <pt x="713" y="112" on="0"/>
        <pt x="717" y="112" on="1"/>
        <pt x="719" y="112" on="0"/>
        <pt x="731" y="109" on="0"/>
        <pt x="745" y="106" on="0"/>
        <pt x="757" y="104" on="0"/>
        <pt x="758" y="104" on="1"/>
        <pt x="788" y="106" on="0"/>
        <pt x="851" y="137" on="0"/>
        <pt x="869" y="159" on="1"/>
        <pt x="871" y="162" on="0"/>
        <pt x="876" y="173" on="0"/>
        <pt x="877" y="173" on="1"/>
        <pt x="882" y="180" on="0"/>
        <pt x="897" y="183" on="0"/>
        <pt x="905" y="183" on="1"/>
        <pt x="912" y="183" on="0"/>
        <pt x="923" y="182" on="0"/>
        <pt x="928" y="182" on="1"/>
        <pt x="931" y="182" on="1"/>
        <pt x="933" y="182" on="0"/>
        <pt x="945" y="186" on="0"/>
        <pt x="947" y="189" on="1"/>
        <pt x="948" y="191" on="0"/>
        <pt x="958" y="202" on="0"/>
        <pt x="969" y="215" on="0"/>
        <pt x="979" y="226" on="0"/>
        <pt x="981" y="228" on="1"/>
        <pt x="982" y="230" on="0"/>
        <pt x="990" y="246" on="0"/>
        <pt x="999" y="263" on="0"/>
        <pt x="1007" y="277" on="0"/>
        <pt x="1009" y="279" on="1"/>
        <pt x="1022" y="298" on="0"/>
        <pt x="1047" y="329" on="0"/>
        <pt x="1057" y="355" on="1"/>
        <pt x="1065" y="375" on="0"/>
        <pt x="1080" y="431" on="0"/>
        <pt x="1085" y="452" on="1"/>
        <pt x="1085" y="452" on="0"/>
        <pt x="1087" y="462" on="0"/>
        <pt x="1090" y="474" on="0"/>
        <pt x="1092" y="485" on="0"/>
        <pt x="1092" y="486" on="1"/>
        <pt x="1099" y="518" on="0"/>
        <pt x="1138" y="555" on="0"/>
        <pt x="1170" y="555" on="1"/>
        <pt x="1190" y="555" on="0"/>
        <pt x="1216" y="539" on="0"/>
        <pt x="1232" y="514" on="0"/>
        <pt x="1239" y="481" on="0"/>
        <pt x="1239" y="465" on="1"/>
        <pt x="1239" y="454" on="0"/>
        <pt x="1237" y="435" on="0"/>
        <pt x="1230" y="424" on="1"/>
        <pt x="1230" y="270" on="1"/>
        <pt x="1235" y="265" on="0"/>
        <pt x="1239" y="257" on="0"/>
        <pt x="1239" y="251" on="1"/>
        <pt x="1239" y="244" on="1"/>
        <pt x="1238" y="241" on="0"/>
        <pt x="1232" y="224" on="0"/>
        <pt x="1225" y="204" on="0"/>
        <pt x="1219" y="186" on="0"/>
        <pt x="1217" y="182" on="1"/>
        <pt x="1215" y="177" on="0"/>
        <pt x="1210" y="168" on="0"/>
        <pt x="1210" y="166" on="1"/>
        <pt x="1192" y="153" on="0"/>
        <pt x="1154" y="143" on="0"/>
        <pt x="1117" y="137" on="0"/>
        <pt x="1080" y="129" on="0"/>
        <pt x="1063" y="119" on="1"/>
        <pt x="1061" y="117" on="0"/>
        <pt x="1049" y="106" on="0"/>
        <pt x="1036" y="95" on="0"/>
        <pt x="1024" y="85" on="0"/>
        <pt x="1023" y="85" on="1"/>
        <pt x="1000" y="68" on="0"/>
        <pt x="950" y="41" on="0"/>
        <pt x="924" y="35" on="1"/>
        <pt x="874" y="21" on="0"/>
        <pt x="776" y="-7" on="0"/>
        <pt x="722" y="-7" on="1"/>
        <pt x="690" y="-7" on="0"/>
        <pt x="621" y="-1" on="0"/>
        <pt x="551" y="10" on="0"/>
        <pt x="484" y="26" on="0"/>
        <pt x="454" y="35" on="1"/>
        <pt x="443" y="38" on="0"/>
        <pt x="431" y="50" on="0"/>
        <pt x="422" y="64" on="0"/>
        <pt x="412" y="79" on="0"/>
        <pt x="403" y="85" on="1"/>
        <pt x="401" y="86" on="0"/>
        <pt x="383" y="96" on="0"/>
        <pt x="361" y="109" on="0"/>
        <pt x="340" y="122" on="0"/>
        <pt x="334" y="125" on="1"/>
        <pt x="328" y="128" on="0"/>
        <pt x="322" y="131" on="0"/>
        <pt x="317" y="134" on="0"/>
        <pt x="311" y="141" on="0"/>
        <pt x="307" y="147" on="1"/>
        <pt x="306" y="148" on="0"/>
        <pt x="298" y="159" on="0"/>
        <pt x="289" y="174" on="0"/>
        <pt x="280" y="187" on="0"/>
        <pt x="279" y="189" on="1"/>
        <pt x="277" y="190" on="0"/>
        <pt x="267" y="200" on="0"/>
        <pt x="256" y="211" on="0"/>
        <pt x="245" y="221" on="0"/>
        <pt x="244" y="223" on="1"/>
        <pt x="243" y="224" on="0"/>
        <pt x="236" y="235" on="0"/>
        <pt x="227" y="247" on="0"/>
        <pt x="219" y="260" on="0"/>
        <pt x="218" y="263" on="1"/>
        <pt x="194" y="303" on="0"/>
        <pt x="160" y="373" on="0"/>
        <pt x="138" y="442" on="0"/>
        <pt x="127" y="517" on="0"/>
      </contour>
    </TTGlyph>
    <TTGlyph name="Cacute" xMin="99" yMin="-7" xMax="1239" yMax="1868">
      <component glyphName="C" x="0" y="0" flags="0x204"/>
      <component glyphName="Acute" x="217" y="0" flags="0x4"/>
    </TTGlyph>
    <TTGlyph name="Caron" xMin="176" yMin="1519" xMax="627" yMax="1856">
      <contour>
        <pt x="241" y="1713" on="1"/>
        <pt x="231" y="1721" on="0"/>
        <pt x="219" y="1742" on="0"/>
        <pt x="207" y="1762" on="0"/>
        <pt x="190" y="1779" on="0"/>
        <pt x="176" y="1785" on="1"/>
        <pt x="176" y="1825" on="1"/>
        <pt x="176" y="1833" on="0"/>
        <pt x="179" y="1845" on="0"/>
        <pt x="188" y="1856" on="1"/>
        <pt x="210" y="1856" on="1"/>
        <pt x="218" y="1854" on="0"/>
        <pt x="226" y="1850" on="0"/>
        <pt x="235" y="1844" on="0"/>
        <pt x="246" y="1836" on="0"/>
        <pt x="257" y="1830" on="1"/>
        <pt x="276" y="1822" on="1"/>
        <pt x="283" y="1817" on="0"/>
        <pt x="291" y="1810" on="0"/>
        <pt x="307" y="1797" on="1"/>
        <pt x="316" y="1790" on="1"/>
        <pt x="319" y="1788" on="0"/>
        <pt x="332" y="1779" on="0"/>
        <pt x="347" y="1769" on="0"/>
        <pt x="358" y="1759" on="0"/>
        <pt x="359" y="1756" on="1"/>
        <pt x="368" y="1752" on="0"/>
        <pt x="381" y="1739" on="0"/>
        <pt x="391" y="1726" on="0"/>
        <pt x="400" y="1717" on="0"/>
        <pt x="406" y="1717" on="1"/>
        <pt x="413" y="1717" on="0"/>
        <pt x="435" y="1733" on="0"/>
        <pt x="455" y="1753" on="0"/>
        <pt x="469" y="1773" on="0"/>
        <pt x="469" y="1777" on="1"/>
        <pt x="490" y="1786" on="0"/>
        <pt x="514" y="1802" on="0"/>
        <pt x="532" y="1816" on="0"/>
        <pt x="553" y="1829" on="0"/>
        <pt x="572" y="1835" on="1"/>
        <pt x="578" y="1835" on="0"/>
        <pt x="609" y="1846" on="0"/>
        <pt x="617" y="1846" on="1"/>
        <pt x="620" y="1845" on="0"/>
        <pt x="623" y="1830" on="0"/>
        <pt x="626" y="1813" on="0"/>
        <pt x="627" y="1798" on="0"/>
        <pt x="627" y="1797" on="1"/>
        <pt x="627" y="1794" on="0"/>
        <pt x="608" y="1769" on="0"/>
        <pt x="584" y="1740" on="0"/>
        <pt x="562" y="1715" on="0"/>
        <pt x="558" y="1713" on="1"/>
        <pt x="558" y="1708" on="0"/>
        <pt x="541" y="1694" on="0"/>
        <pt x="520" y="1676" on="0"/>
        <pt x="501" y="1655" on="0"/>
        <pt x="499" y="1645" on="1"/>
        <pt x="492" y="1631" on="0"/>
        <pt x="472" y="1589" on="0"/>
        <pt x="448" y="1548" on="0"/>
        <pt x="420" y="1519" on="0"/>
        <pt x="404" y="1519" on="1"/>
        <pt x="390" y="1519" on="0"/>
        <pt x="358" y="1550" on="0"/>
        <pt x="330" y="1591" on="0"/>
        <pt x="307" y="1633" on="0"/>
        <pt x="302" y="1645" on="1"/>
        <pt x="295" y="1664" on="1"/>
        <pt x="292" y="1668" on="0"/>
        <pt x="275" y="1680" on="0"/>
        <pt x="256" y="1694" on="0"/>
        <pt x="241" y="1708" on="0"/>
      </contour>
    </TTGlyph>
    <TTGlyph name="Ccaron" xMin="99" yMin="-7" xMax="1239" yMax="1856">
      <component glyphName="C" x="0" y="0" flags="0x204"/>
      <component glyphName="Caron" x="332" y="0" flags="0x4"/>
    </TTGlyph>
    <TTGlyph name="Ccedilla" xMin="99" yMin="-569" xMax="1239" yMax="1382">
      <contour>
        <pt x="562" y="-515" on="1"/>
        <pt x="563" y="-512" on="0"/>
        <pt x="571" y="-499" on="0"/>
        <pt x="580" y="-486" on="0"/>
        <pt x="587" y="-474" on="0"/>
        <pt x="588" y="-472" on="1"/>
        <pt x="590" y="-470" on="0"/>
        <pt x="604" y="-463" on="0"/>
        <pt x="605" y="-463" on="1"/>
        <pt x="676" y="-463" on="1"/>
        <pt x="685" y="-457" on="0"/>
        <pt x="693" y="-450" on="1"/>
        <pt x="700" y="-445" on="0"/>
        <pt x="715" y="-432" on="0"/>
        <pt x="720" y="-427" on="1"/>
        <pt x="721" y="-427" on="0"/>
        <pt x="727" y="-420" on="0"/>
        <pt x="728" y="-420" on="1"/>
        <pt x="735" y="-412" on="0"/>
        <pt x="752" y="-386" on="0"/>
        <pt x="754" y="-384" on="1"/>
        <pt x="754" y="-367" on="1"/>
        <pt x="753" y="-363" on="0"/>
        <pt x="749" y="-343" on="0"/>
        <pt x="744" y="-321" on="0"/>
        <pt x="739" y="-301" on="0"/>
        <pt x="739" y="-296" on="1"/>
        <pt x="737" y="-291" on="0"/>
        <pt x="725" y="-272" on="0"/>
        <pt x="720" y="-270" on="1"/>
        <pt x="719" y="-269" on="0"/>
        <pt x="708" y="-265" on="0"/>
        <pt x="693" y="-260" on="0"/>
        <pt x="679" y="-256" on="0"/>
        <pt x="676" y="-254" on="1"/>
        <pt x="672" y="-252" on="0"/>
        <pt x="652" y="-244" on="0"/>
        <pt x="650" y="-244" on="1"/>
        <pt x="633" y="-244" on="1"/>
        <pt x="613" y="-250" on="0"/>
        <pt x="576" y="-268" on="0"/>
        <pt x="540" y="-286" on="0"/>
        <pt x="504" y="-299" on="0"/>
        <pt x="483" y="-299" on="1"/>
        <pt x="483" y="-285" on="0"/>
        <pt x="485" y="-265" on="0"/>
        <pt x="493" y="-254" on="1"/>
        <pt x="497" y="-249" on="0"/>
        <pt x="514" y="-226" on="0"/>
        <pt x="534" y="-200" on="0"/>
        <pt x="551" y="-179" on="0"/>
        <pt x="554" y="-175" on="1"/>
        <pt x="555" y="-174" on="0"/>
        <pt x="565" y="-163" on="0"/>
        <pt x="577" y="-151" on="0"/>
        <pt x="587" y="-141" on="0"/>
        <pt x="588" y="-140" on="1"/>
        <pt x="592" y="-136" on="0"/>
        <pt x="608" y="-117" on="0"/>
        <pt x="625" y="-97" on="0"/>
        <pt x="638" y="-81" on="0"/>
        <pt x="640" y="-78" on="1"/>
        <pt x="647" y="-71" on="0"/>
        <pt x="650" y="-60" on="0"/>
        <pt x="650" y="-52" on="1"/>
        <pt x="650" y="-45" on="1"/>
        <pt x="656" y="-38" on="0"/>
        <pt x="667" y="-16" on="0"/>
        <pt x="673" y="-5" on="1"/>
        <pt x="617" y="-1" on="0"/>
        <pt x="502" y="19" on="0"/>
        <pt x="454" y="35" on="1"/>
        <pt x="443" y="38" on="0"/>
        <pt x="431" y="50" on="0"/>
        <pt x="422" y="64" on="0"/>
        <pt x="412" y="79" on="0"/>
        <pt x="403" y="85" on="1"/>
        <pt x="401" y="86" on="0"/>
        <pt x="383" y="96" on="0"/>
        <pt x="361" y="109" on="0"/>
        <pt x="340" y="122" on="0"/>
        <pt x="334" y="125" on="1"/>
        <pt x="328" y="128" on="0"/>
        <pt x="322" y="131" on="0"/>
        <pt x="317" y="134" on="0"/>
        <pt x="311" y="141" on="0"/>
        <pt x="307" y="147" on="1"/>
        <pt x="306" y="148" on="0"/>
        <pt x="298" y="159" on="0"/>
        <pt x="289" y="174" on="0"/>
        <pt x="280" y="187" on="0"/>
        <pt x="279" y="189" on="1"/>
        <pt x="277" y="190" on="0"/>
        <pt x="267" y="200" on="0"/>
        <pt x="256" y="211" on="0"/>
        <pt x="245" y="221" on="0"/>
        <pt x="244" y="223" on="1"/>
        <pt x="243" y="224" on="0"/>
        <pt x="236" y="235" on="0"/>
        <pt x="227" y="247" on="0"/>
        <pt x="219" y="260" on="0"/>
        <pt x="218" y="263" on="1"/>
        <pt x="194" y="303" on="0"/>
        <pt x="160" y="373" on="0"/>
        <pt x="138" y="442" on="0"/>
        <pt x="127" y="517" on="0"/>
        <pt x="127" y="562" on="1"/>
        <pt x="111" y="590" on="1"/>
        <pt x="111" y="591" on="0"/>
        <pt x="108" y="619" on="0"/>
        <pt x="104" y="656" on="0"/>
        <pt x="100" y="696" on="0"/>
        <pt x="99" y="709" on="1"/>
        <pt x="99" y="737" on="1"/>
        <pt x="100" y="750" on="0"/>
        <pt x="106" y="806" on="0"/>
        <pt x="112" y="863" on="0"/>
        <pt x="118" y="911" on="0"/>
        <pt x="120" y="917" on="1"/>
        <pt x="126" y="962" on="0"/>
        <pt x="171" y="1040" on="0"/>
        <pt x="196" y="1076" on="1"/>
        <pt x="200" y="1082" on="0"/>
        <pt x="222" y="1114" on="0"/>
        <pt x="246" y="1150" on="0"/>
        <pt x="268" y="1181" on="0"/>
        <pt x="272" y="1187" on="1"/>
        <pt x="295" y="1200" on="0"/>
        <pt x="335" y="1233" on="0"/>
        <pt x="373" y="1268" on="0"/>
        <pt x="411" y="1303" on="0"/>
        <pt x="431" y="1318" on="1"/>
        <pt x="435" y="1322" on="0"/>
        <pt x="452" y="1332" on="0"/>
        <pt x="454" y="1334" on="1"/>
        <pt x="454" y="1334" on="0"/>
        <pt x="462" y="1336" on="0"/>
        <pt x="471" y="1339" on="0"/>
        <pt x="480" y="1341" on="0"/>
        <pt x="481" y="1341" on="1"/>
        <pt x="484" y="1341" on="0"/>
        <pt x="508" y="1350" on="0"/>
        <pt x="536" y="1359" on="0"/>
        <pt x="561" y="1368" on="0"/>
        <pt x="564" y="1368" on="1"/>
        <pt x="598" y="1378" on="0"/>
        <pt x="675" y="1382" on="0"/>
        <pt x="713" y="1382" on="1"/>
        <pt x="877" y="1382" on="1"/>
        <pt x="881" y="1381" on="0"/>
        <pt x="903" y="1375" on="0"/>
        <pt x="927" y="1369" on="0"/>
        <pt x="949" y="1363" on="0"/>
        <pt x="954" y="1362" on="1"/>
        <pt x="988" y="1348" on="0"/>
        <pt x="1043" y="1324" on="0"/>
        <pt x="1078" y="1313" on="1"/>
        <pt x="1080" y="1313" on="1"/>
        <pt x="1095" y="1313" on="0"/>
        <pt x="1123" y="1322" on="0"/>
        <pt x="1150" y="1333" on="0"/>
        <pt x="1177" y="1342" on="0"/>
        <pt x="1191" y="1342" on="1"/>
        <pt x="1201" y="1342" on="0"/>
        <pt x="1208" y="1318" on="0"/>
        <pt x="1208" y="1304" on="1"/>
        <pt x="1208" y="1294" on="0"/>
        <pt x="1206" y="1276" on="0"/>
        <pt x="1206" y="1270" on="1"/>
        <pt x="1206" y="1266" on="0"/>
        <pt x="1210" y="1246" on="0"/>
        <pt x="1210" y="1244" on="1"/>
        <pt x="1210" y="1168" on="1"/>
        <pt x="1211" y="1153" on="0"/>
        <pt x="1219" y="1126" on="0"/>
        <pt x="1227" y="1099" on="0"/>
        <pt x="1234" y="1072" on="0"/>
        <pt x="1234" y="1057" on="1"/>
        <pt x="1234" y="1037" on="0"/>
        <pt x="1232" y="1001" on="0"/>
        <pt x="1222" y="970" on="0"/>
        <pt x="1201" y="946" on="0"/>
        <pt x="1182" y="938" on="1"/>
        <pt x="1177" y="935" on="0"/>
        <pt x="1156" y="929" on="0"/>
        <pt x="1154" y="929" on="1"/>
        <pt x="1097" y="958" on="1"/>
        <pt x="1095" y="964" on="1"/>
        <pt x="1093" y="970" on="0"/>
        <pt x="1092" y="972" on="1"/>
        <pt x="1089" y="981" on="0"/>
        <pt x="1075" y="1022" on="0"/>
        <pt x="1060" y="1069" on="0"/>
        <pt x="1046" y="1110" on="0"/>
        <pt x="1044" y="1118" on="1"/>
        <pt x="1041" y="1121" on="0"/>
        <pt x="1029" y="1137" on="0"/>
        <pt x="1016" y="1155" on="0"/>
        <pt x="1003" y="1172" on="0"/>
        <pt x="1000" y="1175" on="1"/>
        <pt x="997" y="1178" on="0"/>
        <pt x="983" y="1191" on="0"/>
        <pt x="968" y="1204" on="0"/>
        <pt x="955" y="1214" on="0"/>
        <pt x="954" y="1214" on="1"/>
        <pt x="952" y="1215" on="0"/>
        <pt x="935" y="1218" on="0"/>
        <pt x="916" y="1220" on="0"/>
        <pt x="899" y="1221" on="0"/>
        <pt x="896" y="1221" on="1"/>
        <pt x="895" y="1221" on="0"/>
        <pt x="879" y="1228" on="0"/>
        <pt x="877" y="1230" on="1"/>
        <pt x="843" y="1230" on="1"/>
        <pt x="839" y="1230" on="0"/>
        <pt x="829" y="1247" on="0"/>
        <pt x="827" y="1249" on="1"/>
        <pt x="827" y="1253" on="0"/>
        <pt x="832" y="1271" on="0"/>
        <pt x="832" y="1273" on="1"/>
        <pt x="828" y="1273" on="0"/>
        <pt x="806" y="1278" on="0"/>
        <pt x="801" y="1278" on="1"/>
        <pt x="800" y="1278" on="1"/>
        <pt x="798" y="1278" on="0"/>
        <pt x="788" y="1265" on="0"/>
        <pt x="786" y="1265" on="1"/>
        <pt x="782" y="1262" on="0"/>
        <pt x="760" y="1249" on="0"/>
        <pt x="758" y="1249" on="1"/>
        <pt x="703" y="1249" on="1"/>
        <pt x="700" y="1249" on="0"/>
        <pt x="684" y="1244" on="0"/>
        <pt x="682" y="1244" on="1"/>
        <pt x="672" y="1244" on="1"/>
        <pt x="662" y="1244" on="0"/>
        <pt x="643" y="1249" on="0"/>
        <pt x="634" y="1249" on="1"/>
        <pt x="622" y="1249" on="0"/>
        <pt x="587" y="1237" on="0"/>
        <pt x="578" y="1230" on="1"/>
        <pt x="575" y="1227" on="0"/>
        <pt x="555" y="1206" on="0"/>
        <pt x="531" y="1182" on="0"/>
        <pt x="510" y="1162" on="0"/>
        <pt x="507" y="1159" on="1"/>
        <pt x="505" y="1157" on="0"/>
        <pt x="502" y="1156" on="1"/>
        <pt x="500" y="1154" on="0"/>
        <pt x="496" y="1153" on="0"/>
        <pt x="495" y="1152" on="1"/>
        <pt x="493" y="1151" on="0"/>
        <pt x="483" y="1143" on="0"/>
        <pt x="472" y="1134" on="0"/>
        <pt x="462" y="1125" on="0"/>
        <pt x="461" y="1124" on="1"/>
        <pt x="456" y="1118" on="0"/>
        <pt x="436" y="1090" on="0"/>
        <pt x="413" y="1057" on="0"/>
        <pt x="394" y="1027" on="0"/>
        <pt x="391" y="1021" on="1"/>
        <pt x="390" y="1021" on="0"/>
        <pt x="385" y="1008" on="0"/>
        <pt x="378" y="990" on="0"/>
        <pt x="372" y="972" on="0"/>
        <pt x="369" y="967" on="1"/>
        <pt x="369" y="965" on="0"/>
        <pt x="366" y="952" on="0"/>
        <pt x="361" y="937" on="0"/>
        <pt x="357" y="925" on="0"/>
        <pt x="357" y="924" on="1"/>
        <pt x="355" y="922" on="0"/>
        <pt x="348" y="908" on="0"/>
        <pt x="341" y="892" on="0"/>
        <pt x="335" y="877" on="0"/>
        <pt x="334" y="875" on="1"/>
        <pt x="334" y="798" on="1"/>
        <pt x="334" y="795" on="0"/>
        <pt x="331" y="781" on="0"/>
        <pt x="327" y="766" on="0"/>
        <pt x="323" y="753" on="0"/>
        <pt x="322" y="751" on="1"/>
        <pt x="322" y="597" on="1"/>
        <pt x="330" y="585" on="0"/>
        <pt x="329" y="562" on="0"/>
        <pt x="334" y="548" on="1"/>
        <pt x="334" y="546" on="0"/>
        <pt x="337" y="545" on="1"/>
        <pt x="341" y="543" on="1"/>
        <pt x="355" y="513" on="0"/>
        <pt x="362" y="442" on="0"/>
        <pt x="369" y="410" on="1"/>
        <pt x="369" y="408" on="0"/>
        <pt x="376" y="398" on="0"/>
        <pt x="376" y="396" on="1"/>
        <pt x="388" y="369" on="0"/>
        <pt x="411" y="316" on="0"/>
        <pt x="437" y="267" on="0"/>
        <pt x="471" y="221" on="0"/>
        <pt x="495" y="201" on="1"/>
        <pt x="506" y="193" on="0"/>
        <pt x="536" y="171" on="0"/>
        <pt x="550" y="166" on="1"/>
        <pt x="553" y="165" on="0"/>
        <pt x="572" y="162" on="0"/>
        <pt x="593" y="158" on="0"/>
        <pt x="611" y="155" on="0"/>
        <pt x="613" y="154" on="1"/>
        <pt x="616" y="152" on="0"/>
        <pt x="626" y="142" on="0"/>
        <pt x="637" y="131" on="0"/>
        <pt x="646" y="121" on="0"/>
        <pt x="647" y="119" on="1"/>
        <pt x="650" y="118" on="0"/>
        <pt x="670" y="115" on="0"/>
        <pt x="692" y="113" on="0"/>
        <pt x="713" y="112" on="0"/>
        <pt x="717" y="112" on="1"/>
        <pt x="719" y="112" on="0"/>
        <pt x="731" y="109" on="0"/>
        <pt x="745" y="106" on="0"/>
        <pt x="757" y="104" on="0"/>
        <pt x="758" y="104" on="1"/>
        <pt x="788" y="106" on="0"/>
        <pt x="851" y="137" on="0"/>
        <pt x="869" y="159" on="1"/>
        <pt x="871" y="162" on="0"/>
        <pt x="876" y="173" on="0"/>
        <pt x="877" y="173" on="1"/>
        <pt x="882" y="180" on="0"/>
        <pt x="897" y="183" on="0"/>
        <pt x="905" y="183" on="1"/>
        <pt x="912" y="183" on="0"/>
        <pt x="923" y="182" on="0"/>
        <pt x="928" y="182" on="1"/>
        <pt x="931" y="182" on="1"/>
        <pt x="933" y="182" on="0"/>
        <pt x="945" y="186" on="0"/>
        <pt x="947" y="189" on="1"/>
        <pt x="948" y="191" on="0"/>
        <pt x="958" y="202" on="0"/>
        <pt x="969" y="215" on="0"/>
        <pt x="979" y="226" on="0"/>
        <pt x="981" y="228" on="1"/>
        <pt x="982" y="230" on="0"/>
        <pt x="990" y="246" on="0"/>
        <pt x="999" y="263" on="0"/>
        <pt x="1007" y="277" on="0"/>
        <pt x="1009" y="279" on="1"/>
        <pt x="1022" y="298" on="0"/>
        <pt x="1047" y="329" on="0"/>
        <pt x="1057" y="355" on="1"/>
        <pt x="1065" y="375" on="0"/>
        <pt x="1080" y="431" on="0"/>
        <pt x="1085" y="452" on="1"/>
        <pt x="1085" y="452" on="0"/>
        <pt x="1087" y="462" on="0"/>
        <pt x="1090" y="474" on="0"/>
        <pt x="1092" y="485" on="0"/>
        <pt x="1092" y="486" on="1"/>
        <pt x="1099" y="518" on="0"/>
        <pt x="1138" y="555" on="0"/>
        <pt x="1170" y="555" on="1"/>
        <pt x="1190" y="555" on="0"/>
        <pt x="1216" y="539" on="0"/>
        <pt x="1232" y="514" on="0"/>
        <pt x="1239" y="481" on="0"/>
        <pt x="1239" y="465" on="1"/>
        <pt x="1239" y="454" on="0"/>
        <pt x="1237" y="435" on="0"/>
        <pt x="1230" y="424" on="1"/>
        <pt x="1230" y="270" on="1"/>
        <pt x="1235" y="265" on="0"/>
        <pt x="1239" y="257" on="0"/>
        <pt x="1239" y="251" on="1"/>
        <pt x="1239" y="244" on="1"/>
        <pt x="1238" y="241" on="0"/>
        <pt x="1232" y="224" on="0"/>
        <pt x="1225" y="204" on="0"/>
        <pt x="1219" y="186" on="0"/>
        <pt x="1217" y="182" on="1"/>
        <pt x="1215" y="177" on="0"/>
        <pt x="1210" y="168" on="0"/>
        <pt x="1210" y="166" on="1"/>
        <pt x="1192" y="153" on="0"/>
        <pt x="1154" y="143" on="0"/>
        <pt x="1117" y="137" on="0"/>
        <pt x="1080" y="129" on="0"/>
        <pt x="1063" y="119" on="1"/>
        <pt x="1061" y="117" on="0"/>
        <pt x="1049" y="106" on="0"/>
        <pt x="1036" y="95" on="0"/>
        <pt x="1024" y="85" on="0"/>
        <pt x="1023" y="85" on="1"/>
        <pt x="1000" y="68" on="0"/>
        <pt x="950" y="41" on="0"/>
        <pt x="924" y="35" on="1"/>
        <pt x="888" y="25" on="0"/>
        <pt x="817" y="4" on="0"/>
        <pt x="780" y="-2" on="1"/>
        <pt x="776" y="-13" on="0"/>
        <pt x="767" y="-29" on="0"/>
        <pt x="765" y="-34" on="1"/>
        <pt x="755" y="-53" on="0"/>
        <pt x="728" y="-85" on="0"/>
        <pt x="728" y="-105" on="1"/>
        <pt x="728" y="-114" on="1"/>
        <pt x="729" y="-116" on="0"/>
        <pt x="731" y="-118" on="1"/>
        <pt x="734" y="-122" on="0"/>
        <pt x="739" y="-123" on="1"/>
        <pt x="742" y="-125" on="0"/>
        <pt x="752" y="-133" on="0"/>
        <pt x="762" y="-141" on="0"/>
        <pt x="771" y="-148" on="0"/>
        <pt x="771" y="-149" on="1"/>
        <pt x="772" y="-149" on="0"/>
        <pt x="786" y="-154" on="0"/>
        <pt x="801" y="-160" on="0"/>
        <pt x="814" y="-165" on="0"/>
        <pt x="816" y="-166" on="1"/>
        <pt x="831" y="-172" on="0"/>
        <pt x="852" y="-191" on="0"/>
        <pt x="867" y="-213" on="0"/>
        <pt x="879" y="-240" on="0"/>
        <pt x="886" y="-254" on="1"/>
        <pt x="897" y="-277" on="0"/>
        <pt x="905" y="-327" on="0"/>
        <pt x="905" y="-353" on="1"/>
        <pt x="905" y="-355" on="0"/>
        <pt x="904" y="-362" on="0"/>
        <pt x="904" y="-366" on="1"/>
        <pt x="903" y="-370" on="0"/>
        <pt x="903" y="-375" on="1"/>
        <pt x="902" y="-379" on="0"/>
        <pt x="894" y="-399" on="0"/>
        <pt x="883" y="-421" on="0"/>
        <pt x="871" y="-442" on="0"/>
        <pt x="868" y="-446" on="1"/>
        <pt x="865" y="-449" on="0"/>
        <pt x="849" y="-465" on="0"/>
        <pt x="829" y="-484" on="0"/>
        <pt x="812" y="-502" on="0"/>
        <pt x="808" y="-505" on="1"/>
        <pt x="806" y="-507" on="0"/>
        <pt x="795" y="-513" on="0"/>
        <pt x="783" y="-519" on="0"/>
        <pt x="772" y="-523" on="0"/>
        <pt x="771" y="-524" on="1"/>
        <pt x="771" y="-524" on="0"/>
        <pt x="764" y="-529" on="0"/>
        <pt x="755" y="-535" on="0"/>
        <pt x="747" y="-541" on="0"/>
        <pt x="746" y="-541" on="1"/>
        <pt x="741" y="-544" on="0"/>
        <pt x="724" y="-552" on="0"/>
        <pt x="708" y="-561" on="0"/>
        <pt x="695" y="-567" on="0"/>
        <pt x="694" y="-567" on="1"/>
        <pt x="687" y="-568" on="0"/>
        <pt x="680" y="-568" on="1"/>
        <pt x="674" y="-569" on="0"/>
        <pt x="661" y="-569" on="0"/>
        <pt x="657" y="-569" on="1"/>
        <pt x="649" y="-569" on="0"/>
        <pt x="616" y="-567" on="0"/>
        <pt x="614" y="-567" on="1"/>
        <pt x="610" y="-567" on="0"/>
        <pt x="600" y="-560" on="0"/>
        <pt x="590" y="-552" on="0"/>
        <pt x="582" y="-544" on="0"/>
        <pt x="579" y="-541" on="1"/>
        <pt x="578" y="-539" on="0"/>
        <pt x="564" y="-518" on="0"/>
      </contour>
    </TTGlyph>
    <TTGlyph name="Circumflex" xMin="289" yMin="1522" xMax="740" yMax="1859">
      <contour>
        <pt x="675" y="1665" on="1"/>
        <pt x="685" y="1657" on="0"/>
        <pt x="697" y="1636" on="0"/>
        <pt x="709" y="1616" on="0"/>
        <pt x="726" y="1599" on="0"/>
        <pt x="740" y="1593" on="1"/>
        <pt x="740" y="1553" on="1"/>
        <pt x="740" y="1545" on="0"/>
        <pt x="737" y="1533" on="0"/>
        <pt x="728" y="1522" on="1"/>
        <pt x="706" y="1522" on="1"/>
        <pt x="698" y="1524" on="0"/>
        <pt x="690" y="1528" on="0"/>
        <pt x="681" y="1534" on="0"/>
        <pt x="670" y="1542" on="0"/>
        <pt x="659" y="1548" on="1"/>
        <pt x="640" y="1556" on="1"/>
        <pt x="636" y="1558" on="0"/>
        <pt x="632" y="1562" on="0"/>
        <pt x="626" y="1566" on="0"/>
        <pt x="617" y="1574" on="0"/>
        <pt x="609" y="1581" on="1"/>
        <pt x="600" y="1588" on="1"/>
        <pt x="597" y="1590" on="0"/>
        <pt x="584" y="1599" on="0"/>
        <pt x="569" y="1609" on="0"/>
        <pt x="558" y="1619" on="0"/>
        <pt x="557" y="1622" on="1"/>
        <pt x="548" y="1626" on="0"/>
        <pt x="535" y="1639" on="0"/>
        <pt x="525" y="1652" on="0"/>
        <pt x="516" y="1661" on="0"/>
        <pt x="510" y="1661" on="1"/>
        <pt x="502" y="1661" on="0"/>
        <pt x="481" y="1645" on="0"/>
        <pt x="461" y="1625" on="0"/>
        <pt x="447" y="1605" on="0"/>
        <pt x="447" y="1601" on="1"/>
        <pt x="426" y="1592" on="0"/>
        <pt x="402" y="1576" on="0"/>
        <pt x="384" y="1562" on="0"/>
        <pt x="363" y="1549" on="0"/>
        <pt x="344" y="1543" on="1"/>
        <pt x="338" y="1543" on="0"/>
        <pt x="307" y="1532" on="0"/>
        <pt x="299" y="1532" on="1"/>
        <pt x="296" y="1533" on="0"/>
        <pt x="293" y="1548" on="0"/>
        <pt x="290" y="1565" on="0"/>
        <pt x="289" y="1580" on="0"/>
        <pt x="289" y="1581" on="1"/>
        <pt x="289" y="1584" on="0"/>
        <pt x="308" y="1609" on="0"/>
        <pt x="332" y="1638" on="0"/>
        <pt x="354" y="1663" on="0"/>
        <pt x="358" y="1665" on="1"/>
        <pt x="358" y="1670" on="0"/>
        <pt x="375" y="1684" on="0"/>
        <pt x="396" y="1702" on="0"/>
        <pt x="415" y="1722" on="0"/>
        <pt x="417" y="1733" on="1"/>
        <pt x="424" y="1746" on="0"/>
        <pt x="443" y="1789" on="0"/>
        <pt x="467" y="1830" on="0"/>
        <pt x="496" y="1859" on="0"/>
        <pt x="512" y="1859" on="1"/>
        <pt x="526" y="1859" on="0"/>
        <pt x="558" y="1828" on="0"/>
        <pt x="586" y="1787" on="0"/>
        <pt x="609" y="1745" on="0"/>
        <pt x="614" y="1733" on="1"/>
        <pt x="621" y="1714" on="1"/>
        <pt x="624" y="1710" on="0"/>
        <pt x="641" y="1698" on="0"/>
        <pt x="660" y="1684" on="0"/>
        <pt x="675" y="1670" on="0"/>
      </contour>
    </TTGlyph>
    <TTGlyph name="D" xMin="68" yMin="-7" xMax="1436" yMax="1405">
      <contour>
        <pt x="504" y="362" on="1"/>
        <pt x="505" y="355" on="0"/>
        <pt x="507" y="321" on="0"/>
        <pt x="509" y="284" on="0"/>
        <pt x="511" y="250" on="0"/>
        <pt x="512" y="244" on="1"/>
        <pt x="514" y="223" on="0"/>
        <pt x="520" y="183" on="0"/>
        <pt x="532" y="146" on="0"/>
        <pt x="555" y="115" on="0"/>
        <pt x="573" y="104" on="1"/>
        <pt x="616" y="104" on="1"/>
        <pt x="657" y="104" on="1"/>
        <pt x="659" y="105" on="0"/>
        <pt x="672" y="109" on="0"/>
        <pt x="685" y="113" on="0"/>
        <pt x="697" y="118" on="0"/>
        <pt x="699" y="119" on="1"/>
        <pt x="702" y="119" on="0"/>
        <pt x="718" y="121" on="0"/>
        <pt x="736" y="123" on="0"/>
        <pt x="752" y="125" on="0"/>
        <pt x="754" y="125" on="1"/>
        <pt x="786" y="131" on="0"/>
        <pt x="836" y="154" on="0"/>
        <pt x="881" y="185" on="0"/>
        <pt x="924" y="223" on="0"/>
        <pt x="950" y="244" on="1"/>
        <pt x="960" y="252" on="0"/>
        <pt x="978" y="264" on="0"/>
        <pt x="994" y="275" on="0"/>
        <pt x="1011" y="288" on="0"/>
        <pt x="1019" y="298" on="1"/>
        <pt x="1021" y="300" on="0"/>
        <pt x="1026" y="311" on="0"/>
        <pt x="1026" y="313" on="1"/>
        <pt x="1028" y="316" on="0"/>
        <pt x="1048" y="336" on="0"/>
        <pt x="1072" y="359" on="0"/>
        <pt x="1092" y="379" on="0"/>
        <pt x="1095" y="382" on="1"/>
        <pt x="1096" y="384" on="0"/>
        <pt x="1104" y="394" on="0"/>
        <pt x="1113" y="404" on="0"/>
        <pt x="1121" y="414" on="0"/>
        <pt x="1123" y="417" on="1"/>
        <pt x="1134" y="434" on="0"/>
        <pt x="1137" y="470" on="0"/>
        <pt x="1144" y="486" on="1"/>
        <pt x="1145" y="488" on="0"/>
        <pt x="1152" y="498" on="0"/>
        <pt x="1159" y="510" on="0"/>
        <pt x="1165" y="519" on="0"/>
        <pt x="1166" y="521" on="1"/>
        <pt x="1173" y="537" on="0"/>
        <pt x="1184" y="581" on="0"/>
        <pt x="1191" y="628" on="0"/>
        <pt x="1194" y="673" on="0"/>
        <pt x="1194" y="690" on="1"/>
        <pt x="1194" y="694" on="0"/>
        <pt x="1193" y="710" on="0"/>
        <pt x="1193" y="725" on="0"/>
        <pt x="1192" y="736" on="0"/>
        <pt x="1192" y="737" on="1"/>
        <pt x="1192" y="739" on="0"/>
        <pt x="1185" y="754" on="0"/>
        <pt x="1185" y="756" on="1"/>
        <pt x="1185" y="768" on="1"/>
        <pt x="1185" y="782" on="0"/>
        <pt x="1194" y="808" on="0"/>
        <pt x="1194" y="822" on="1"/>
        <pt x="1194" y="847" on="0"/>
        <pt x="1172" y="892" on="0"/>
        <pt x="1143" y="935" on="0"/>
        <pt x="1115" y="978" on="0"/>
        <pt x="1109" y="1002" on="1"/>
        <pt x="1108" y="1002" on="0"/>
        <pt x="1106" y="1012" on="0"/>
        <pt x="1105" y="1023" on="0"/>
        <pt x="1104" y="1034" on="0"/>
        <pt x="1104" y="1036" on="1"/>
        <pt x="1101" y="1040" on="0"/>
        <pt x="1090" y="1058" on="0"/>
        <pt x="1076" y="1078" on="0"/>
        <pt x="1064" y="1096" on="0"/>
        <pt x="1061" y="1099" on="1"/>
        <pt x="1026" y="1108" on="0"/>
        <pt x="978" y="1150" on="0"/>
        <pt x="950" y="1168" on="1"/>
        <pt x="947" y="1169" on="0"/>
        <pt x="935" y="1175" on="0"/>
        <pt x="924" y="1182" on="0"/>
        <pt x="916" y="1187" on="0"/>
        <pt x="915" y="1187" on="1"/>
        <pt x="901" y="1198" on="0"/>
        <pt x="870" y="1230" on="0"/>
        <pt x="853" y="1237" on="1"/>
        <pt x="850" y="1238" on="0"/>
        <pt x="832" y="1244" on="0"/>
        <pt x="810" y="1251" on="0"/>
        <pt x="792" y="1257" on="0"/>
        <pt x="789" y="1258" on="1"/>
        <pt x="787" y="1258" on="0"/>
        <pt x="774" y="1264" on="0"/>
        <pt x="757" y="1272" on="0"/>
        <pt x="743" y="1278" on="0"/>
        <pt x="742" y="1278" on="1"/>
        <pt x="718" y="1278" on="1"/>
        <pt x="657" y="1278" on="1"/>
        <pt x="656" y="1278" on="0"/>
        <pt x="632" y="1284" on="0"/>
        <pt x="630" y="1284" on="1"/>
        <pt x="628" y="1284" on="0"/>
        <pt x="626" y="1285" on="1"/>
        <pt x="622" y="1287" on="0"/>
        <pt x="619" y="1287" on="1"/>
        <pt x="604" y="1287" on="0"/>
        <pt x="571" y="1282" on="0"/>
        <pt x="543" y="1269" on="0"/>
        <pt x="522" y="1247" on="0"/>
        <pt x="519" y="1230" on="1"/>
        <pt x="518" y="1227" on="0"/>
        <pt x="516" y="1209" on="0"/>
        <pt x="514" y="1188" on="0"/>
        <pt x="512" y="1167" on="0"/>
        <pt x="512" y="1161" on="1"/>
        <pt x="512" y="1159" on="0"/>
        <pt x="510" y="1154" on="0"/>
        <pt x="510" y="1152" on="1"/>
        <pt x="510" y="1149" on="0"/>
        <pt x="511" y="1148" on="1"/>
        <pt x="511" y="1146" on="0"/>
        <pt x="512" y="1145" on="1"/>
        <pt x="512" y="1144" on="0"/>
        <pt x="517" y="1128" on="0"/>
        <pt x="519" y="1126" on="1"/>
        <pt x="516" y="938" on="1"/>
        <pt x="516" y="903" on="1"/>
        <pt x="512" y="728" on="1"/>
        <pt x="517" y="722" on="0"/>
        <pt x="519" y="710" on="0"/>
        <pt x="519" y="702" on="1"/>
        <pt x="519" y="680" on="0"/>
        <pt x="506" y="635" on="0"/>
        <pt x="504" y="612" on="1"/>
        <pt x="504" y="590" on="1"/>
        <pt x="504" y="543" on="1"/>
        <pt x="504" y="525" on="0"/>
        <pt x="501" y="488" on="0"/>
        <pt x="498" y="474" on="1"/>
        <pt x="498" y="472" on="0"/>
        <pt x="494" y="459" on="0"/>
        <pt x="488" y="444" on="0"/>
        <pt x="484" y="432" on="0"/>
        <pt x="484" y="431" on="1"/>
        <pt x="484" y="422" on="1"/>
        <pt x="484" y="405" on="0"/>
        <pt x="497" y="375" on="0"/>
      </contour>
      <contour>
        <pt x="303" y="9" on="1"/>
        <pt x="289" y="9" on="0"/>
        <pt x="269" y="7" on="0"/>
        <pt x="256" y="0" on="1"/>
        <pt x="114" y="0" on="1"/>
        <pt x="113" y="0" on="0"/>
        <pt x="104" y="3" on="0"/>
        <pt x="93" y="8" on="0"/>
        <pt x="83" y="14" on="0"/>
        <pt x="80" y="16" on="1"/>
        <pt x="71" y="24" on="0"/>
        <pt x="68" y="45" on="0"/>
        <pt x="68" y="55" on="1"/>
        <pt x="68" y="64" on="1"/>
        <pt x="68" y="69" on="0"/>
        <pt x="69" y="81" on="0"/>
        <pt x="74" y="85" on="1"/>
        <pt x="76" y="86" on="0"/>
        <pt x="100" y="95" on="0"/>
        <pt x="102" y="97" on="1"/>
        <pt x="103" y="98" on="0"/>
        <pt x="111" y="106" on="0"/>
        <pt x="120" y="116" on="0"/>
        <pt x="128" y="124" on="0"/>
        <pt x="130" y="125" on="1"/>
        <pt x="144" y="125" on="1"/>
        <pt x="155" y="125" on="0"/>
        <pt x="173" y="119" on="0"/>
        <pt x="183" y="119" on="1"/>
        <pt x="202" y="119" on="0"/>
        <pt x="236" y="122" on="0"/>
        <pt x="256" y="125" on="1"/>
        <pt x="283" y="130" on="0"/>
        <pt x="306" y="166" on="0"/>
        <pt x="310" y="194" on="1"/>
        <pt x="310" y="196" on="0"/>
        <pt x="313" y="221" on="0"/>
        <pt x="315" y="254" on="0"/>
        <pt x="318" y="287" on="0"/>
        <pt x="318" y="298" on="1"/>
        <pt x="318" y="306" on="1"/>
        <pt x="318" y="313" on="0"/>
        <pt x="316" y="320" on="0"/>
        <pt x="310" y="327" on="1"/>
        <pt x="310" y="379" on="1"/>
        <pt x="310" y="431" on="1"/>
        <pt x="310" y="435" on="0"/>
        <pt x="315" y="470" on="0"/>
        <pt x="321" y="510" on="0"/>
        <pt x="325" y="544" on="0"/>
        <pt x="325" y="548" on="1"/>
        <pt x="325" y="682" on="1"/>
        <pt x="325" y="682" on="0"/>
        <pt x="327" y="691" on="0"/>
        <pt x="329" y="700" on="0"/>
        <pt x="331" y="709" on="0"/>
        <pt x="331" y="709" on="1"/>
        <pt x="331" y="711" on="1"/>
        <pt x="331" y="716" on="1"/>
        <pt x="324" y="755" on="0"/>
        <pt x="310" y="824" on="0"/>
        <pt x="310" y="865" on="1"/>
        <pt x="310" y="917" on="1"/>
        <pt x="310" y="918" on="0"/>
        <pt x="312" y="927" on="0"/>
        <pt x="315" y="936" on="0"/>
        <pt x="318" y="944" on="0"/>
        <pt x="318" y="945" on="1"/>
        <pt x="318" y="1016" on="1"/>
        <pt x="318" y="1041" on="1"/>
        <pt x="318" y="1044" on="0"/>
        <pt x="320" y="1063" on="0"/>
        <pt x="323" y="1084" on="0"/>
        <pt x="325" y="1103" on="0"/>
        <pt x="325" y="1105" on="1"/>
        <pt x="325" y="1169" on="1"/>
        <pt x="325" y="1223" on="1"/>
        <pt x="324" y="1226" on="0"/>
        <pt x="319" y="1244" on="0"/>
        <pt x="312" y="1263" on="0"/>
        <pt x="306" y="1281" on="0"/>
        <pt x="303" y="1284" on="1"/>
        <pt x="297" y="1286" on="0"/>
        <pt x="267" y="1290" on="0"/>
        <pt x="234" y="1295" on="0"/>
        <pt x="205" y="1298" on="0"/>
        <pt x="199" y="1299" on="1"/>
        <pt x="180" y="1301" on="0"/>
        <pt x="141" y="1301" on="0"/>
        <pt x="108" y="1310" on="0"/>
        <pt x="87" y="1335" on="0"/>
        <pt x="87" y="1362" on="1"/>
        <pt x="87" y="1368" on="1"/>
        <pt x="87" y="1373" on="0"/>
        <pt x="89" y="1382" on="0"/>
        <pt x="95" y="1382" on="1"/>
        <pt x="100" y="1383" on="0"/>
        <pt x="126" y="1390" on="0"/>
        <pt x="155" y="1397" on="0"/>
        <pt x="181" y="1402" on="0"/>
        <pt x="187" y="1403" on="1"/>
        <pt x="215" y="1403" on="1"/>
        <pt x="219" y="1403" on="0"/>
        <pt x="229" y="1405" on="0"/>
        <pt x="235" y="1405" on="1"/>
        <pt x="243" y="1405" on="0"/>
        <pt x="257" y="1401" on="0"/>
        <pt x="261" y="1396" on="1"/>
        <pt x="272" y="1395" on="0"/>
        <pt x="326" y="1391" on="0"/>
        <pt x="386" y="1387" on="0"/>
        <pt x="439" y="1383" on="0"/>
        <pt x="450" y="1382" on="1"/>
        <pt x="457" y="1382" on="1"/>
        <pt x="491" y="1382" on="0"/>
        <pt x="554" y="1392" on="0"/>
        <pt x="588" y="1396" on="1"/>
        <pt x="590" y="1396" on="1"/>
        <pt x="595" y="1396" on="1"/>
        <pt x="605" y="1395" on="0"/>
        <pt x="659" y="1391" on="0"/>
        <pt x="719" y="1387" on="0"/>
        <pt x="773" y="1383" on="0"/>
        <pt x="784" y="1382" on="1"/>
        <pt x="785" y="1382" on="0"/>
        <pt x="801" y="1377" on="0"/>
        <pt x="803" y="1375" on="1"/>
        <pt x="811" y="1375" on="1"/>
        <pt x="818" y="1375" on="1"/>
        <pt x="820" y="1375" on="0"/>
        <pt x="842" y="1382" on="0"/>
        <pt x="846" y="1382" on="1"/>
        <pt x="848" y="1384" on="1"/>
        <pt x="849" y="1384" on="0"/>
        <pt x="850" y="1383" on="0"/>
        <pt x="851" y="1383" on="1"/>
        <pt x="852" y="1382" on="0"/>
        <pt x="853" y="1382" on="1"/>
        <pt x="855" y="1382" on="0"/>
        <pt x="872" y="1375" on="0"/>
        <pt x="874" y="1375" on="1"/>
        <pt x="878" y="1375" on="0"/>
        <pt x="910" y="1369" on="0"/>
        <pt x="948" y="1363" on="0"/>
        <pt x="980" y="1357" on="0"/>
        <pt x="984" y="1356" on="1"/>
        <pt x="986" y="1354" on="0"/>
        <pt x="1003" y="1349" on="0"/>
        <pt x="1005" y="1348" on="1"/>
        <pt x="1006" y="1348" on="0"/>
        <pt x="1014" y="1344" on="0"/>
        <pt x="1023" y="1338" on="0"/>
        <pt x="1030" y="1334" on="0"/>
        <pt x="1031" y="1334" on="1"/>
        <pt x="1035" y="1332" on="0"/>
        <pt x="1058" y="1327" on="0"/>
        <pt x="1061" y="1327" on="1"/>
        <pt x="1062" y="1325" on="0"/>
        <pt x="1079" y="1316" on="0"/>
        <pt x="1081" y="1313" on="1"/>
        <pt x="1083" y="1312" on="0"/>
        <pt x="1096" y="1302" on="0"/>
        <pt x="1109" y="1290" on="0"/>
        <pt x="1121" y="1279" on="0"/>
        <pt x="1123" y="1278" on="1"/>
        <pt x="1136" y="1268" on="0"/>
        <pt x="1165" y="1262" on="0"/>
        <pt x="1178" y="1249" on="1"/>
        <pt x="1184" y="1244" on="0"/>
        <pt x="1207" y="1222" on="0"/>
        <pt x="1231" y="1198" on="0"/>
        <pt x="1251" y="1178" on="0"/>
        <pt x="1254" y="1175" on="1"/>
        <pt x="1257" y="1172" on="0"/>
        <pt x="1275" y="1147" on="0"/>
        <pt x="1296" y="1119" on="0"/>
        <pt x="1315" y="1095" on="0"/>
        <pt x="1317" y="1092" on="1"/>
        <pt x="1319" y="1090" on="0"/>
        <pt x="1330" y="1079" on="0"/>
        <pt x="1332" y="1076" on="1"/>
        <pt x="1344" y="1061" on="0"/>
        <pt x="1356" y="1029" on="0"/>
        <pt x="1363" y="996" on="0"/>
        <pt x="1369" y="962" on="0"/>
        <pt x="1374" y="945" on="1"/>
        <pt x="1374" y="944" on="0"/>
        <pt x="1378" y="936" on="0"/>
        <pt x="1382" y="927" on="0"/>
        <pt x="1386" y="918" on="0"/>
        <pt x="1386" y="917" on="1"/>
        <pt x="1388" y="915" on="0"/>
        <pt x="1393" y="900" on="0"/>
        <pt x="1394" y="898" on="1"/>
        <pt x="1402" y="877" on="0"/>
        <pt x="1417" y="851" on="0"/>
        <pt x="1429" y="827" on="0"/>
        <pt x="1436" y="798" on="0"/>
        <pt x="1436" y="773" on="1"/>
        <pt x="1436" y="759" on="0"/>
        <pt x="1427" y="735" on="0"/>
        <pt x="1417" y="711" on="0"/>
        <pt x="1408" y="686" on="0"/>
        <pt x="1408" y="673" on="1"/>
        <pt x="1408" y="650" on="0"/>
        <pt x="1415" y="606" on="0"/>
        <pt x="1415" y="583" on="1"/>
        <pt x="1415" y="555" on="1"/>
        <pt x="1415" y="555" on="0"/>
        <pt x="1411" y="547" on="0"/>
        <pt x="1405" y="538" on="0"/>
        <pt x="1401" y="529" on="0"/>
        <pt x="1401" y="528" on="1"/>
        <pt x="1401" y="516" on="1"/>
        <pt x="1401" y="486" on="1"/>
        <pt x="1400" y="484" on="0"/>
        <pt x="1388" y="467" on="0"/>
        <pt x="1386" y="465" on="1"/>
        <pt x="1375" y="445" on="0"/>
        <pt x="1365" y="395" on="0"/>
        <pt x="1358" y="375" on="1"/>
        <pt x="1351" y="349" on="0"/>
        <pt x="1311" y="308" on="0"/>
        <pt x="1298" y="285" on="1"/>
        <pt x="1275" y="247" on="0"/>
        <pt x="1213" y="173" on="0"/>
        <pt x="1178" y="147" on="1"/>
        <pt x="1177" y="145" on="0"/>
        <pt x="1165" y="139" on="0"/>
        <pt x="1151" y="132" on="0"/>
        <pt x="1139" y="126" on="0"/>
        <pt x="1138" y="125" on="1"/>
        <pt x="1121" y="115" on="0"/>
        <pt x="1093" y="91" on="0"/>
        <pt x="1074" y="85" on="1"/>
        <pt x="1040" y="69" on="0"/>
        <pt x="970" y="46" on="0"/>
        <pt x="943" y="21" on="1"/>
        <pt x="934" y="20" on="0"/>
        <pt x="890" y="17" on="0"/>
        <pt x="842" y="12" on="0"/>
        <pt x="798" y="8" on="0"/>
        <pt x="789" y="7" on="1"/>
        <pt x="787" y="7" on="0"/>
        <pt x="765" y="0" on="0"/>
        <pt x="761" y="0" on="1"/>
        <pt x="754" y="-1" on="0"/>
        <pt x="714" y="-3" on="0"/>
        <pt x="667" y="-5" on="0"/>
        <pt x="625" y="-7" on="0"/>
        <pt x="616" y="-7" on="1"/>
        <pt x="526" y="-7" on="1"/>
        <pt x="441" y="-7" on="1"/>
        <pt x="407" y="-5" on="0"/>
        <pt x="339" y="9" on="0"/>
      </contour>
    </TTGlyph>
    <TTGlyph name="Dcaron" xMin="68" yMin="-7" xMax="1436" yMax="1856">
      <component glyphName="D" x="0" y="0" flags="0x204"/>
      <component glyphName="Caron" x="308" y="0" flags="0x4"/>
    </TTGlyph>
    <TTGlyph name="Dcroat" xMin="68" yMin="-7" xMax="1436" yMax="1405">
      <component glyphName="Eth" x="0" y="0" flags="0x204"/>
    </TTGlyph>
    <TTGlyph name="Dieresis" xMin="251" yMin="1614" xMax="797" yMax="1819">
      <contour>
        <pt x="251" y="1722" on="1"/>
        <pt x="251" y="1733" on="0"/>
        <pt x="256" y="1752" on="0"/>
        <pt x="258" y="1763" on="1"/>
        <pt x="266" y="1786" on="0"/>
        <pt x="289" y="1819" on="0"/>
        <pt x="318" y="1819" on="1"/>
        <pt x="341" y="1819" on="0"/>
        <pt x="383" y="1803" on="0"/>
        <pt x="415" y="1776" on="0"/>
        <pt x="434" y="1737" on="0"/>
        <pt x="434" y="1715" on="1"/>
        <pt x="434" y="1701" on="0"/>
        <pt x="427" y="1667" on="0"/>
        <pt x="412" y="1638" on="0"/>
        <pt x="389" y="1618" on="0"/>
        <pt x="373" y="1618" on="1"/>
        <pt x="333" y="1618" on="0"/>
        <pt x="277" y="1649" on="0"/>
        <pt x="254" y="1680" on="1"/>
      </contour>
      <contour>
        <pt x="612" y="1717" on="1"/>
        <pt x="612" y="1726" on="0"/>
        <pt x="617" y="1747" on="0"/>
        <pt x="619" y="1756" on="1"/>
        <pt x="623" y="1781" on="0"/>
        <pt x="652" y="1819" on="0"/>
        <pt x="681" y="1819" on="1"/>
        <pt x="705" y="1819" on="0"/>
        <pt x="747" y="1802" on="0"/>
        <pt x="778" y="1773" on="0"/>
        <pt x="797" y="1734" on="0"/>
        <pt x="797" y="1713" on="1"/>
        <pt x="797" y="1698" on="0"/>
        <pt x="789" y="1663" on="0"/>
        <pt x="773" y="1634" on="0"/>
        <pt x="749" y="1614" on="0"/>
        <pt x="733" y="1614" on="1"/>
        <pt x="694" y="1614" on="0"/>
        <pt x="638" y="1651" on="0"/>
        <pt x="617" y="1677" on="1"/>
      </contour>
    </TTGlyph>
    <TTGlyph name="Dotaccent" xMin="258" yMin="1578" xMax="519" yMax="1839">
      <contour>
        <pt x="258" y="1704" on="1"/>
        <pt x="258" y="1735" on="0"/>
        <pt x="286" y="1786" on="0"/>
        <pt x="331" y="1820" on="0"/>
        <pt x="387" y="1839" on="0"/>
        <pt x="416" y="1839" on="1"/>
        <pt x="420" y="1838" on="0"/>
        <pt x="437" y="1832" on="0"/>
        <pt x="455" y="1826" on="0"/>
        <pt x="472" y="1820" on="0"/>
        <pt x="475" y="1819" on="1"/>
        <pt x="494" y="1790" on="0"/>
        <pt x="519" y="1745" on="0"/>
        <pt x="519" y="1710" on="1"/>
        <pt x="519" y="1672" on="0"/>
        <pt x="493" y="1611" on="0"/>
        <pt x="455" y="1597" on="1"/>
        <pt x="455" y="1595" on="0"/>
        <pt x="442" y="1589" on="0"/>
        <pt x="425" y="1583" on="0"/>
        <pt x="411" y="1578" on="0"/>
        <pt x="411" y="1578" on="1"/>
        <pt x="401" y="1578" on="1"/>
        <pt x="373" y="1578" on="0"/>
        <pt x="322" y="1595" on="0"/>
        <pt x="282" y="1628" on="0"/>
        <pt x="258" y="1675" on="0"/>
      </contour>
    </TTGlyph>
    <TTGlyph name="E" xMin="68" yMin="-17" xMax="1381" yMax="1375">
      <contour>
        <pt x="510" y="1261" on="1"/>
        <pt x="510" y="1263" on="1"/>
      </contour>
      <contour>
        <pt x="68" y="48" on="1"/>
        <pt x="68" y="62" on="0"/>
        <pt x="94" y="95" on="0"/>
        <pt x="114" y="95" on="1"/>
        <pt x="121" y="95" on="0"/>
        <pt x="145" y="97" on="0"/>
        <pt x="156" y="97" on="1"/>
        <pt x="186" y="97" on="0"/>
        <pt x="209" y="95" on="0"/>
        <pt x="211" y="95" on="1"/>
        <pt x="222" y="95" on="1"/>
        <pt x="235" y="95" on="0"/>
        <pt x="264" y="97" on="0"/>
        <pt x="291" y="103" on="0"/>
        <pt x="312" y="115" on="0"/>
        <pt x="315" y="126" on="1"/>
        <pt x="315" y="176" on="1"/>
        <pt x="315" y="220" on="0"/>
        <pt x="318" y="302" on="0"/>
        <pt x="322" y="343" on="1"/>
        <pt x="324" y="353" on="0"/>
        <pt x="328" y="372" on="0"/>
        <pt x="332" y="386" on="1"/>
        <pt x="331" y="389" on="0"/>
        <pt x="331" y="401" on="1"/>
        <pt x="331" y="423" on="0"/>
        <pt x="332" y="454" on="0"/>
        <pt x="334" y="481" on="1"/>
        <pt x="334" y="485" on="0"/>
        <pt x="336" y="491" on="0"/>
        <pt x="337" y="493" on="1"/>
        <pt x="337" y="513" on="0"/>
        <pt x="339" y="553" on="0"/>
        <pt x="341" y="573" on="1"/>
        <pt x="339" y="578" on="0"/>
        <pt x="336" y="603" on="0"/>
        <pt x="334" y="611" on="1"/>
        <pt x="333" y="615" on="0"/>
        <pt x="331" y="635" on="0"/>
        <pt x="329" y="655" on="0"/>
        <pt x="327" y="671" on="0"/>
        <pt x="327" y="673" on="1"/>
        <pt x="327" y="784" on="1"/>
        <pt x="325" y="786" on="0"/>
        <pt x="322" y="807" on="0"/>
        <pt x="322" y="818" on="1"/>
        <pt x="323" y="828" on="0"/>
        <pt x="324" y="864" on="0"/>
        <pt x="326" y="899" on="0"/>
        <pt x="327" y="926" on="0"/>
        <pt x="327" y="927" on="1"/>
        <pt x="327" y="929" on="0"/>
        <pt x="329" y="939" on="0"/>
        <pt x="331" y="943" on="1"/>
        <pt x="332" y="948" on="0"/>
        <pt x="334" y="958" on="0"/>
        <pt x="334" y="960" on="1"/>
        <pt x="334" y="968" on="0"/>
        <pt x="330" y="986" on="0"/>
        <pt x="327" y="995" on="1"/>
        <pt x="322" y="1012" on="0"/>
        <pt x="322" y="1029" on="1"/>
        <pt x="322" y="1043" on="0"/>
        <pt x="322" y="1074" on="0"/>
        <pt x="324" y="1088" on="1"/>
        <pt x="325" y="1102" on="0"/>
        <pt x="327" y="1133" on="0"/>
        <pt x="327" y="1147" on="1"/>
        <pt x="327" y="1158" on="0"/>
        <pt x="325" y="1189" on="0"/>
        <pt x="324" y="1206" on="1"/>
        <pt x="322" y="1222" on="0"/>
        <pt x="322" y="1248" on="0"/>
        <pt x="322" y="1256" on="1"/>
        <pt x="317" y="1268" on="0"/>
        <pt x="291" y="1282" on="0"/>
        <pt x="258" y="1291" on="0"/>
        <pt x="225" y="1294" on="0"/>
        <pt x="215" y="1294" on="1"/>
        <pt x="210" y="1294" on="0"/>
        <pt x="197" y="1291" on="0"/>
        <pt x="192" y="1289" on="1"/>
        <pt x="185" y="1287" on="0"/>
        <pt x="174" y="1285" on="0"/>
        <pt x="166" y="1285" on="1"/>
        <pt x="154" y="1285" on="0"/>
        <pt x="120" y="1290" on="0"/>
        <pt x="89" y="1302" on="0"/>
        <pt x="68" y="1322" on="0"/>
        <pt x="68" y="1337" on="1"/>
        <pt x="68" y="1349" on="0"/>
        <pt x="70" y="1363" on="0"/>
        <pt x="78" y="1365" on="1"/>
        <pt x="85" y="1367" on="0"/>
        <pt x="117" y="1374" on="0"/>
        <pt x="130" y="1375" on="1"/>
        <pt x="139" y="1374" on="0"/>
        <pt x="189" y="1372" on="0"/>
        <pt x="218" y="1370" on="1"/>
        <pt x="245" y="1368" on="0"/>
        <pt x="297" y="1367" on="0"/>
        <pt x="308" y="1367" on="1"/>
        <pt x="322" y="1362" on="0"/>
        <pt x="348" y="1360" on="0"/>
        <pt x="374" y="1360" on="1"/>
        <pt x="379" y="1361" on="0"/>
        <pt x="383" y="1362" on="1"/>
        <pt x="398" y="1365" on="1"/>
        <pt x="402" y="1367" on="0"/>
        <pt x="405" y="1367" on="0"/>
        <pt x="410" y="1367" on="1"/>
        <pt x="528" y="1367" on="1"/>
        <pt x="529" y="1367" on="0"/>
        <pt x="540" y="1368" on="0"/>
        <pt x="547" y="1370" on="1"/>
        <pt x="552" y="1372" on="0"/>
        <pt x="562" y="1374" on="0"/>
        <pt x="566" y="1375" on="1"/>
        <pt x="870" y="1375" on="1"/>
        <pt x="875" y="1375" on="0"/>
        <pt x="919" y="1373" on="0"/>
        <pt x="941" y="1370" on="1"/>
        <pt x="959" y="1367" on="0"/>
        <pt x="971" y="1367" on="1"/>
        <pt x="998" y="1367" on="0"/>
        <pt x="1024" y="1370" on="1"/>
        <pt x="1038" y="1372" on="0"/>
        <pt x="1063" y="1375" on="0"/>
        <pt x="1076" y="1375" on="1"/>
        <pt x="1103" y="1375" on="0"/>
        <pt x="1145" y="1368" on="0"/>
        <pt x="1145" y="1367" on="1"/>
        <pt x="1148" y="1367" on="0"/>
        <pt x="1167" y="1365" on="0"/>
        <pt x="1189" y="1363" on="0"/>
        <pt x="1207" y="1361" on="0"/>
        <pt x="1209" y="1360" on="1"/>
        <pt x="1226" y="1356" on="0"/>
        <pt x="1245" y="1321" on="0"/>
        <pt x="1247" y="1308" on="1"/>
        <pt x="1252" y="1285" on="0"/>
        <pt x="1254" y="1253" on="0"/>
        <pt x="1254" y="1233" on="1"/>
        <pt x="1254" y="1202" on="0"/>
        <pt x="1254" y="1161" on="0"/>
        <pt x="1252" y="1134" on="0"/>
        <pt x="1250" y="1117" on="0"/>
        <pt x="1249" y="1109" on="1"/>
        <pt x="1247" y="1092" on="0"/>
        <pt x="1242" y="1061" on="0"/>
        <pt x="1242" y="1059" on="1"/>
        <pt x="1242" y="1031" on="1"/>
        <pt x="1242" y="1022" on="0"/>
        <pt x="1238" y="1004" on="0"/>
        <pt x="1232" y="996" on="1"/>
        <pt x="1229" y="995" on="0"/>
        <pt x="1214" y="995" on="0"/>
        <pt x="1211" y="995" on="1"/>
        <pt x="1193" y="995" on="0"/>
        <pt x="1152" y="1033" on="0"/>
        <pt x="1114" y="1084" on="0"/>
        <pt x="1083" y="1135" on="0"/>
        <pt x="1076" y="1149" on="1"/>
        <pt x="1074" y="1154" on="0"/>
        <pt x="1064" y="1178" on="0"/>
        <pt x="1057" y="1192" on="1"/>
        <pt x="1052" y="1204" on="0"/>
        <pt x="1039" y="1233" on="0"/>
        <pt x="1036" y="1235" on="1"/>
        <pt x="1031" y="1243" on="0"/>
        <pt x="1006" y="1266" on="0"/>
        <pt x="993" y="1266" on="1"/>
        <pt x="820" y="1266" on="1"/>
        <pt x="790" y="1277" on="0"/>
        <pt x="722" y="1280" on="0"/>
        <pt x="687" y="1282" on="1"/>
        <pt x="669" y="1282" on="0"/>
        <pt x="633" y="1284" on="0"/>
        <pt x="616" y="1285" on="1"/>
        <pt x="607" y="1285" on="0"/>
        <pt x="591" y="1290" on="0"/>
        <pt x="583" y="1292" on="1"/>
        <pt x="575" y="1295" on="0"/>
        <pt x="556" y="1301" on="0"/>
        <pt x="547" y="1301" on="1"/>
        <pt x="539" y="1301" on="0"/>
        <pt x="522" y="1281" on="0"/>
        <pt x="517" y="1273" on="1"/>
        <pt x="512" y="1268" on="0"/>
        <pt x="512" y="1265" on="1"/>
        <pt x="514" y="1254" on="0"/>
        <pt x="514" y="1204" on="0"/>
        <pt x="514" y="1178" on="1"/>
        <pt x="514" y="1151" on="0"/>
        <pt x="514" y="1101" on="0"/>
        <pt x="512" y="1092" on="1"/>
        <pt x="512" y="1072" on="0"/>
        <pt x="507" y="1059" on="1"/>
        <pt x="505" y="1050" on="0"/>
        <pt x="500" y="1031" on="0"/>
        <pt x="500" y="1017" on="1"/>
        <pt x="502" y="1009" on="0"/>
        <pt x="506" y="988" on="0"/>
        <pt x="509" y="979" on="1"/>
        <pt x="514" y="961" on="0"/>
        <pt x="521" y="923" on="0"/>
        <pt x="521" y="900" on="1"/>
        <pt x="521" y="888" on="0"/>
        <pt x="519" y="863" on="0"/>
        <pt x="517" y="849" on="1"/>
        <pt x="512" y="798" on="1"/>
        <pt x="512" y="763" on="1"/>
        <pt x="517" y="754" on="1"/>
        <pt x="517" y="753" on="0"/>
        <pt x="548" y="751" on="0"/>
        <pt x="557" y="751" on="1"/>
        <pt x="562" y="749" on="0"/>
        <pt x="591" y="749" on="0"/>
        <pt x="609" y="749" on="1"/>
        <pt x="626" y="749" on="0"/>
        <pt x="656" y="749" on="0"/>
        <pt x="663" y="751" on="1"/>
        <pt x="664" y="751" on="0"/>
        <pt x="666" y="749" on="0"/>
        <pt x="668" y="749" on="1"/>
        <pt x="676" y="744" on="0"/>
        <pt x="690" y="742" on="0"/>
        <pt x="699" y="742" on="1"/>
        <pt x="707" y="742" on="0"/>
        <pt x="722" y="744" on="0"/>
        <pt x="730" y="746" on="1"/>
        <pt x="738" y="747" on="0"/>
        <pt x="751" y="751" on="0"/>
        <pt x="765" y="751" on="1"/>
        <pt x="770" y="750" on="0"/>
        <pt x="775" y="749" on="1"/>
        <pt x="780" y="748" on="0"/>
        <pt x="789" y="746" on="0"/>
        <pt x="792" y="746" on="1"/>
        <pt x="799" y="744" on="0"/>
        <pt x="812" y="742" on="0"/>
        <pt x="818" y="742" on="1"/>
        <pt x="830" y="742" on="0"/>
        <pt x="849" y="756" on="0"/>
        <pt x="862" y="777" on="0"/>
        <pt x="870" y="802" on="0"/>
        <pt x="872" y="813" on="1"/>
        <pt x="872" y="817" on="0"/>
        <pt x="873" y="840" on="0"/>
        <pt x="875" y="866" on="0"/>
        <pt x="877" y="887" on="0"/>
        <pt x="879" y="889" on="1"/>
        <pt x="884" y="903" on="0"/>
        <pt x="891" y="918" on="0"/>
        <pt x="891" y="915" on="1"/>
        <pt x="891" y="924" on="1"/>
        <pt x="893" y="933" on="0"/>
        <pt x="898" y="958" on="0"/>
        <pt x="910" y="962" on="1"/>
        <pt x="911" y="963" on="0"/>
        <pt x="920" y="967" on="0"/>
        <pt x="932" y="971" on="0"/>
        <pt x="943" y="974" on="0"/>
        <pt x="946" y="974" on="1"/>
        <pt x="966" y="974" on="0"/>
        <pt x="991" y="948" on="0"/>
        <pt x="995" y="938" on="1"/>
        <pt x="995" y="701" on="1"/>
        <pt x="995" y="698" on="0"/>
        <pt x="995" y="678" on="0"/>
        <pt x="997" y="666" on="1"/>
        <pt x="998" y="654" on="0"/>
        <pt x="1000" y="634" on="0"/>
        <pt x="1000" y="631" on="1"/>
        <pt x="1000" y="625" on="0"/>
        <pt x="994" y="585" on="0"/>
        <pt x="990" y="562" on="1"/>
        <pt x="985" y="540" on="0"/>
        <pt x="981" y="504" on="0"/>
        <pt x="981" y="500" on="1"/>
        <pt x="978" y="489" on="0"/>
        <pt x="978" y="476" on="1"/>
        <pt x="976" y="462" on="0"/>
        <pt x="972" y="432" on="0"/>
        <pt x="962" y="408" on="0"/>
        <pt x="942" y="393" on="0"/>
        <pt x="924" y="393" on="1"/>
        <pt x="908" y="393" on="0"/>
        <pt x="888" y="410" on="0"/>
        <pt x="878" y="435" on="0"/>
        <pt x="874" y="465" on="0"/>
        <pt x="874" y="479" on="1"/>
        <pt x="874" y="482" on="0"/>
        <pt x="872" y="491" on="0"/>
        <pt x="872" y="493" on="1"/>
        <pt x="868" y="512" on="0"/>
        <pt x="858" y="558" on="0"/>
        <pt x="839" y="599" on="0"/>
        <pt x="810" y="628" on="0"/>
        <pt x="787" y="631" on="1"/>
        <pt x="749" y="635" on="1"/>
        <pt x="732" y="637" on="0"/>
        <pt x="693" y="638" on="0"/>
        <pt x="683" y="640" on="1"/>
        <pt x="666" y="640" on="0"/>
        <pt x="638" y="638" on="0"/>
        <pt x="626" y="638" on="1"/>
        <pt x="615" y="638" on="0"/>
        <pt x="601" y="638" on="0"/>
        <pt x="599" y="640" on="1"/>
        <pt x="592" y="640" on="0"/>
        <pt x="588" y="642" on="1"/>
        <pt x="577" y="645" on="0"/>
        <pt x="574" y="645" on="1"/>
        <pt x="557" y="645" on="1"/>
        <pt x="546" y="645" on="0"/>
        <pt x="534" y="639" on="0"/>
        <pt x="529" y="635" on="1"/>
        <pt x="527" y="633" on="0"/>
        <pt x="522" y="630" on="0"/>
        <pt x="519" y="628" on="1"/>
        <pt x="515" y="626" on="0"/>
        <pt x="512" y="625" on="1"/>
        <pt x="483" y="625" on="1"/>
        <pt x="484" y="618" on="0"/>
        <pt x="484" y="603" on="0"/>
        <pt x="484" y="597" on="1"/>
        <pt x="484" y="592" on="0"/>
        <pt x="483" y="587" on="0"/>
        <pt x="481" y="583" on="1"/>
        <pt x="479" y="576" on="0"/>
        <pt x="472" y="561" on="0"/>
        <pt x="472" y="557" on="1"/>
        <pt x="472" y="555" on="0"/>
        <pt x="474" y="543" on="0"/>
        <pt x="476" y="536" on="1"/>
        <pt x="478" y="531" on="0"/>
        <pt x="478" y="526" on="1"/>
        <pt x="479" y="523" on="0"/>
        <pt x="481" y="508" on="0"/>
        <pt x="482" y="491" on="0"/>
        <pt x="484" y="475" on="0"/>
        <pt x="484" y="471" on="1"/>
        <pt x="486" y="469" on="0"/>
        <pt x="486" y="464" on="0"/>
        <pt x="486" y="462" on="1"/>
        <pt x="486" y="460" on="1"/>
        <pt x="493" y="456" on="0"/>
        <pt x="493" y="455" on="1"/>
        <pt x="498" y="441" on="0"/>
        <pt x="505" y="410" on="0"/>
        <pt x="507" y="393" on="1"/>
        <pt x="508" y="386" on="0"/>
        <pt x="509" y="344" on="0"/>
        <pt x="511" y="295" on="0"/>
        <pt x="512" y="250" on="0"/>
        <pt x="512" y="240" on="1"/>
        <pt x="512" y="137" on="1"/>
        <pt x="514" y="117" on="0"/>
        <pt x="537" y="96" on="0"/>
        <pt x="570" y="85" on="0"/>
        <pt x="607" y="83" on="0"/>
        <pt x="623" y="83" on="1"/>
        <pt x="657" y="83" on="1"/>
        <pt x="662" y="85" on="0"/>
        <pt x="705" y="88" on="0"/>
        <pt x="753" y="88" on="1"/>
        <pt x="757" y="88" on="0"/>
        <pt x="767" y="90" on="0"/>
        <pt x="773" y="90" on="1"/>
        <pt x="790" y="92" on="0"/>
        <pt x="829" y="95" on="0"/>
        <pt x="834" y="97" on="1"/>
        <pt x="836" y="97" on="0"/>
        <pt x="838" y="98" on="1"/>
        <pt x="840" y="99" on="0"/>
        <pt x="844" y="100" on="0"/>
        <pt x="846" y="102" on="1"/>
        <pt x="854" y="105" on="0"/>
        <pt x="857" y="107" on="0"/>
        <pt x="862" y="109" on="1"/>
        <pt x="867" y="109" on="0"/>
        <pt x="892" y="98" on="0"/>
        <pt x="894" y="95" on="1"/>
        <pt x="900" y="94" on="0"/>
        <pt x="918" y="93" on="0"/>
        <pt x="937" y="93" on="0"/>
        <pt x="953" y="93" on="0"/>
        <pt x="957" y="93" on="1"/>
        <pt x="963" y="93" on="0"/>
        <pt x="982" y="93" on="0"/>
        <pt x="1002" y="93" on="0"/>
        <pt x="1017" y="94" on="0"/>
        <pt x="1017" y="95" on="1"/>
        <pt x="1018" y="95" on="0"/>
        <pt x="1019" y="96" on="1"/>
        <pt x="1020" y="96" on="0"/>
        <pt x="1022" y="97" on="0"/>
        <pt x="1023" y="97" on="1"/>
        <pt x="1043" y="97" on="0"/>
        <pt x="1063" y="104" on="0"/>
        <pt x="1074" y="111" on="1"/>
        <pt x="1082" y="117" on="0"/>
        <pt x="1084" y="118" on="1"/>
        <pt x="1086" y="119" on="0"/>
        <pt x="1087" y="119" on="1"/>
        <pt x="1085" y="119" on="1"/>
        <pt x="1099" y="126" on="0"/>
        <pt x="1114" y="128" on="0"/>
        <pt x="1121" y="130" on="1"/>
        <pt x="1132" y="132" on="0"/>
        <pt x="1150" y="138" on="0"/>
        <pt x="1154" y="142" on="1"/>
        <pt x="1156" y="144" on="0"/>
        <pt x="1160" y="146" on="0"/>
        <pt x="1163" y="149" on="1"/>
        <pt x="1168" y="153" on="0"/>
        <pt x="1180" y="164" on="0"/>
        <pt x="1192" y="174" on="0"/>
        <pt x="1201" y="182" on="0"/>
        <pt x="1202" y="183" on="1"/>
        <pt x="1204" y="185" on="0"/>
        <pt x="1205" y="187" on="0"/>
        <pt x="1208" y="194" on="1"/>
        <pt x="1213" y="207" on="0"/>
        <pt x="1215" y="209" on="1"/>
        <pt x="1224" y="230" on="0"/>
        <pt x="1240" y="265" on="0"/>
        <pt x="1261" y="295" on="0"/>
        <pt x="1290" y="319" on="0"/>
        <pt x="1311" y="329" on="1"/>
        <pt x="1314" y="329" on="0"/>
        <pt x="1318" y="331" on="0"/>
        <pt x="1327" y="336" on="1"/>
        <pt x="1329" y="337" on="0"/>
        <pt x="1336" y="340" on="0"/>
        <pt x="1338" y="341" on="1"/>
        <pt x="1344" y="343" on="1"/>
        <pt x="1348" y="343" on="0"/>
        <pt x="1365" y="328" on="0"/>
        <pt x="1365" y="324" on="1"/>
        <pt x="1365" y="289" on="1"/>
        <pt x="1365" y="288" on="0"/>
        <pt x="1370" y="273" on="1"/>
        <pt x="1374" y="264" on="0"/>
        <pt x="1381" y="245" on="0"/>
        <pt x="1381" y="240" on="1"/>
        <pt x="1381" y="211" on="1"/>
        <pt x="1381" y="181" on="0"/>
        <pt x="1376" y="109" on="0"/>
        <pt x="1374" y="86" on="1"/>
        <pt x="1368" y="58" on="0"/>
        <pt x="1334" y="27" on="0"/>
        <pt x="1289" y="11" on="0"/>
        <pt x="1238" y="7" on="0"/>
        <pt x="1215" y="7" on="1"/>
        <pt x="1128" y="7" on="1"/>
        <pt x="1119" y="14" on="0"/>
        <pt x="1104" y="16" on="0"/>
        <pt x="1093" y="16" on="1"/>
        <pt x="1092" y="16" on="0"/>
        <pt x="1089" y="15" on="0"/>
        <pt x="1078" y="12" on="1"/>
        <pt x="1067" y="8" on="0"/>
        <pt x="1061" y="7" on="0"/>
        <pt x="1059" y="7" on="1"/>
        <pt x="1053" y="5" on="0"/>
        <pt x="1025" y="3" on="0"/>
        <pt x="995" y="1" on="0"/>
        <pt x="969" y="0" on="0"/>
        <pt x="965" y="0" on="1"/>
        <pt x="486" y="0" on="1"/>
        <pt x="475" y="0" on="0"/>
        <pt x="457" y="4" on="0"/>
        <pt x="448" y="7" on="1"/>
        <pt x="439" y="9" on="0"/>
        <pt x="420" y="16" on="0"/>
        <pt x="415" y="16" on="1"/>
        <pt x="413" y="16" on="0"/>
        <pt x="409" y="15" on="0"/>
        <pt x="400" y="12" on="1"/>
        <pt x="398" y="12" on="0"/>
        <pt x="389" y="10" on="0"/>
        <pt x="384" y="9" on="1"/>
        <pt x="379" y="7" on="0"/>
        <pt x="370" y="7" on="0"/>
        <pt x="369" y="7" on="1"/>
        <pt x="364" y="7" on="0"/>
        <pt x="339" y="2" on="0"/>
        <pt x="322" y="-2" on="1"/>
        <pt x="301" y="-6" on="0"/>
        <pt x="263" y="-14" on="0"/>
        <pt x="253" y="-14" on="1"/>
        <pt x="232" y="-14" on="1"/>
        <pt x="93" y="-17" on="1"/>
        <pt x="91" y="-17" on="0"/>
        <pt x="83" y="-1" on="0"/>
        <pt x="76" y="20" on="0"/>
        <pt x="69" y="42" on="0"/>
        <pt x="68" y="47" on="1"/>
      </contour>
    </TTGlyph>
    <TTGlyph name="Eacute" xMin="68" yMin="-17" xMax="1381" yMax="1829">
      <component glyphName="E" x="0" y="0" flags="0x204"/>
      <component glyphName="Acute" x="257" y="-39" flags="0x4"/>
    </TTGlyph>
    <TTGlyph name="Ecaron" xMin="68" yMin="-17" xMax="1381" yMax="1817">
      <component glyphName="E" x="0" y="0" flags="0x204"/>
      <component glyphName="Caron" x="360" y="-39" flags="0x4"/>
    </TTGlyph>
    <TTGlyph name="Ecircumflex" xMin="68" yMin="-17" xMax="1381" yMax="1820">
      <component glyphName="E" x="0" y="0" flags="0x204"/>
      <component glyphName="Circumflex" x="238" y="-39" flags="0x4"/>
    </TTGlyph>
    <TTGlyph name="Edieresis" xMin="68" yMin="-17" xMax="1381" yMax="1780">
      <component glyphName="E" x="0" y="0" flags="0x204"/>
      <component glyphName="Dieresis" x="209" y="-39" flags="0x4"/>
    </TTGlyph>
    <TTGlyph name="Edotaccent" xMin="68" yMin="-17" xMax="1381" yMax="1820">
      <component glyphName="E" x="0" y="0" flags="0x204"/>
      <component glyphName="Dotaccent" x="330" y="-19" flags="0x4"/>
    </TTGlyph>
    <TTGlyph name="Egrave" xMin="68" yMin="-17" xMax="1381" yMax="1829">
      <component glyphName="E" x="0" y="0" flags="0x204"/>
      <component glyphName="Grave" x="193" y="-39" flags="0x4"/>
    </TTGlyph>
    <TTGlyph name="Emacron" xMin="68" yMin="-17" xMax="1381" yMax="1703">
      <component glyphName="E" x="0" y="0" flags="0x204"/>
      <component glyphName="Macron" x="282" y="-39" flags="0x4"/>
    </TTGlyph>
    <TTGlyph name="Eogonek" xMin="68" yMin="-431" xMax="1402" yMax="1375">
      <contour>
        <pt x="68" y="48" on="1"/>
        <pt x="68" y="62" on="0"/>
        <pt x="94" y="95" on="0"/>
        <pt x="114" y="95" on="1"/>
        <pt x="121" y="95" on="0"/>
        <pt x="145" y="97" on="0"/>
        <pt x="156" y="97" on="1"/>
        <pt x="186" y="97" on="0"/>
        <pt x="209" y="95" on="0"/>
        <pt x="211" y="95" on="1"/>
        <pt x="222" y="95" on="1"/>
        <pt x="235" y="95" on="0"/>
        <pt x="264" y="97" on="0"/>
        <pt x="291" y="103" on="0"/>
        <pt x="312" y="115" on="0"/>
        <pt x="315" y="126" on="1"/>
        <pt x="315" y="176" on="1"/>
        <pt x="315" y="220" on="0"/>
        <pt x="318" y="302" on="0"/>
        <pt x="322" y="343" on="1"/>
        <pt x="324" y="353" on="0"/>
        <pt x="328" y="372" on="0"/>
        <pt x="332" y="386" on="1"/>
        <pt x="331" y="389" on="0"/>
        <pt x="331" y="401" on="1"/>
        <pt x="331" y="423" on="0"/>
        <pt x="332" y="454" on="0"/>
        <pt x="334" y="481" on="1"/>
        <pt x="334" y="485" on="0"/>
        <pt x="336" y="491" on="0"/>
        <pt x="337" y="493" on="1"/>
        <pt x="337" y="513" on="0"/>
        <pt x="339" y="553" on="0"/>
        <pt x="341" y="573" on="1"/>
        <pt x="339" y="578" on="0"/>
        <pt x="336" y="603" on="0"/>
        <pt x="334" y="611" on="1"/>
        <pt x="333" y="615" on="0"/>
        <pt x="331" y="635" on="0"/>
        <pt x="329" y="655" on="0"/>
        <pt x="327" y="671" on="0"/>
        <pt x="327" y="673" on="1"/>
        <pt x="327" y="784" on="1"/>
        <pt x="325" y="786" on="0"/>
        <pt x="322" y="807" on="0"/>
        <pt x="322" y="818" on="1"/>
        <pt x="323" y="828" on="0"/>
        <pt x="324" y="864" on="0"/>
        <pt x="326" y="899" on="0"/>
        <pt x="327" y="926" on="0"/>
        <pt x="327" y="927" on="1"/>
        <pt x="327" y="929" on="0"/>
        <pt x="329" y="939" on="0"/>
        <pt x="331" y="943" on="1"/>
        <pt x="332" y="948" on="0"/>
        <pt x="334" y="958" on="0"/>
        <pt x="334" y="960" on="1"/>
        <pt x="334" y="968" on="0"/>
        <pt x="330" y="986" on="0"/>
        <pt x="327" y="995" on="1"/>
        <pt x="322" y="1012" on="0"/>
        <pt x="322" y="1029" on="1"/>
        <pt x="322" y="1043" on="0"/>
        <pt x="322" y="1074" on="0"/>
        <pt x="324" y="1088" on="1"/>
        <pt x="325" y="1102" on="0"/>
        <pt x="327" y="1133" on="0"/>
        <pt x="327" y="1147" on="1"/>
        <pt x="327" y="1158" on="0"/>
        <pt x="325" y="1189" on="0"/>
        <pt x="324" y="1206" on="1"/>
        <pt x="322" y="1222" on="0"/>
        <pt x="322" y="1248" on="0"/>
        <pt x="322" y="1256" on="1"/>
        <pt x="317" y="1268" on="0"/>
        <pt x="291" y="1282" on="0"/>
        <pt x="258" y="1291" on="0"/>
        <pt x="225" y="1294" on="0"/>
        <pt x="215" y="1294" on="1"/>
        <pt x="210" y="1294" on="0"/>
        <pt x="197" y="1291" on="0"/>
        <pt x="192" y="1289" on="1"/>
        <pt x="185" y="1287" on="0"/>
        <pt x="174" y="1285" on="0"/>
        <pt x="166" y="1285" on="1"/>
        <pt x="154" y="1285" on="0"/>
        <pt x="120" y="1290" on="0"/>
        <pt x="89" y="1302" on="0"/>
        <pt x="68" y="1322" on="0"/>
        <pt x="68" y="1337" on="1"/>
        <pt x="68" y="1349" on="0"/>
        <pt x="70" y="1363" on="0"/>
        <pt x="78" y="1365" on="1"/>
        <pt x="85" y="1367" on="0"/>
        <pt x="117" y="1374" on="0"/>
        <pt x="130" y="1375" on="1"/>
        <pt x="139" y="1374" on="0"/>
        <pt x="189" y="1372" on="0"/>
        <pt x="218" y="1370" on="1"/>
        <pt x="245" y="1368" on="0"/>
        <pt x="297" y="1367" on="0"/>
        <pt x="308" y="1367" on="1"/>
        <pt x="322" y="1362" on="0"/>
        <pt x="348" y="1360" on="0"/>
        <pt x="374" y="1360" on="1"/>
        <pt x="379" y="1361" on="0"/>
        <pt x="383" y="1362" on="1"/>
        <pt x="398" y="1365" on="1"/>
        <pt x="402" y="1367" on="0"/>
        <pt x="405" y="1367" on="0"/>
        <pt x="410" y="1367" on="1"/>
        <pt x="528" y="1367" on="1"/>
        <pt x="529" y="1367" on="0"/>
        <pt x="540" y="1368" on="0"/>
        <pt x="547" y="1370" on="1"/>
        <pt x="552" y="1372" on="0"/>
        <pt x="562" y="1374" on="0"/>
        <pt x="566" y="1375" on="1"/>
        <pt x="870" y="1375" on="1"/>
        <pt x="875" y="1375" on="0"/>
        <pt x="919" y="1373" on="0"/>
        <pt x="941" y="1370" on="1"/>
        <pt x="959" y="1367" on="0"/>
        <pt x="971" y="1367" on="1"/>
        <pt x="998" y="1367" on="0"/>
        <pt x="1024" y="1370" on="1"/>
        <pt x="1038" y="1372" on="0"/>
        <pt x="1063" y="1375" on="0"/>
        <pt x="1076" y="1375" on="1"/>
        <pt x="1103" y="1375" on="0"/>
        <pt x="1145" y="1368" on="0"/>
        <pt x="1145" y="1367" on="1"/>
        <pt x="1148" y="1367" on="0"/>
        <pt x="1167" y="1365" on="0"/>
        <pt x="1189" y="1363" on="0"/>
        <pt x="1207" y="1361" on="0"/>
        <pt x="1209" y="1360" on="1"/>
        <pt x="1226" y="1356" on="0"/>
        <pt x="1245" y="1321" on="0"/>
        <pt x="1247" y="1308" on="1"/>
        <pt x="1252" y="1285" on="0"/>
        <pt x="1254" y="1253" on="0"/>
        <pt x="1254" y="1233" on="1"/>
        <pt x="1254" y="1202" on="0"/>
        <pt x="1254" y="1161" on="0"/>
        <pt x="1252" y="1134" on="0"/>
        <pt x="1250" y="1117" on="0"/>
        <pt x="1249" y="1109" on="1"/>
        <pt x="1247" y="1092" on="0"/>
        <pt x="1242" y="1061" on="0"/>
        <pt x="1242" y="1059" on="1"/>
        <pt x="1242" y="1031" on="1"/>
        <pt x="1242" y="1022" on="0"/>
        <pt x="1238" y="1004" on="0"/>
        <pt x="1232" y="996" on="1"/>
        <pt x="1229" y="995" on="0"/>
        <pt x="1214" y="995" on="0"/>
        <pt x="1211" y="995" on="1"/>
        <pt x="1193" y="995" on="0"/>
        <pt x="1152" y="1033" on="0"/>
        <pt x="1114" y="1084" on="0"/>
        <pt x="1083" y="1135" on="0"/>
        <pt x="1076" y="1149" on="1"/>
        <pt x="1074" y="1154" on="0"/>
        <pt x="1064" y="1178" on="0"/>
        <pt x="1057" y="1192" on="1"/>
        <pt x="1052" y="1204" on="0"/>
        <pt x="1039" y="1233" on="0"/>
        <pt x="1036" y="1235" on="1"/>
        <pt x="1031" y="1243" on="0"/>
        <pt x="1006" y="1266" on="0"/>
        <pt x="993" y="1266" on="1"/>
        <pt x="820" y="1266" on="1"/>
        <pt x="790" y="1277" on="0"/>
        <pt x="722" y="1280" on="0"/>
        <pt x="687" y="1282" on="1"/>
        <pt x="669" y="1282" on="0"/>
        <pt x="633" y="1284" on="0"/>
        <pt x="616" y="1285" on="1"/>
        <pt x="607" y="1285" on="0"/>
        <pt x="591" y="1290" on="0"/>
        <pt x="583" y="1292" on="1"/>
        <pt x="575" y="1295" on="0"/>
        <pt x="556" y="1301" on="0"/>
        <pt x="547" y="1301" on="1"/>
        <pt x="539" y="1301" on="0"/>
        <pt x="522" y="1281" on="0"/>
        <pt x="517" y="1273" on="1"/>
        <pt x="512" y="1268" on="0"/>
        <pt x="512" y="1265" on="1"/>
        <pt x="514" y="1254" on="0"/>
        <pt x="514" y="1204" on="0"/>
        <pt x="514" y="1178" on="1"/>
        <pt x="514" y="1151" on="0"/>
        <pt x="514" y="1101" on="0"/>
        <pt x="512" y="1092" on="1"/>
        <pt x="512" y="1072" on="0"/>
        <pt x="507" y="1059" on="1"/>
        <pt x="505" y="1050" on="0"/>
        <pt x="500" y="1031" on="0"/>
        <pt x="500" y="1017" on="1"/>
        <pt x="502" y="1009" on="0"/>
        <pt x="506" y="988" on="0"/>
        <pt x="509" y="979" on="1"/>
        <pt x="514" y="961" on="0"/>
        <pt x="521" y="923" on="0"/>
        <pt x="521" y="900" on="1"/>
        <pt x="521" y="888" on="0"/>
        <pt x="519" y="863" on="0"/>
        <pt x="517" y="849" on="1"/>
        <pt x="512" y="798" on="1"/>
        <pt x="512" y="763" on="1"/>
        <pt x="517" y="754" on="1"/>
        <pt x="517" y="753" on="0"/>
        <pt x="548" y="751" on="0"/>
        <pt x="557" y="751" on="1"/>
        <pt x="562" y="749" on="0"/>
        <pt x="591" y="749" on="0"/>
        <pt x="609" y="749" on="1"/>
        <pt x="626" y="749" on="0"/>
        <pt x="656" y="749" on="0"/>
        <pt x="663" y="751" on="1"/>
        <pt x="664" y="751" on="0"/>
        <pt x="666" y="749" on="0"/>
        <pt x="668" y="749" on="1"/>
        <pt x="676" y="744" on="0"/>
        <pt x="690" y="742" on="0"/>
        <pt x="699" y="742" on="1"/>
        <pt x="707" y="742" on="0"/>
        <pt x="722" y="744" on="0"/>
        <pt x="730" y="746" on="1"/>
        <pt x="738" y="747" on="0"/>
        <pt x="751" y="751" on="0"/>
        <pt x="765" y="751" on="1"/>
        <pt x="770" y="750" on="0"/>
        <pt x="775" y="749" on="1"/>
        <pt x="780" y="748" on="0"/>
        <pt x="789" y="746" on="0"/>
        <pt x="792" y="746" on="1"/>
        <pt x="799" y="744" on="0"/>
        <pt x="812" y="742" on="0"/>
        <pt x="818" y="742" on="1"/>
        <pt x="830" y="742" on="0"/>
        <pt x="849" y="756" on="0"/>
        <pt x="862" y="777" on="0"/>
        <pt x="870" y="802" on="0"/>
        <pt x="872" y="813" on="1"/>
        <pt x="872" y="817" on="0"/>
        <pt x="873" y="840" on="0"/>
        <pt x="875" y="866" on="0"/>
        <pt x="877" y="887" on="0"/>
        <pt x="879" y="889" on="1"/>
        <pt x="884" y="901" on="0"/>
        <pt x="890" y="916" on="0"/>
        <pt x="891" y="916" on="1"/>
        <pt x="891" y="924" on="1"/>
        <pt x="893" y="933" on="0"/>
        <pt x="898" y="958" on="0"/>
        <pt x="910" y="962" on="1"/>
        <pt x="911" y="963" on="0"/>
        <pt x="920" y="967" on="0"/>
        <pt x="932" y="971" on="0"/>
        <pt x="943" y="974" on="0"/>
        <pt x="946" y="974" on="1"/>
        <pt x="966" y="974" on="0"/>
        <pt x="991" y="948" on="0"/>
        <pt x="995" y="938" on="1"/>
        <pt x="995" y="701" on="1"/>
        <pt x="995" y="698" on="0"/>
        <pt x="995" y="678" on="0"/>
        <pt x="997" y="666" on="1"/>
        <pt x="998" y="654" on="0"/>
        <pt x="1000" y="634" on="0"/>
        <pt x="1000" y="631" on="1"/>
        <pt x="1000" y="625" on="0"/>
        <pt x="994" y="585" on="0"/>
        <pt x="990" y="562" on="1"/>
        <pt x="985" y="540" on="0"/>
        <pt x="981" y="504" on="0"/>
        <pt x="981" y="500" on="1"/>
        <pt x="978" y="489" on="0"/>
        <pt x="978" y="476" on="1"/>
        <pt x="976" y="462" on="0"/>
        <pt x="972" y="432" on="0"/>
        <pt x="962" y="408" on="0"/>
        <pt x="942" y="393" on="0"/>
        <pt x="924" y="393" on="1"/>
        <pt x="908" y="393" on="0"/>
        <pt x="888" y="410" on="0"/>
        <pt x="878" y="435" on="0"/>
        <pt x="874" y="465" on="0"/>
        <pt x="874" y="479" on="1"/>
        <pt x="874" y="482" on="0"/>
        <pt x="872" y="491" on="0"/>
        <pt x="872" y="493" on="1"/>
        <pt x="868" y="512" on="0"/>
        <pt x="858" y="558" on="0"/>
        <pt x="839" y="599" on="0"/>
        <pt x="810" y="628" on="0"/>
        <pt x="787" y="631" on="1"/>
        <pt x="749" y="635" on="1"/>
        <pt x="732" y="637" on="0"/>
        <pt x="693" y="638" on="0"/>
        <pt x="683" y="640" on="1"/>
        <pt x="666" y="640" on="0"/>
        <pt x="638" y="638" on="0"/>
        <pt x="626" y="638" on="1"/>
        <pt x="615" y="638" on="0"/>
        <pt x="601" y="638" on="0"/>
        <pt x="599" y="640" on="1"/>
        <pt x="592" y="640" on="0"/>
        <pt x="588" y="642" on="1"/>
        <pt x="577" y="645" on="0"/>
        <pt x="574" y="645" on="1"/>
        <pt x="557" y="645" on="1"/>
        <pt x="546" y="645" on="0"/>
        <pt x="534" y="639" on="0"/>
        <pt x="529" y="635" on="1"/>
        <pt x="527" y="633" on="0"/>
        <pt x="522" y="630" on="0"/>
        <pt x="519" y="628" on="1"/>
        <pt x="515" y="626" on="0"/>
        <pt x="512" y="625" on="1"/>
        <pt x="483" y="625" on="1"/>
        <pt x="484" y="618" on="0"/>
        <pt x="484" y="603" on="0"/>
        <pt x="484" y="597" on="1"/>
        <pt x="484" y="592" on="0"/>
        <pt x="483" y="587" on="0"/>
        <pt x="481" y="583" on="1"/>
        <pt x="479" y="576" on="0"/>
        <pt x="472" y="561" on="0"/>
        <pt x="472" y="557" on="1"/>
        <pt x="472" y="555" on="0"/>
        <pt x="474" y="543" on="0"/>
        <pt x="476" y="536" on="1"/>
        <pt x="478" y="531" on="0"/>
        <pt x="478" y="526" on="1"/>
        <pt x="479" y="523" on="0"/>
        <pt x="481" y="508" on="0"/>
        <pt x="482" y="491" on="0"/>
        <pt x="484" y="475" on="0"/>
        <pt x="484" y="471" on="1"/>
        <pt x="486" y="469" on="0"/>
        <pt x="486" y="464" on="0"/>
        <pt x="486" y="462" on="1"/>
        <pt x="486" y="460" on="1"/>
        <pt x="493" y="456" on="0"/>
        <pt x="493" y="455" on="1"/>
        <pt x="498" y="441" on="0"/>
        <pt x="505" y="410" on="0"/>
        <pt x="507" y="393" on="1"/>
        <pt x="508" y="386" on="0"/>
        <pt x="509" y="344" on="0"/>
        <pt x="511" y="295" on="0"/>
        <pt x="512" y="250" on="0"/>
        <pt x="512" y="240" on="1"/>
        <pt x="512" y="137" on="1"/>
        <pt x="514" y="117" on="0"/>
        <pt x="537" y="96" on="0"/>
        <pt x="570" y="85" on="0"/>
        <pt x="607" y="83" on="0"/>
        <pt x="623" y="83" on="1"/>
        <pt x="657" y="83" on="1"/>
        <pt x="662" y="85" on="0"/>
        <pt x="705" y="88" on="0"/>
        <pt x="753" y="88" on="1"/>
        <pt x="757" y="88" on="0"/>
        <pt x="767" y="90" on="0"/>
        <pt x="773" y="90" on="1"/>
        <pt x="790" y="92" on="0"/>
        <pt x="829" y="95" on="0"/>
        <pt x="834" y="97" on="1"/>
        <pt x="836" y="97" on="0"/>
        <pt x="838" y="98" on="1"/>
        <pt x="840" y="99" on="0"/>
        <pt x="844" y="100" on="0"/>
        <pt x="846" y="102" on="1"/>
        <pt x="854" y="105" on="0"/>
        <pt x="857" y="107" on="0"/>
        <pt x="862" y="109" on="1"/>
        <pt x="867" y="109" on="0"/>
        <pt x="892" y="98" on="0"/>
        <pt x="894" y="95" on="1"/>
        <pt x="900" y="94" on="0"/>
        <pt x="918" y="93" on="0"/>
        <pt x="937" y="93" on="0"/>
        <pt x="953" y="93" on="0"/>
        <pt x="957" y="93" on="1"/>
        <pt x="963" y="93" on="0"/>
        <pt x="982" y="93" on="0"/>
        <pt x="1002" y="93" on="0"/>
        <pt x="1017" y="94" on="0"/>
        <pt x="1017" y="95" on="1"/>
        <pt x="1018" y="95" on="0"/>
        <pt x="1019" y="96" on="1"/>
        <pt x="1020" y="96" on="0"/>
        <pt x="1022" y="97" on="0"/>
        <pt x="1023" y="97" on="1"/>
        <pt x="1043" y="97" on="0"/>
        <pt x="1063" y="104" on="0"/>
        <pt x="1074" y="111" on="1"/>
        <pt x="1080" y="116" on="0"/>
        <pt x="1085" y="118" on="0"/>
        <pt x="1086" y="119" on="1"/>
        <pt x="1085" y="119" on="1"/>
        <pt x="1099" y="126" on="0"/>
        <pt x="1114" y="128" on="0"/>
        <pt x="1121" y="130" on="1"/>
        <pt x="1132" y="132" on="0"/>
        <pt x="1150" y="138" on="0"/>
        <pt x="1154" y="142" on="1"/>
        <pt x="1156" y="144" on="0"/>
        <pt x="1160" y="146" on="0"/>
        <pt x="1163" y="149" on="1"/>
        <pt x="1168" y="153" on="0"/>
        <pt x="1180" y="164" on="0"/>
        <pt x="1192" y="174" on="0"/>
        <pt x="1201" y="182" on="0"/>
        <pt x="1202" y="183" on="1"/>
        <pt x="1204" y="185" on="0"/>
        <pt x="1205" y="187" on="0"/>
        <pt x="1208" y="194" on="1"/>
        <pt x="1213" y="207" on="0"/>
        <pt x="1215" y="209" on="1"/>
        <pt x="1224" y="230" on="0"/>
        <pt x="1240" y="265" on="0"/>
        <pt x="1261" y="295" on="0"/>
        <pt x="1290" y="319" on="0"/>
        <pt x="1311" y="329" on="1"/>
        <pt x="1314" y="329" on="0"/>
        <pt x="1318" y="331" on="0"/>
        <pt x="1327" y="336" on="1"/>
        <pt x="1329" y="337" on="0"/>
        <pt x="1336" y="340" on="0"/>
        <pt x="1338" y="341" on="1"/>
        <pt x="1344" y="343" on="1"/>
        <pt x="1348" y="343" on="0"/>
        <pt x="1365" y="328" on="0"/>
        <pt x="1365" y="324" on="1"/>
        <pt x="1365" y="289" on="1"/>
        <pt x="1365" y="288" on="0"/>
        <pt x="1370" y="273" on="1"/>
        <pt x="1374" y="264" on="0"/>
        <pt x="1381" y="245" on="0"/>
        <pt x="1381" y="240" on="1"/>
        <pt x="1381" y="211" on="1"/>
        <pt x="1381" y="181" on="0"/>
        <pt x="1376" y="109" on="0"/>
        <pt x="1374" y="86" on="1"/>
        <pt x="1368" y="58" on="0"/>
        <pt x="1334" y="27" on="0"/>
        <pt x="1289" y="11" on="0"/>
        <pt x="1238" y="7" on="0"/>
        <pt x="1215" y="7" on="1"/>
        <pt x="1185" y="7" on="1"/>
        <pt x="1179" y="-11" on="0"/>
        <pt x="1163" y="-44" on="0"/>
        <pt x="1148" y="-78" on="0"/>
        <pt x="1138" y="-112" on="0"/>
        <pt x="1138" y="-130" on="1"/>
        <pt x="1138" y="-147" on="0"/>
        <pt x="1155" y="-187" on="0"/>
        <pt x="1160" y="-205" on="1"/>
        <pt x="1164" y="-216" on="0"/>
        <pt x="1167" y="-241" on="0"/>
        <pt x="1173" y="-252" on="1"/>
        <pt x="1180" y="-264" on="0"/>
        <pt x="1194" y="-282" on="0"/>
        <pt x="1200" y="-293" on="1"/>
        <pt x="1216" y="-302" on="1"/>
        <pt x="1223" y="-309" on="0"/>
        <pt x="1238" y="-312" on="0"/>
        <pt x="1249" y="-313" on="1"/>
        <pt x="1314" y="-317" on="1"/>
        <pt x="1332" y="-317" on="0"/>
        <pt x="1354" y="-307" on="0"/>
        <pt x="1369" y="-307" on="1"/>
        <pt x="1383" y="-307" on="1"/>
        <pt x="1402" y="-307" on="0"/>
        <pt x="1402" y="-325" on="1"/>
        <pt x="1402" y="-333" on="0"/>
        <pt x="1395" y="-342" on="1"/>
        <pt x="1373" y="-370" on="0"/>
        <pt x="1314" y="-406" on="0"/>
        <pt x="1281" y="-416" on="1"/>
        <pt x="1256" y="-428" on="1"/>
        <pt x="1245" y="-430" on="0"/>
        <pt x="1218" y="-431" on="0"/>
        <pt x="1206" y="-431" on="1"/>
        <pt x="1197" y="-431" on="0"/>
        <pt x="1165" y="-427" on="0"/>
        <pt x="1153" y="-425" on="1"/>
        <pt x="1138" y="-418" on="1"/>
        <pt x="1124" y="-414" on="0"/>
        <pt x="1099" y="-402" on="0"/>
        <pt x="1085" y="-397" on="1"/>
        <pt x="1068" y="-388" on="1"/>
        <pt x="1056" y="-371" on="1"/>
        <pt x="1052" y="-359" on="0"/>
        <pt x="1040" y="-338" on="0"/>
        <pt x="1033" y="-327" on="1"/>
        <pt x="1022" y="-308" on="0"/>
        <pt x="1013" y="-262" on="0"/>
        <pt x="1013" y="-238" on="1"/>
        <pt x="1013" y="-227" on="0"/>
        <pt x="1017" y="-195" on="0"/>
        <pt x="1019" y="-183" on="1"/>
        <pt x="1022" y="-154" on="1"/>
        <pt x="1031" y="-120" on="1"/>
        <pt x="1045" y="-88" on="1"/>
        <pt x="1059" y="-58" on="0"/>
        <pt x="1105" y="-10" on="0"/>
        <pt x="1134" y="7" on="1"/>
        <pt x="1128" y="7" on="1"/>
        <pt x="1119" y="14" on="0"/>
        <pt x="1104" y="16" on="0"/>
        <pt x="1093" y="16" on="1"/>
        <pt x="1092" y="16" on="0"/>
        <pt x="1089" y="15" on="0"/>
        <pt x="1078" y="12" on="1"/>
        <pt x="1067" y="8" on="0"/>
        <pt x="1061" y="7" on="0"/>
        <pt x="1059" y="7" on="1"/>
        <pt x="1053" y="5" on="0"/>
        <pt x="1025" y="3" on="0"/>
        <pt x="995" y="1" on="0"/>
        <pt x="969" y="0" on="0"/>
        <pt x="965" y="0" on="1"/>
        <pt x="486" y="0" on="1"/>
        <pt x="475" y="0" on="0"/>
        <pt x="457" y="4" on="0"/>
        <pt x="448" y="7" on="1"/>
        <pt x="439" y="9" on="0"/>
        <pt x="420" y="16" on="0"/>
        <pt x="415" y="16" on="1"/>
        <pt x="413" y="16" on="0"/>
        <pt x="409" y="15" on="0"/>
        <pt x="400" y="12" on="1"/>
        <pt x="398" y="12" on="0"/>
        <pt x="389" y="10" on="0"/>
        <pt x="384" y="9" on="1"/>
        <pt x="379" y="7" on="0"/>
        <pt x="370" y="7" on="0"/>
        <pt x="369" y="7" on="1"/>
        <pt x="364" y="7" on="0"/>
        <pt x="339" y="2" on="0"/>
        <pt x="322" y="-2" on="1"/>
        <pt x="301" y="-6" on="0"/>
        <pt x="263" y="-14" on="0"/>
        <pt x="253" y="-14" on="1"/>
        <pt x="232" y="-14" on="1"/>
        <pt x="93" y="-17" on="1"/>
        <pt x="91" y="-17" on="0"/>
        <pt x="83" y="-1" on="0"/>
        <pt x="76" y="20" on="0"/>
        <pt x="69" y="42" on="0"/>
        <pt x="68" y="47" on="1"/>
      </contour>
    </TTGlyph>
    <TTGlyph name="Eth" xMin="68" yMin="-7" xMax="1436" yMax="1405">
      <contour>
        <pt x="504" y="362" on="1"/>
        <pt x="505" y="355" on="0"/>
        <pt x="507" y="321" on="0"/>
        <pt x="509" y="284" on="0"/>
        <pt x="511" y="250" on="0"/>
        <pt x="512" y="244" on="1"/>
        <pt x="514" y="223" on="0"/>
        <pt x="520" y="183" on="0"/>
        <pt x="532" y="146" on="0"/>
        <pt x="555" y="115" on="0"/>
        <pt x="573" y="104" on="1"/>
        <pt x="657" y="104" on="1"/>
        <pt x="659" y="105" on="0"/>
        <pt x="672" y="109" on="0"/>
        <pt x="685" y="113" on="0"/>
        <pt x="697" y="118" on="0"/>
        <pt x="699" y="119" on="1"/>
        <pt x="702" y="119" on="0"/>
        <pt x="718" y="121" on="0"/>
        <pt x="736" y="123" on="0"/>
        <pt x="752" y="125" on="0"/>
        <pt x="754" y="125" on="1"/>
        <pt x="786" y="131" on="0"/>
        <pt x="836" y="154" on="0"/>
        <pt x="881" y="185" on="0"/>
        <pt x="924" y="223" on="0"/>
        <pt x="950" y="244" on="1"/>
        <pt x="960" y="252" on="0"/>
        <pt x="978" y="264" on="0"/>
        <pt x="994" y="275" on="0"/>
        <pt x="1011" y="288" on="0"/>
        <pt x="1019" y="298" on="1"/>
        <pt x="1021" y="300" on="0"/>
        <pt x="1026" y="311" on="0"/>
        <pt x="1026" y="313" on="1"/>
        <pt x="1028" y="316" on="0"/>
        <pt x="1048" y="336" on="0"/>
        <pt x="1072" y="359" on="0"/>
        <pt x="1092" y="379" on="0"/>
        <pt x="1095" y="382" on="1"/>
        <pt x="1096" y="384" on="0"/>
        <pt x="1104" y="394" on="0"/>
        <pt x="1113" y="404" on="0"/>
        <pt x="1121" y="414" on="0"/>
        <pt x="1123" y="417" on="1"/>
        <pt x="1134" y="434" on="0"/>
        <pt x="1137" y="470" on="0"/>
        <pt x="1144" y="486" on="1"/>
        <pt x="1145" y="488" on="0"/>
        <pt x="1152" y="498" on="0"/>
        <pt x="1159" y="510" on="0"/>
        <pt x="1165" y="519" on="0"/>
        <pt x="1166" y="521" on="1"/>
        <pt x="1173" y="537" on="0"/>
        <pt x="1184" y="581" on="0"/>
        <pt x="1191" y="628" on="0"/>
        <pt x="1194" y="673" on="0"/>
        <pt x="1194" y="690" on="1"/>
        <pt x="1194" y="694" on="0"/>
        <pt x="1193" y="710" on="0"/>
        <pt x="1193" y="725" on="0"/>
        <pt x="1192" y="736" on="0"/>
        <pt x="1192" y="737" on="1"/>
        <pt x="1192" y="739" on="0"/>
        <pt x="1185" y="757" on="0"/>
        <pt x="1185" y="768" on="1"/>
        <pt x="1185" y="782" on="0"/>
        <pt x="1194" y="808" on="0"/>
        <pt x="1194" y="822" on="1"/>
        <pt x="1194" y="847" on="0"/>
        <pt x="1172" y="892" on="0"/>
        <pt x="1143" y="935" on="0"/>
        <pt x="1115" y="978" on="0"/>
        <pt x="1109" y="1002" on="1"/>
        <pt x="1108" y="1002" on="0"/>
        <pt x="1106" y="1012" on="0"/>
        <pt x="1105" y="1023" on="0"/>
        <pt x="1104" y="1034" on="0"/>
        <pt x="1104" y="1036" on="1"/>
        <pt x="1101" y="1040" on="0"/>
        <pt x="1090" y="1058" on="0"/>
        <pt x="1076" y="1078" on="0"/>
        <pt x="1064" y="1096" on="0"/>
        <pt x="1061" y="1099" on="1"/>
        <pt x="1026" y="1108" on="0"/>
        <pt x="978" y="1150" on="0"/>
        <pt x="950" y="1168" on="1"/>
        <pt x="947" y="1169" on="0"/>
        <pt x="935" y="1175" on="0"/>
        <pt x="924" y="1182" on="0"/>
        <pt x="916" y="1187" on="0"/>
        <pt x="915" y="1187" on="1"/>
        <pt x="901" y="1198" on="0"/>
        <pt x="870" y="1230" on="0"/>
        <pt x="853" y="1237" on="1"/>
        <pt x="850" y="1238" on="0"/>
        <pt x="832" y="1244" on="0"/>
        <pt x="810" y="1251" on="0"/>
        <pt x="792" y="1257" on="0"/>
        <pt x="789" y="1258" on="1"/>
        <pt x="787" y="1258" on="0"/>
        <pt x="774" y="1264" on="0"/>
        <pt x="757" y="1272" on="0"/>
        <pt x="743" y="1278" on="0"/>
        <pt x="742" y="1278" on="1"/>
        <pt x="657" y="1278" on="1"/>
        <pt x="656" y="1278" on="0"/>
        <pt x="632" y="1284" on="0"/>
        <pt x="630" y="1284" on="1"/>
        <pt x="628" y="1284" on="0"/>
        <pt x="626" y="1285" on="1"/>
        <pt x="622" y="1287" on="0"/>
        <pt x="619" y="1287" on="1"/>
        <pt x="604" y="1287" on="0"/>
        <pt x="571" y="1282" on="0"/>
        <pt x="543" y="1269" on="0"/>
        <pt x="522" y="1247" on="0"/>
        <pt x="519" y="1230" on="1"/>
        <pt x="518" y="1227" on="0"/>
        <pt x="516" y="1209" on="0"/>
        <pt x="514" y="1188" on="0"/>
        <pt x="512" y="1167" on="0"/>
        <pt x="512" y="1161" on="1"/>
        <pt x="512" y="1159" on="0"/>
        <pt x="510" y="1154" on="0"/>
        <pt x="510" y="1152" on="1"/>
        <pt x="510" y="1149" on="0"/>
        <pt x="511" y="1148" on="1"/>
        <pt x="511" y="1146" on="0"/>
        <pt x="512" y="1145" on="1"/>
        <pt x="512" y="1145" on="0"/>
        <pt x="513" y="1136" on="0"/>
        <pt x="515" y="1108" on="0"/>
        <pt x="516" y="1055" on="0"/>
        <pt x="516" y="1009" on="1"/>
        <pt x="516" y="945" on="1"/>
        <pt x="511" y="915" on="0"/>
        <pt x="519" y="857" on="0"/>
        <pt x="516" y="827" on="1"/>
        <pt x="516" y="756" on="1"/>
        <pt x="566" y="756" on="1"/>
        <pt x="593" y="761" on="0"/>
        <pt x="630" y="759" on="0"/>
        <pt x="662" y="754" on="0"/>
        <pt x="692" y="751" on="0"/>
        <pt x="712" y="756" on="1"/>
        <pt x="781" y="756" on="1"/>
        <pt x="811" y="747" on="0"/>
        <pt x="847" y="714" on="0"/>
        <pt x="866" y="694" on="1"/>
        <pt x="866" y="693" on="0"/>
        <pt x="867" y="692" on="1"/>
        <pt x="868" y="691" on="0"/>
        <pt x="868" y="690" on="0"/>
        <pt x="869" y="689" on="1"/>
        <pt x="870" y="687" on="0"/>
        <pt x="872" y="685" on="1"/>
        <pt x="872" y="672" on="0"/>
        <pt x="854" y="641" on="0"/>
        <pt x="845" y="630" on="1"/>
        <pt x="834" y="619" on="0"/>
        <pt x="802" y="608" on="0"/>
        <pt x="788" y="600" on="1"/>
        <pt x="786" y="600" on="0"/>
        <pt x="768" y="599" on="0"/>
        <pt x="754" y="599" on="1"/>
        <pt x="729" y="601" on="0"/>
        <pt x="679" y="586" on="0"/>
        <pt x="655" y="586" on="1"/>
        <pt x="623" y="586" on="0"/>
        <pt x="572" y="593" on="0"/>
        <pt x="541" y="596" on="1"/>
        <pt x="527" y="596" on="0"/>
        <pt x="508" y="595" on="0"/>
        <pt x="504" y="595" on="1"/>
        <pt x="504" y="543" on="1"/>
        <pt x="504" y="525" on="0"/>
        <pt x="501" y="488" on="0"/>
        <pt x="498" y="474" on="1"/>
        <pt x="498" y="472" on="0"/>
        <pt x="494" y="459" on="0"/>
        <pt x="488" y="444" on="0"/>
        <pt x="484" y="432" on="0"/>
        <pt x="484" y="431" on="1"/>
        <pt x="484" y="408" on="0"/>
        <pt x="497" y="375" on="0"/>
      </contour>
      <contour>
        <pt x="124" y="706" on="1"/>
        <pt x="124" y="719" on="0"/>
        <pt x="144" y="735" on="0"/>
        <pt x="173" y="744" on="0"/>
        <pt x="207" y="748" on="0"/>
        <pt x="221" y="749" on="1"/>
        <pt x="324" y="749" on="1"/>
        <pt x="319" y="778" on="0"/>
        <pt x="310" y="833" on="0"/>
        <pt x="310" y="865" on="1"/>
        <pt x="310" y="917" on="1"/>
        <pt x="310" y="918" on="0"/>
        <pt x="312" y="927" on="0"/>
        <pt x="315" y="936" on="0"/>
        <pt x="318" y="944" on="0"/>
        <pt x="318" y="945" on="1"/>
        <pt x="318" y="1041" on="1"/>
        <pt x="318" y="1044" on="0"/>
        <pt x="320" y="1063" on="0"/>
        <pt x="323" y="1084" on="0"/>
        <pt x="325" y="1103" on="0"/>
        <pt x="325" y="1105" on="1"/>
        <pt x="325" y="1223" on="1"/>
        <pt x="324" y="1226" on="0"/>
        <pt x="319" y="1244" on="0"/>
        <pt x="312" y="1263" on="0"/>
        <pt x="306" y="1281" on="0"/>
        <pt x="303" y="1284" on="1"/>
        <pt x="297" y="1286" on="0"/>
        <pt x="267" y="1290" on="0"/>
        <pt x="234" y="1295" on="0"/>
        <pt x="205" y="1298" on="0"/>
        <pt x="199" y="1299" on="1"/>
        <pt x="180" y="1301" on="0"/>
        <pt x="141" y="1301" on="0"/>
        <pt x="108" y="1310" on="0"/>
        <pt x="87" y="1335" on="0"/>
        <pt x="87" y="1362" on="1"/>
        <pt x="87" y="1368" on="1"/>
        <pt x="87" y="1373" on="0"/>
        <pt x="89" y="1382" on="0"/>
        <pt x="95" y="1382" on="1"/>
        <pt x="100" y="1383" on="0"/>
        <pt x="126" y="1390" on="0"/>
        <pt x="155" y="1397" on="0"/>
        <pt x="181" y="1402" on="0"/>
        <pt x="187" y="1403" on="1"/>
        <pt x="215" y="1403" on="1"/>
        <pt x="219" y="1403" on="0"/>
        <pt x="229" y="1405" on="0"/>
        <pt x="235" y="1405" on="1"/>
        <pt x="243" y="1405" on="0"/>
        <pt x="257" y="1401" on="0"/>
        <pt x="261" y="1396" on="1"/>
        <pt x="272" y="1395" on="0"/>
        <pt x="326" y="1391" on="0"/>
        <pt x="386" y="1387" on="0"/>
        <pt x="439" y="1383" on="0"/>
        <pt x="450" y="1382" on="1"/>
        <pt x="489" y="1382" on="0"/>
        <pt x="556" y="1392" on="0"/>
        <pt x="595" y="1396" on="1"/>
        <pt x="605" y="1395" on="0"/>
        <pt x="659" y="1391" on="0"/>
        <pt x="719" y="1387" on="0"/>
        <pt x="773" y="1383" on="0"/>
        <pt x="784" y="1382" on="1"/>
        <pt x="785" y="1382" on="0"/>
        <pt x="805" y="1377" on="0"/>
        <pt x="818" y="1375" on="1"/>
        <pt x="820" y="1375" on="0"/>
        <pt x="842" y="1382" on="0"/>
        <pt x="846" y="1382" on="1"/>
        <pt x="851" y="1382" on="0"/>
        <pt x="870" y="1377" on="0"/>
        <pt x="874" y="1375" on="1"/>
        <pt x="878" y="1375" on="0"/>
        <pt x="910" y="1369" on="0"/>
        <pt x="948" y="1363" on="0"/>
        <pt x="980" y="1357" on="0"/>
        <pt x="984" y="1356" on="1"/>
        <pt x="986" y="1354" on="0"/>
        <pt x="1003" y="1349" on="0"/>
        <pt x="1005" y="1348" on="1"/>
        <pt x="1006" y="1348" on="0"/>
        <pt x="1014" y="1344" on="0"/>
        <pt x="1023" y="1338" on="0"/>
        <pt x="1030" y="1334" on="0"/>
        <pt x="1031" y="1334" on="1"/>
        <pt x="1035" y="1332" on="0"/>
        <pt x="1058" y="1327" on="0"/>
        <pt x="1061" y="1327" on="1"/>
        <pt x="1062" y="1325" on="0"/>
        <pt x="1079" y="1316" on="0"/>
        <pt x="1081" y="1313" on="1"/>
        <pt x="1083" y="1312" on="0"/>
        <pt x="1096" y="1302" on="0"/>
        <pt x="1109" y="1290" on="0"/>
        <pt x="1121" y="1279" on="0"/>
        <pt x="1123" y="1278" on="1"/>
        <pt x="1136" y="1268" on="0"/>
        <pt x="1165" y="1262" on="0"/>
        <pt x="1178" y="1249" on="1"/>
        <pt x="1184" y="1244" on="0"/>
        <pt x="1207" y="1222" on="0"/>
        <pt x="1231" y="1198" on="0"/>
        <pt x="1251" y="1178" on="0"/>
        <pt x="1254" y="1175" on="1"/>
        <pt x="1257" y="1172" on="0"/>
        <pt x="1275" y="1147" on="0"/>
        <pt x="1296" y="1119" on="0"/>
        <pt x="1315" y="1095" on="0"/>
        <pt x="1317" y="1092" on="1"/>
        <pt x="1319" y="1090" on="0"/>
        <pt x="1330" y="1079" on="0"/>
        <pt x="1332" y="1076" on="1"/>
        <pt x="1344" y="1061" on="0"/>
        <pt x="1356" y="1029" on="0"/>
        <pt x="1363" y="996" on="0"/>
        <pt x="1369" y="962" on="0"/>
        <pt x="1374" y="945" on="1"/>
        <pt x="1374" y="944" on="0"/>
        <pt x="1378" y="936" on="0"/>
        <pt x="1382" y="927" on="0"/>
        <pt x="1386" y="918" on="0"/>
        <pt x="1386" y="917" on="1"/>
        <pt x="1388" y="915" on="0"/>
        <pt x="1393" y="900" on="0"/>
        <pt x="1394" y="898" on="1"/>
        <pt x="1402" y="877" on="0"/>
        <pt x="1417" y="851" on="0"/>
        <pt x="1429" y="827" on="0"/>
        <pt x="1436" y="798" on="0"/>
        <pt x="1436" y="773" on="1"/>
        <pt x="1436" y="759" on="0"/>
        <pt x="1427" y="735" on="0"/>
        <pt x="1417" y="711" on="0"/>
        <pt x="1408" y="686" on="0"/>
        <pt x="1408" y="673" on="1"/>
        <pt x="1408" y="650" on="0"/>
        <pt x="1415" y="599" on="0"/>
        <pt x="1415" y="555" on="1"/>
        <pt x="1415" y="554" on="0"/>
        <pt x="1401" y="520" on="0"/>
        <pt x="1401" y="486" on="1"/>
        <pt x="1400" y="484" on="0"/>
        <pt x="1388" y="467" on="0"/>
        <pt x="1386" y="465" on="1"/>
        <pt x="1375" y="445" on="0"/>
        <pt x="1365" y="395" on="0"/>
        <pt x="1358" y="375" on="1"/>
        <pt x="1351" y="349" on="0"/>
        <pt x="1311" y="308" on="0"/>
        <pt x="1298" y="285" on="1"/>
        <pt x="1275" y="247" on="0"/>
        <pt x="1213" y="173" on="0"/>
        <pt x="1178" y="147" on="1"/>
        <pt x="1177" y="145" on="0"/>
        <pt x="1165" y="139" on="0"/>
        <pt x="1151" y="132" on="0"/>
        <pt x="1139" y="126" on="0"/>
        <pt x="1138" y="125" on="1"/>
        <pt x="1121" y="115" on="0"/>
        <pt x="1093" y="91" on="0"/>
        <pt x="1074" y="85" on="1"/>
        <pt x="1040" y="69" on="0"/>
        <pt x="970" y="46" on="0"/>
        <pt x="943" y="21" on="1"/>
        <pt x="934" y="20" on="0"/>
        <pt x="890" y="17" on="0"/>
        <pt x="842" y="12" on="0"/>
        <pt x="798" y="8" on="0"/>
        <pt x="789" y="7" on="1"/>
        <pt x="787" y="7" on="0"/>
        <pt x="765" y="0" on="0"/>
        <pt x="761" y="0" on="1"/>
        <pt x="754" y="-1" on="0"/>
        <pt x="714" y="-3" on="0"/>
        <pt x="667" y="-5" on="0"/>
        <pt x="625" y="-7" on="0"/>
        <pt x="616" y="-7" on="1"/>
        <pt x="441" y="-7" on="1"/>
        <pt x="407" y="-5" on="0"/>
        <pt x="339" y="9" on="0"/>
        <pt x="303" y="9" on="1"/>
        <pt x="289" y="9" on="0"/>
        <pt x="269" y="7" on="0"/>
        <pt x="256" y="0" on="1"/>
        <pt x="114" y="0" on="1"/>
        <pt x="113" y="0" on="0"/>
        <pt x="104" y="3" on="0"/>
        <pt x="93" y="8" on="0"/>
        <pt x="83" y="14" on="0"/>
        <pt x="80" y="16" on="1"/>
        <pt x="71" y="24" on="0"/>
        <pt x="68" y="47" on="0"/>
        <pt x="68" y="64" on="1"/>
        <pt x="68" y="69" on="0"/>
        <pt x="69" y="81" on="0"/>
        <pt x="74" y="85" on="1"/>
        <pt x="76" y="86" on="0"/>
        <pt x="100" y="95" on="0"/>
        <pt x="102" y="97" on="1"/>
        <pt x="103" y="98" on="0"/>
        <pt x="111" y="106" on="0"/>
        <pt x="120" y="116" on="0"/>
        <pt x="128" y="124" on="0"/>
        <pt x="130" y="125" on="1"/>
        <pt x="144" y="125" on="1"/>
        <pt x="155" y="125" on="0"/>
        <pt x="173" y="119" on="0"/>
        <pt x="183" y="119" on="1"/>
        <pt x="202" y="119" on="0"/>
        <pt x="236" y="122" on="0"/>
        <pt x="256" y="125" on="1"/>
        <pt x="283" y="130" on="0"/>
        <pt x="306" y="166" on="0"/>
        <pt x="310" y="194" on="1"/>
        <pt x="310" y="196" on="0"/>
        <pt x="313" y="221" on="0"/>
        <pt x="315" y="256" on="0"/>
        <pt x="318" y="292" on="0"/>
        <pt x="318" y="306" on="1"/>
        <pt x="318" y="313" on="0"/>
        <pt x="316" y="320" on="0"/>
        <pt x="310" y="327" on="1"/>
        <pt x="310" y="431" on="1"/>
        <pt x="310" y="435" on="0"/>
        <pt x="315" y="470" on="0"/>
        <pt x="321" y="510" on="0"/>
        <pt x="325" y="544" on="0"/>
        <pt x="325" y="548" on="1"/>
        <pt x="325" y="600" on="1"/>
        <pt x="310" y="600" on="1"/>
        <pt x="305" y="600" on="0"/>
        <pt x="275" y="602" on="0"/>
        <pt x="241" y="603" on="0"/>
        <pt x="210" y="605" on="0"/>
        <pt x="205" y="605" on="1"/>
        <pt x="175" y="608" on="0"/>
        <pt x="143" y="625" on="0"/>
        <pt x="128" y="651" on="0"/>
        <pt x="125" y="685" on="0"/>
      </contour>
    </TTGlyph>
</ttFont>
